<svg width="1177" height="186" xmlns="http://www.w3.org/2000/svg"><title>background</title><path fill="none" d="M-1-1h1179v188H-1z"/><g><title>Layer 1</title><g stroke="null"><g transform="matrix(.88286 0 0 .78047 15.57 14.912)"><title>background</title><path fill="none" d="M5.68-24.646h79.094v94.362H5.68z"/></g><g transform="matrix(.8293 0 0 .74475 20.906 16.655)"><title>Layer 1</title><path d="M23.212 14.19s.01 3.25.01 4.415c0 9.08 7.36 16.484 16.442 16.484 9.08 0 16.484-7.405 16.484-16.485 0-1.164-.035-4.518-.035-4.518l-32.9.103z" stroke-width="2.9832660000000004" fill="#a88600"/><path stroke="#cda400" d="M54.665 15.424c0 8.274-6.708 14.982-14.982 14.982-8.275 0-14.982-6.708-14.982-14.982S31.41.442 39.684.442c8.274 0 14.982 6.708 14.982 14.982z" stroke-width="2.9832660000000004" fill="#ffd948"/><path d="M28.35 14.822c-.012.2-.044.39-.044.593 0 6.288 5.07 11.4 11.357 11.4 6.29 0 11.4-5.112 11.4-11.4 0-.204-.032-.392-.043-.593H28.35z" fill="#fc0" stroke-width="1.35603"/></g></g><g stroke="null"><g transform="matrix(.88286 0 0 .78047 15.57 14.912)"><title>background</title><path fill="none" d="M5.68 12.51h79.094v94.363H5.68z"/></g><g transform="matrix(.8293 0 0 .74475 20.906 16.655)"><title>Layer 1</title><path d="M23.212 53.13s.01 3.25.01 4.414c0 9.08 7.36 16.484 16.442 16.484 9.08 0 16.484-7.404 16.484-16.484 0-1.163-.035-4.518-.035-4.518l-32.9.103z" stroke-width="2.9832660000000004" fill="#a88600"/><path stroke="#cda400" d="M54.665 54.363c0 8.275-6.708 14.982-14.982 14.982-8.275 0-14.982-6.707-14.982-14.982 0-8.274 6.708-14.982 14.983-14.982 8.274 0 14.982 6.71 14.982 14.983z" stroke-width="2.9832660000000004" fill="#ffd948"/><path d="M28.35 53.76c-.012.202-.044.39-.044.594 0 6.29 5.07 11.4 11.357 11.4 6.29 0 11.4-5.11 11.4-11.4 0-.204-.032-.392-.043-.593H28.35z" fill="#fc0" stroke-width="1.35603"/></g></g><g stroke="null"><g transform="matrix(.88286 0 0 .78047 15.57 14.912)"><title>background</title><path fill="none" d="M5.68 51.377h79.094v94.362H5.68z"/></g><g transform="matrix(.8293 0 0 .74475 20.906 16.655)"><title>Layer 1</title><path d="M23.212 93.86s.01 3.25.01 4.413c0 9.08 7.36 16.485 16.442 16.485 9.08 0 16.484-7.404 16.484-16.485 0-1.163-.035-4.518-.035-4.518l-32.9.104z" stroke-width="2.9832660000000004" fill="#a88600"/><path stroke="#cda400" d="M54.665 95.093c0 8.274-6.708 14.982-14.982 14.982-8.275 0-14.982-6.708-14.982-14.982 0-8.275 6.708-14.982 14.983-14.982 8.274 0 14.982 6.708 14.982 14.983z" stroke-width="2.9832660000000004" fill="#ffd948"/><path d="M28.35 94.49c-.012.202-.044.39-.044.594 0 6.288 5.07 11.4 11.357 11.4 6.29 0 11.4-5.112 11.4-11.4 0-.204-.032-.392-.043-.594H28.35z" fill="#fc0" stroke-width="1.35603"/></g></g><g stroke="null"><g transform="matrix(.88286 0 0 .78047 15.57 14.912)"><title>background</title><path fill="none" d="M5.68 90.67h79.094v94.36H5.68z"/></g><g transform="matrix(.8293 0 0 .74475 20.906 16.655)"><title>Layer 1</title><path d="M23.212 135.036s.01 3.25.01 4.414c0 9.08 7.36 16.485 16.442 16.485 9.08 0 16.484-7.404 16.484-16.485 0-1.163-.035-4.517-.035-4.517l-32.9.103z" stroke-width="2.9832660000000004" fill="#a88600"/><path stroke="#cda400" d="M54.665 136.27c0 8.274-6.708 14.982-14.982 14.982-8.275 0-14.982-6.708-14.982-14.982s6.708-14.982 14.983-14.982c8.274 0 14.982 6.708 14.982 14.982z" stroke-width="2.9832660000000004" fill="#ffd948"/><path d="M28.35 135.667c-.012.202-.044.39-.044.594 0 6.29 5.07 11.4 11.357 11.4 6.29 0 11.4-5.11 11.4-11.4 0-.203-.032-.39-.043-.593H28.35z" fill="#fc0" stroke-width="1.35603"/></g></g><g stroke="null"><g transform="matrix(.88286 0 0 .78047 15.57 14.912)"><title>background</title><path fill="none" d="M5.68 128.254h79.094v94.362H5.68z"/></g><g transform="matrix(.8293 0 0 .74475 20.906 16.655)"><title>Layer 1</title><path d="M23.212 174.423s.01 3.25.01 4.414c0 9.08 7.36 16.485 16.442 16.485 9.08 0 16.484-7.404 16.484-16.485 0-1.163-.035-4.518-.035-4.518l-32.9.103z" stroke-width="2.9832660000000004" fill="#a88600"/><path stroke="#cda400" d="M54.665 175.657c0 8.274-6.708 14.982-14.982 14.982-8.275 0-14.982-6.71-14.982-14.983 0-8.275 6.708-14.982 14.983-14.982 8.274 0 14.982 6.707 14.982 14.982z" stroke-width="2.9832660000000004" fill="#ffd948"/><path d="M28.35 175.054c-.012.202-.044.39-.044.594 0 6.288 5.07 11.4 11.357 11.4 6.29 0 11.4-5.112 11.4-11.4 0-.204-.032-.392-.043-.594H28.35z" fill="#fc0" stroke-width="1.35603"/></g></g><g stroke="null"><g transform="matrix(.88286 0 0 .78047 15.57 14.912)"><title>background</title><path fill="none" d="M38.905-23.792H118V70.57H38.904z"/></g><g transform="matrix(.8293 0 0 .74475 20.906 16.655)"><title>Layer 1</title><path d="M58.584 15.085s.01 3.25.01 4.415c0 9.08 7.36 16.484 16.44 16.484 9.08 0 16.485-7.404 16.485-16.484 0-1.163-.035-4.518-.035-4.518l-32.9.103z" stroke-width="2.9832660000000004" fill="#a88600"/><path stroke="#cda400" d="M90.036 16.32c0 8.274-6.708 14.98-14.982 14.98s-14.982-6.706-14.982-14.98c0-8.275 6.708-14.983 14.982-14.983S90.036 8.045 90.036 16.32z" stroke-width="2.9832660000000004" fill="#ffd948"/><path d="M63.72 15.717c-.01.2-.042.39-.042.593 0 6.29 5.068 11.4 11.356 11.4 6.29 0 11.4-5.11 11.4-11.4 0-.204-.032-.392-.043-.593H63.72z" fill="#fc0" stroke-width="1.35603"/></g></g><g stroke="null"><g transform="matrix(.88286 0 0 .78047 15.57 14.912)"><title>background</title><path fill="none" d="M69.11-6.708h79.094v94.362H69.11z"/></g><g transform="matrix(.8293 0 0 .74475 20.906 16.655)"><title>Layer 1</title><path d="M90.74 32.988s.01 3.25.01 4.415c0 9.08 7.36 16.484 16.44 16.484 9.08 0 16.485-7.404 16.485-16.484 0-1.163-.035-4.518-.035-4.518l-32.9.103z" stroke-width="2.9832660000000004" fill="#a88600"/><path stroke="#cda400" d="M122.192 34.222c0 8.275-6.708 14.982-14.982 14.982-8.275 0-14.983-6.707-14.983-14.982 0-8.274 6.708-14.982 14.983-14.982 8.274 0 14.982 6.708 14.982 14.982z" stroke-width="2.9832660000000004" fill="#ffd948"/><path d="M95.876 33.62c-.01.2-.043.39-.043.593 0 6.29 5.068 11.4 11.357 11.4 6.29 0 11.4-5.11 11.4-11.4 0-.204-.033-.392-.043-.593h-22.67z" fill="#fc0" stroke-width="1.35603"/></g></g><g stroke="null"><g transform="matrix(.88286 0 0 .78047 15.57 14.912)"><title>background</title><path fill="none" d="M41.17 51.377h79.094v94.362H41.17z"/></g><g transform="matrix(.8293 0 0 .74475 20.906 16.655)"><title>Layer 1</title><path d="M60.995 93.86s.01 3.25.01 4.413c0 9.08 7.36 16.485 16.442 16.485 9.08 0 16.484-7.404 16.484-16.485 0-1.163-.034-4.518-.034-4.518l-32.9.104z" stroke-width="2.9832660000000004" fill="#a88600"/><path stroke="#cda400" d="M92.448 95.093c0 8.274-6.708 14.982-14.982 14.982-8.275 0-14.983-6.708-14.983-14.982 0-8.275 6.708-14.982 14.983-14.982 8.274 0 14.982 6.708 14.982 14.983z" stroke-width="2.9832660000000004" fill="#ffd948"/><path d="M66.132 94.49c-.01.202-.043.39-.043.594 0 6.288 5.067 11.4 11.356 11.4 6.29 0 11.4-5.112 11.4-11.4 0-.204-.033-.392-.043-.594h-22.67z" fill="#fc0" stroke-width="1.35603"/></g></g><g stroke="null"><g transform="matrix(.88286 0 0 .78047 15.57 14.912)"><title>background</title><path fill="none" d="M69.865 30.022h79.094v94.362H69.864z"/></g><g transform="matrix(.8293 0 0 .74475 20.906 16.655)"><title>Layer 1</title><path d="M91.543 71.48s.01 3.25.01 4.414c0 9.08 7.36 16.485 16.44 16.485 9.082 0 16.486-7.405 16.486-16.486 0-1.163-.036-4.517-.036-4.517l-32.9.103z" stroke-width="2.9832660000000004" fill="#a88600"/><path stroke="#cda400" d="M122.996 72.714c0 8.274-6.708 14.982-14.983 14.982-8.274 0-14.982-6.708-14.982-14.982s6.71-14.982 14.983-14.982c8.275 0 14.983 6.708 14.983 14.982z" stroke-width="2.9832660000000004" fill="#ffd948"/><path d="M96.68 72.11c-.01.203-.043.39-.043.595 0 6.288 5.068 11.4 11.357 11.4 6.288 0 11.4-5.112 11.4-11.4 0-.204-.033-.392-.043-.594H96.68z" fill="#fc0" stroke-width="1.35603"/></g></g><g stroke="null"><g transform="matrix(.88286 0 0 .78047 15.57 14.912)"><title>background</title><path fill="none" d="M118.947 131.67h79.094v94.362h-79.093z"/></g><g transform="matrix(.8293 0 0 .74475 20.906 16.655)"><title>Layer 1</title><path d="M143.796 178.003s.01 3.25.01 4.415c0 9.08 7.36 16.484 16.44 16.484 9.082 0 16.485-7.404 16.485-16.484 0-1.163-.033-4.518-.033-4.518l-32.9.103z" stroke-width="2.9832660000000004" fill="#a88600"/><path stroke="#cda400" d="M175.248 179.237c0 8.275-6.707 14.983-14.982 14.983-8.274 0-14.982-6.708-14.982-14.983 0-8.274 6.708-14.982 14.982-14.982 8.275 0 14.982 6.708 14.982 14.982z" stroke-width="2.9832660000000004" fill="#ffd948"/><path d="M148.932 178.635c-.01.2-.042.39-.042.593 0 6.29 5.068 11.4 11.357 11.4 6.288 0 11.4-5.11 11.4-11.4 0-.204-.033-.392-.043-.593h-22.672z" fill="#fc0" stroke-width="1.35603"/></g></g><g stroke="null"><g transform="matrix(.88286 0 0 .78047 15.57 14.912)"><title>background</title><path fill="none" d="M131.03 91.524h79.093v94.362H131.03z"/></g><g transform="matrix(.8293 0 0 .74475 20.906 16.655)"><title>Layer 1</title><path d="M156.658 135.93s.01 3.252.01 4.416c0 9.08 7.36 16.484 16.44 16.484 9.082 0 16.486-7.404 16.486-16.484 0-1.164-.035-4.518-.035-4.518l-32.902.103z" stroke-width="2.9832660000000004" fill="#a88600"/><path stroke="#cda400" d="M188.11 137.165c0 8.275-6.707 14.982-14.98 14.982-8.276 0-14.984-6.707-14.984-14.982 0-8.274 6.708-14.982 14.983-14.982 8.273 0 14.98 6.708 14.98 14.982z" stroke-width="2.9832660000000004" fill="#ffd948"/><path d="M161.795 136.563c-.01.2-.043.39-.043.593 0 6.288 5.068 11.4 11.357 11.4 6.288 0 11.398-5.112 11.398-11.4 0-.204-.032-.392-.042-.593h-22.67z" fill="#fc0" stroke-width="1.35603"/></g></g><g stroke="null"><g transform="matrix(.88286 0 0 .78047 15.57 14.912)"><title>background</title><path fill="none" d="M142.356 53.94h79.094v94.36h-79.094z"/></g><g transform="matrix(.8293 0 0 .74475 20.906 16.655)"><title>Layer 1</title><path d="M168.716 96.544s.01 3.25.01 4.415c0 9.08 7.36 16.483 16.442 16.483 9.08 0 16.484-7.404 16.484-16.484 0-1.164-.035-4.52-.035-4.52l-32.9.104z" stroke-width="2.9832660000000004" fill="#a88600"/><path stroke="#cda400" d="M200.17 97.778c0 8.275-6.71 14.983-14.983 14.983-8.275 0-14.982-6.707-14.982-14.982 0-8.274 6.707-14.982 14.982-14.982 8.274 0 14.982 6.708 14.982 14.982z" stroke-width="2.9832660000000004" fill="#ffd948"/><path d="M173.853 97.176c-.01.2-.042.39-.042.593 0 6.288 5.07 11.398 11.357 11.398 6.29 0 11.4-5.11 11.4-11.4 0-.203-.032-.39-.043-.592h-22.67z" fill="#fc0" stroke-width="1.35603"/></g></g><g stroke="null"><g transform="matrix(.88286 0 0 .78047 15.57 14.912)"><title>background</title><path fill="none" d="M152.928 16.355h79.094v94.362h-79.094z"/></g><g transform="matrix(.8293 0 0 .74475 20.906 16.655)"><title>Layer 1</title><path d="M179.97 57.157s.01 3.252.01 4.415c0 9.08 7.362 16.484 16.442 16.484s16.485-7.403 16.485-16.484c0-1.163-.035-4.518-.035-4.518l-32.9.103z" stroke-width="2.9832660000000004" fill="#a88600"/><path stroke="#cda400" d="M211.423 58.392c0 8.274-6.707 14.982-14.982 14.982-8.273 0-14.98-6.708-14.98-14.982 0-8.275 6.707-14.983 14.98-14.983 8.276 0 14.983 6.707 14.983 14.982z" stroke-width="2.9832660000000004" fill="#ffd948"/><path d="M185.107 57.79c-.01.2-.042.388-.042.592 0 6.29 5.068 11.4 11.357 11.4 6.288 0 11.4-5.11 11.4-11.4 0-.204-.033-.392-.043-.593h-22.673z" fill="#fc0" stroke-width="1.35603"/></g></g><g stroke="null"><g transform="matrix(.88286 0 0 .78047 15.57 14.912)"><title>background</title><path fill="none" d="M168.03-19.52h79.094v94.36H168.03z"/></g><g transform="matrix(.8293 0 0 .74475 20.906 16.655)"><title>Layer 1</title><path d="M196.05 19.56s.008 3.252.008 4.415c0 9.08 7.362 16.485 16.442 16.485s16.484-7.404 16.484-16.485c0-1.163-.034-4.517-.034-4.517l-32.9.103z" stroke-width="2.9832660000000004" fill="#a88600"/><path stroke="#cda400" d="M227.5 20.795c0 8.274-6.706 14.982-14.98 14.982-8.275 0-14.983-6.708-14.983-14.982s6.708-14.982 14.982-14.982 14.98 6.708 14.98 14.982z" stroke-width="2.9832660000000004" fill="#ffd948"/><path d="M201.185 20.192c-.01.202-.042.39-.042.594 0 6.288 5.068 11.4 11.357 11.4 6.288 0 11.4-5.112 11.4-11.4 0-.204-.033-.392-.044-.594h-22.67z" fill="#fc0" stroke-width="1.35603"/></g></g><g stroke="null"><g transform="matrix(.88286 0 0 .78047 15.57 14.912)"><title>background</title><path fill="none" d="M187.663 15.5h79.094v94.363h-79.094z"/></g><g transform="matrix(.8293 0 0 .74475 20.906 16.655)"><title>Layer 1</title><path d="M216.95 56.262s.01 3.25.01 4.415c0 9.08 7.36 16.484 16.44 16.484 9.082 0 16.485-7.403 16.485-16.483 0-1.163-.034-4.518-.034-4.518l-32.9.102z" stroke-width="2.9832660000000004" fill="#a88600"/><path stroke="#cda400" d="M248.402 57.496c0 8.275-6.707 14.983-14.982 14.983-8.274 0-14.982-6.71-14.982-14.984 0-8.274 6.708-14.982 14.982-14.982 8.275 0 14.982 6.708 14.982 14.982z" stroke-width="2.9832660000000004" fill="#ffd948"/><path d="M222.086 56.894c-.01.2-.042.39-.042.593 0 6.29 5.068 11.4 11.357 11.4 6.29 0 11.4-5.11 11.4-11.4 0-.204-.032-.392-.042-.593h-22.672z" fill="#fc0" stroke-width="1.35603"/></g></g><g stroke="null"><g transform="matrix(.88286 0 0 .78047 15.57 14.912)"><title>background</title><path fill="none" d="M196.725 53.085h79.094v94.362h-79.095z"/></g><g transform="matrix(.8293 0 0 .74475 20.906 16.655)"><title>Layer 1</title><path d="M226.597 95.65s.01 3.25.01 4.414c0 9.08 7.36 16.484 16.44 16.484 9.08 0 16.485-7.404 16.485-16.484 0-1.164-.034-4.518-.034-4.518l-32.9.103z" stroke-width="2.9832660000000004" fill="#a88600"/><path stroke="#cda400" d="M258.05 96.883c0 8.275-6.71 14.982-14.983 14.982-8.274 0-14.982-6.707-14.982-14.982 0-8.274 6.708-14.982 14.982-14.982s14.982 6.71 14.982 14.983z" stroke-width="2.9832660000000004" fill="#ffd948"/><path d="M231.733 96.28c-.01.202-.042.39-.042.594 0 6.288 5.07 11.4 11.357 11.4 6.29 0 11.4-5.112 11.4-11.4 0-.204-.032-.392-.043-.593h-22.67z" fill="#fc0" stroke-width="1.35603"/></g></g><g stroke="null"><g transform="matrix(.88286 0 0 .78047 15.57 14.912)"><title>background</title><path fill="none" d="M209.562 91.524h79.094v94.362h-79.094z"/></g><g transform="matrix(.8293 0 0 .74475 20.906 16.655)"><title>Layer 1</title><path d="M240.263 135.93s.01 3.252.01 4.416c0 9.08 7.36 16.484 16.44 16.484 9.082 0 16.485-7.404 16.485-16.484 0-1.164-.034-4.518-.034-4.518l-32.9.103z" stroke-width="2.9832660000000004" fill="#a88600"/><path stroke="#cda400" d="M271.715 137.165c0 8.275-6.707 14.982-14.982 14.982-8.274 0-14.982-6.707-14.982-14.982 0-8.274 6.71-14.982 14.983-14.982 8.275 0 14.982 6.708 14.982 14.982z" stroke-width="2.9832660000000004" fill="#ffd948"/><path d="M245.4 136.563c-.012.2-.043.39-.043.593 0 6.288 5.068 11.4 11.357 11.4 6.288 0 11.4-5.112 11.4-11.4 0-.204-.033-.392-.044-.593H245.4z" fill="#fc0" stroke-width="1.35603"/></g></g><g stroke="null"><g transform="matrix(.88286 0 0 .78047 15.57 14.912)"><title>background</title><path fill="none" d="M219.378 130.816h79.094v94.362h-79.094z"/></g><g transform="matrix(.8293 0 0 .74475 20.906 16.655)"><title>Layer 1</title><path d="M250.713 177.108s.01 3.25.01 4.415c0 9.08 7.36 16.484 16.442 16.484 9.08 0 16.484-7.404 16.484-16.484 0-1.163-.036-4.518-.036-4.518l-32.9.103z" stroke-width="2.9832660000000004" fill="#a88600"/><path stroke="#cda400" d="M282.166 178.342c0 8.275-6.708 14.982-14.982 14.982-8.275 0-14.982-6.707-14.982-14.982 0-8.274 6.707-14.982 14.982-14.982 8.274 0 14.982 6.708 14.982 14.982z" stroke-width="2.9832660000000004" fill="#ffd948"/><path d="M255.85 177.74c-.01.2-.043.39-.043.593 0 6.29 5.07 11.4 11.357 11.4 6.29 0 11.4-5.11 11.4-11.4 0-.204-.033-.392-.043-.593h-22.67z" fill="#fc0" stroke-width="1.35603"/></g></g><g stroke="null"><g transform="matrix(.88286 0 0 .78047 15.57 14.912)"><title>background</title><path fill="none" d="M169.54 77.002h79.094v94.362H169.54z"/></g><g transform="matrix(.8293 0 0 .74475 20.906 16.655)"><title>Layer 1</title><path d="M197.657 120.713s.01 3.252.01 4.415c0 9.08 7.36 16.484 16.44 16.484 9.08 0 16.485-7.403 16.485-16.484 0-1.163-.034-4.518-.034-4.518l-32.9.103z" stroke-width="2.9832660000000004" fill="#a88600"/><path stroke="#cda400" d="M229.11 121.948c0 8.274-6.71 14.982-14.983 14.982-8.274 0-14.982-6.708-14.982-14.982 0-8.275 6.708-14.983 14.982-14.983s14.982 6.708 14.982 14.983z" stroke-width="2.9832660000000004" fill="#ffd948"/><path d="M202.793 121.345c-.01.2-.042.39-.042.593 0 6.29 5.07 11.4 11.357 11.4 6.29 0 11.4-5.11 11.4-11.4 0-.204-.032-.392-.043-.593h-22.67z" fill="#fc0" stroke-width="1.35603"/></g></g><g stroke="null"><g transform="matrix(.88286 0 0 .78047 15.57 14.912)"><title>background</title><path fill="none" d="M272.992-21.23h79.094v94.363h-79.094z"/></g><g transform="matrix(.8293 0 0 .74475 20.906 16.655)"><title>Layer 1</title><path d="M307.79 17.77s.01 3.252.01 4.415c0 9.08 7.36 16.484 16.44 16.484 9.08 0 16.485-7.404 16.485-16.485 0-1.163-.035-4.518-.035-4.518l-32.9.104z" stroke-width="2.9832660000000004" fill="#a88600"/><path stroke="#cda400" d="M339.242 19.005c0 8.274-6.708 14.982-14.982 14.982-8.275 0-14.982-6.708-14.982-14.982 0-8.275 6.707-14.982 14.982-14.982 8.274 0 14.982 6.707 14.982 14.982z" stroke-width="2.9832660000000004" fill="#ffd948"/><path d="M312.926 18.402c-.01.202-.042.39-.042.593 0 6.29 5.068 11.4 11.356 11.4 6.29 0 11.4-5.11 11.4-11.4 0-.204-.032-.39-.043-.593h-22.67z" fill="#fc0" stroke-width="1.35603"/></g></g><g stroke="null"><g transform="matrix(.88286 0 0 .78047 15.57 14.912)"><title>background</title><path fill="none" d="M289.604 15.5h79.094v94.363h-79.094z"/></g><g transform="matrix(.8293 0 0 .74475 20.906 16.655)"><title>Layer 1</title><path d="M325.475 56.262s.01 3.25.01 4.415c0 9.08 7.36 16.484 16.44 16.484 9.082 0 16.486-7.403 16.486-16.483 0-1.163-.034-4.518-.034-4.518l-32.9.102z" stroke-width="2.9832660000000004" fill="#a88600"/><path stroke="#cda400" d="M356.928 57.496c0 8.275-6.708 14.983-14.983 14.983-8.274 0-14.982-6.71-14.982-14.984 0-8.274 6.708-14.982 14.982-14.982 8.275 0 14.983 6.708 14.983 14.982z" stroke-width="2.9832660000000004" fill="#ffd948"/><path d="M330.61 56.894c-.01.2-.04.39-.04.593 0 6.29 5.067 11.4 11.356 11.4 6.288 0 11.4-5.11 11.4-11.4 0-.204-.033-.392-.043-.593H330.61z" fill="#fc0" stroke-width="1.35603"/></g></g><g stroke="null"><g transform="matrix(.88286 0 0 .78047 15.57 14.912)"><title>background</title><path fill="none" d="M307.727 47.106h79.094v94.362h-79.093z"/></g><g transform="matrix(.8293 0 0 .74475 20.906 16.655)"><title>Layer 1</title><path d="M344.768 89.383s.01 3.25.01 4.415c0 9.08 7.36 16.484 16.442 16.484 9.08 0 16.484-7.404 16.484-16.484 0-1.164-.035-4.518-.035-4.518l-32.902.103z" stroke-width="2.9832660000000004" fill="#a88600"/><path stroke="#cda400" d="M376.22 90.617c0 8.275-6.707 14.982-14.98 14.982-8.276 0-14.983-6.708-14.983-14.983 0-8.274 6.707-14.982 14.982-14.982 8.273 0 14.98 6.708 14.98 14.982z" stroke-width="2.9832660000000004" fill="#ffd948"/><path d="M349.905 90.015c-.01.2-.042.39-.042.593 0 6.288 5.068 11.4 11.356 11.4s11.398-5.112 11.398-11.4c0-.204-.03-.392-.042-.593h-22.67z" fill="#fc0" stroke-width="1.35603"/></g></g><g stroke="null"><g transform="matrix(.88286 0 0 .78047 15.57 14.912)"><title>background</title><path fill="none" d="M373.423-20.375h79.094v94.362h-79.094z"/></g><g transform="matrix(.8293 0 0 .74475 20.906 16.655)"><title>Layer 1</title><path d="M414.707 18.666s.01 3.25.01 4.414c0 9.08 7.36 16.485 16.44 16.485 9.082 0 16.485-7.404 16.485-16.485 0-1.163-.034-4.518-.034-4.518l-32.9.104z" stroke-width="2.9832660000000004" fill="#a88600"/><path stroke="#cda400" d="M446.16 19.9c0 8.274-6.708 14.982-14.983 14.982-8.274 0-14.982-6.708-14.982-14.982 0-8.275 6.708-14.982 14.982-14.982 8.275 0 14.982 6.707 14.982 14.982z" stroke-width="2.9832660000000004" fill="#ffd948"/><path d="M419.843 19.297c-.01.202-.042.39-.042.594 0 6.29 5.07 11.4 11.358 11.4s11.4-5.11 11.4-11.4c0-.203-.033-.39-.044-.593h-22.67z" fill="#fc0" stroke-width="1.35603"/></g></g><g stroke="null"><g transform="matrix(.88286 0 0 .78047 15.57 14.912)"><title>background</title><path fill="none" d="M359.075 15.5h79.094v94.363h-79.095z"/></g><g transform="matrix(.8293 0 0 .74475 20.906 16.655)"><title>Layer 1</title><path d="M399.433 56.262s.01 3.25.01 4.415c0 9.08 7.36 16.484 16.44 16.484 9.082 0 16.486-7.403 16.486-16.483 0-1.163-.036-4.518-.036-4.518l-32.9.102z" stroke-width="2.9832660000000004" fill="#a88600"/><path stroke="#cda400" d="M430.885 57.496c0 8.275-6.707 14.983-14.982 14.983-8.274 0-14.982-6.71-14.982-14.984 0-8.274 6.71-14.982 14.983-14.982 8.275 0 14.982 6.708 14.982 14.982z" stroke-width="2.9832660000000004" fill="#ffd948"/><path d="M404.57 56.894c-.01.2-.043.39-.043.593 0 6.29 5.068 11.4 11.357 11.4 6.288 0 11.4-5.11 11.4-11.4 0-.204-.033-.392-.043-.593h-22.67z" fill="#fc0" stroke-width="1.35603"/></g></g><g stroke="null"><g transform="matrix(.88286 0 0 .78047 15.57 14.912)"><title>background</title><path fill="none" d="M340.952 47.106h79.094v94.362h-79.094z"/></g><g transform="matrix(.8293 0 0 .74475 20.906 16.655)"><title>Layer 1</title><path d="M380.14 89.383s.01 3.25.01 4.415c0 9.08 7.36 16.484 16.44 16.484 9.08 0 16.485-7.404 16.485-16.484 0-1.164-.034-4.518-.034-4.518l-32.9.103z" stroke-width="2.9832660000000004" fill="#a88600"/><path stroke="#cda400" d="M411.592 90.617c0 8.275-6.708 14.982-14.982 14.982s-14.982-6.708-14.982-14.983c0-8.274 6.708-14.982 14.982-14.982s14.982 6.708 14.982 14.982z" stroke-width="2.9832660000000004" fill="#ffd948"/><path d="M385.276 90.015c-.01.2-.042.39-.042.593 0 6.288 5.068 11.4 11.356 11.4 6.29 0 11.4-5.112 11.4-11.4 0-.204-.032-.392-.043-.593h-22.67z" fill="#fc0" stroke-width="1.35603"/></g></g><g stroke="null"><g transform="matrix(.88286 0 0 .78047 15.57 14.912)"><title>background</title><path fill="none" d="M324.34 86.398h79.094v94.362H324.34z"/></g><g transform="matrix(.8293 0 0 .74475 20.906 16.655)"><title>Layer 1</title><path d="M362.454 130.56s.01 3.25.01 4.415c0 9.08 7.36 16.484 16.44 16.484 9.082 0 16.486-7.405 16.486-16.485 0-1.163-.035-4.518-.035-4.518l-32.9.103z" stroke-width="2.9832660000000004" fill="#a88600"/><path stroke="#cda400" d="M393.907 131.794c0 8.275-6.708 14.982-14.983 14.982-8.274 0-14.982-6.707-14.982-14.982 0-8.274 6.708-14.982 14.982-14.982 8.275 0 14.983 6.708 14.983 14.982z" stroke-width="2.9832660000000004" fill="#ffd948"/><path d="M367.59 131.192c-.01.2-.042.39-.042.593 0 6.29 5.068 11.4 11.357 11.4 6.288 0 11.4-5.11 11.4-11.4 0-.204-.033-.392-.043-.593H367.59z" fill="#fc0" stroke-width="1.35603"/></g></g><g stroke="null"><g transform="matrix(.88286 0 0 .78047 15.57 14.912)"><title>background</title><path fill="none" d="M324.34 129.108h79.094v94.362H324.34z"/></g><g transform="matrix(.8293 0 0 .74475 20.906 16.655)"><title>Layer 1</title><path d="M362.454 175.318s.01 3.25.01 4.414c0 9.08 7.36 16.485 16.44 16.485 9.082 0 16.486-7.404 16.486-16.485 0-1.163-.035-4.517-.035-4.517l-32.9.103z" stroke-width="2.9832660000000004" fill="#a88600"/><path stroke="#cda400" d="M393.907 176.552c0 8.274-6.708 14.982-14.983 14.982-8.274 0-14.982-6.708-14.982-14.982s6.708-14.982 14.982-14.982c8.275 0 14.983 6.708 14.983 14.982z" stroke-width="2.9832660000000004" fill="#ffd948"/><path d="M367.59 175.95c-.01.2-.042.39-.042.593 0 6.288 5.068 11.4 11.357 11.4 6.288 0 11.4-5.112 11.4-11.4 0-.204-.033-.392-.043-.593H367.59z" fill="#fc0" stroke-width="1.35603"/></g></g><g stroke="null"><g transform="matrix(.88286 0 0 .78047 15.57 14.912)"><title>background</title><path fill="none" d="M435.342-20.375h79.094v94.362h-79.094z"/></g><g transform="matrix(.8293 0 0 .74475 20.906 16.655)"><title>Layer 1</title><path d="M480.626 18.666s.01 3.25.01 4.414c0 9.08 7.36 16.485 16.44 16.485 9.082 0 16.485-7.404 16.485-16.485 0-1.163-.033-4.518-.033-4.518l-32.9.104z" stroke-width="2.9832660000000004" fill="#a88600"/><path stroke="#cda400" d="M512.078 19.9c0 8.274-6.707 14.982-14.982 14.982-8.274 0-14.982-6.708-14.982-14.982 0-8.275 6.708-14.982 14.982-14.982 8.275 0 14.982 6.707 14.982 14.982z" stroke-width="2.9832660000000004" fill="#ffd948"/><path d="M485.762 19.297c-.01.202-.042.39-.042.594 0 6.29 5.068 11.4 11.357 11.4 6.288 0 11.4-5.11 11.4-11.4 0-.203-.033-.39-.043-.593h-22.672z" fill="#fc0" stroke-width="1.35603"/></g></g><g stroke="null"><g transform="matrix(.88286 0 0 .78047 15.57 14.912)"><title>background</title><path fill="none" d="M435.342 16.782h79.094v94.362h-79.094z"/></g><g transform="matrix(.8293 0 0 .74475 20.906 16.655)"><title>Layer 1</title><path d="M480.626 57.605s.01 3.25.01 4.415c0 9.08 7.36 16.484 16.44 16.484 9.082 0 16.485-7.404 16.485-16.484 0-1.164-.033-4.518-.033-4.518l-32.9.103z" stroke-width="2.9832660000000004" fill="#a88600"/><path stroke="#cda400" d="M512.078 58.84c0 8.274-6.707 14.98-14.982 14.98-8.274 0-14.982-6.706-14.982-14.98 0-8.275 6.708-14.983 14.982-14.983 8.275 0 14.982 6.708 14.982 14.982z" stroke-width="2.9832660000000004" fill="#ffd948"/><path d="M485.762 58.237c-.01.2-.042.39-.042.593 0 6.288 5.068 11.4 11.357 11.4 6.288 0 11.4-5.112 11.4-11.4 0-.204-.033-.392-.043-.593h-22.672z" fill="#fc0" stroke-width="1.35603"/></g></g><g stroke="null"><g transform="matrix(.88286 0 0 .78047 15.57 14.912)"><title>background</title><path fill="none" d="M435.342 55.648h79.094v94.362h-79.094z"/></g><g transform="matrix(.8293 0 0 .74475 20.906 16.655)"><title>Layer 1</title><path d="M480.626 98.335s.01 3.25.01 4.414c0 9.08 7.36 16.483 16.44 16.483 9.082 0 16.485-7.403 16.485-16.484 0-1.164-.033-4.52-.033-4.52l-32.9.105z" stroke-width="2.9832660000000004" fill="#a88600"/><path stroke="#cda400" d="M512.078 99.57c0 8.273-6.707 14.98-14.982 14.98-8.274 0-14.982-6.707-14.982-14.98 0-8.276 6.708-14.983 14.982-14.983 8.275 0 14.982 6.707 14.982 14.982z" stroke-width="2.9832660000000004" fill="#ffd948"/><path d="M485.762 98.966c-.01.202-.042.39-.042.593 0 6.288 5.068 11.4 11.357 11.4 6.288 0 11.4-5.112 11.4-11.4 0-.205-.033-.392-.043-.594h-22.672z" fill="#fc0" stroke-width="1.35603"/></g></g><g stroke="null"><g transform="matrix(.88286 0 0 .78047 15.57 14.912)"><title>background</title><path fill="none" d="M435.342 94.94h79.094v94.362h-79.094z"/></g><g transform="matrix(.8293 0 0 .74475 20.906 16.655)"><title>Layer 1</title><path d="M480.626 139.512s.01 3.25.01 4.414c0 9.08 7.36 16.484 16.44 16.484 9.082 0 16.485-7.403 16.485-16.484 0-1.163-.033-4.518-.033-4.518l-32.9.104z" stroke-width="2.9832660000000004" fill="#a88600"/><path stroke="#cda400" d="M512.078 140.746c0 8.274-6.707 14.982-14.982 14.982-8.274 0-14.982-6.708-14.982-14.982 0-8.275 6.708-14.982 14.982-14.982 8.275 0 14.982 6.707 14.982 14.982z" stroke-width="2.9832660000000004" fill="#ffd948"/><path d="M485.762 140.143c-.01.202-.042.39-.042.594 0 6.288 5.068 11.4 11.357 11.4 6.288 0 11.4-5.112 11.4-11.4 0-.205-.033-.392-.043-.594h-22.672z" fill="#fc0" stroke-width="1.35603"/></g></g><g stroke="null"><g transform="matrix(.88286 0 0 .78047 15.57 14.912)"><title>background</title><path fill="none" d="M435.342 132.525h79.094v94.362h-79.094z"/></g><g transform="matrix(.8293 0 0 .74475 20.906 16.655)"><title>Layer 1</title><path d="M480.626 178.9s.01 3.25.01 4.413c0 9.08 7.36 16.484 16.44 16.484 9.082 0 16.485-7.403 16.485-16.484 0-1.163-.033-4.518-.033-4.518l-32.9.104z" stroke-width="2.9832660000000004" fill="#a88600"/><path stroke="#cda400" d="M512.078 180.133c0 8.274-6.707 14.982-14.982 14.982-8.274 0-14.982-6.708-14.982-14.982 0-8.275 6.708-14.982 14.982-14.982 8.275 0 14.982 6.708 14.982 14.983z" stroke-width="2.9832660000000004" fill="#ffd948"/><path d="M485.762 179.53c-.01.202-.042.39-.042.593 0 6.29 5.068 11.4 11.357 11.4 6.288 0 11.4-5.11 11.4-11.4 0-.204-.033-.39-.043-.593h-22.672z" fill="#fc0" stroke-width="1.35603"/></g></g><g stroke="null"><g transform="matrix(.88286 0 0 .78047 15.57 14.912)"><title>background</title><path fill="none" d="M549.365-21.23h79.094v94.363h-79.095z"/></g><g transform="matrix(.8293 0 0 .74475 20.906 16.655)"><title>Layer 1</title><path d="M602.013 17.77s.01 3.252.01 4.415c0 9.08 7.36 16.484 16.442 16.484 9.08 0 16.484-7.404 16.484-16.485 0-1.163-.036-4.518-.036-4.518l-32.9.104z" stroke-width="2.9832660000000004" fill="#a88600"/><path stroke="#cda400" d="M633.466 19.005c0 8.274-6.708 14.982-14.982 14.982-8.275 0-14.982-6.708-14.982-14.982 0-8.275 6.707-14.982 14.982-14.982 8.274 0 14.982 6.707 14.982 14.982z" stroke-width="2.9832660000000004" fill="#ffd948"/><path d="M607.15 18.402c-.01.202-.043.39-.043.593 0 6.29 5.07 11.4 11.357 11.4 6.29 0 11.4-5.11 11.4-11.4 0-.204-.032-.39-.043-.593h-22.67z" fill="#fc0" stroke-width="1.35603"/></g></g><g stroke="null"><g transform="matrix(.88286 0 0 .78047 15.57 14.912)"><title>background</title><path fill="none" d="M549.365 17.636h79.094v94.362h-79.095z"/></g><g transform="matrix(.8293 0 0 .74475 20.906 16.655)"><title>Layer 1</title><path d="M602.013 58.5s.01 3.25.01 4.415c0 9.08 7.36 16.484 16.442 16.484 9.08 0 16.484-7.405 16.484-16.485 0-1.163-.036-4.518-.036-4.518l-32.9.103z" stroke-width="2.9832660000000004" fill="#a88600"/><path stroke="#cda400" d="M633.466 59.734c0 8.275-6.708 14.982-14.982 14.982-8.275 0-14.982-6.707-14.982-14.982 0-8.274 6.707-14.982 14.982-14.982 8.274 0 14.982 6.708 14.982 14.982z" stroke-width="2.9832660000000004" fill="#ffd948"/><path d="M607.15 59.132c-.01.2-.043.39-.043.593 0 6.29 5.07 11.4 11.357 11.4 6.29 0 11.4-5.11 11.4-11.4 0-.204-.032-.392-.043-.593h-22.67z" fill="#fc0" stroke-width="1.35603"/></g></g><g stroke="null"><g transform="matrix(.88286 0 0 .78047 15.57 14.912)"><title>background</title><path fill="none" d="M549.365 56.502h79.094v94.362h-79.095z"/></g><g transform="matrix(.8293 0 0 .74475 20.906 16.655)"><title>Layer 1</title><path d="M602.013 99.23s.01 3.25.01 4.414c0 9.08 7.36 16.485 16.442 16.485 9.08 0 16.484-7.405 16.484-16.486 0-1.163-.036-4.518-.036-4.518l-32.9.104z" stroke-width="2.9832660000000004" fill="#a88600"/><path stroke="#cda400" d="M633.466 100.464c0 8.274-6.708 14.982-14.982 14.982-8.275 0-14.982-6.708-14.982-14.982 0-8.275 6.707-14.982 14.982-14.982 8.274 0 14.982 6.707 14.982 14.982z" stroke-width="2.9832660000000004" fill="#ffd948"/><path d="M607.15 99.86c-.01.203-.043.39-.043.595 0 6.288 5.07 11.4 11.357 11.4 6.29 0 11.4-5.112 11.4-11.4 0-.204-.032-.392-.043-.594h-22.67z" fill="#fc0" stroke-width="1.35603"/></g></g><g stroke="null"><g transform="matrix(.88286 0 0 .78047 15.57 14.912)"><title>background</title><path fill="none" d="M549.365 95.795h79.094v94.362h-79.095z"/></g><g transform="matrix(.8293 0 0 .74475 20.906 16.655)"><title>Layer 1</title><path d="M602.013 140.407s.01 3.25.01 4.414c0 9.082 7.36 16.486 16.442 16.486 9.08 0 16.484-7.404 16.484-16.485 0-1.162-.036-4.516-.036-4.516l-32.9.103z" stroke-width="2.9832660000000004" fill="#a88600"/><path stroke="#cda400" d="M633.466 141.64c0 8.275-6.708 14.983-14.982 14.983-8.275 0-14.982-6.708-14.982-14.982 0-8.273 6.707-14.98 14.982-14.98 8.274 0 14.982 6.707 14.982 14.98z" stroke-width="2.9832660000000004" fill="#ffd948"/><path d="M607.15 141.038c-.01.202-.043.39-.043.594 0 6.288 5.07 11.4 11.357 11.4 6.29 0 11.4-5.112 11.4-11.4 0-.204-.032-.392-.043-.594h-22.67z" fill="#fc0" stroke-width="1.35603"/></g></g><g stroke="null"><g transform="matrix(.88286 0 0 .78047 15.57 14.912)"><title>background</title><path fill="none" d="M549.365 133.38h79.094v94.36h-79.095z"/></g><g transform="matrix(.8293 0 0 .74475 20.906 16.655)"><title>Layer 1</title><path d="M602.013 179.794s.01 3.25.01 4.414c0 9.08 7.36 16.484 16.442 16.484 9.08 0 16.484-7.403 16.484-16.484 0-1.163-.036-4.518-.036-4.518l-32.9.104z" stroke-width="2.9832660000000004" fill="#a88600"/><path stroke="#cda400" d="M633.466 181.028c0 8.274-6.708 14.982-14.982 14.982-8.275 0-14.982-6.708-14.982-14.982 0-8.275 6.707-14.982 14.982-14.982 8.274 0 14.982 6.707 14.982 14.982z" stroke-width="2.9832660000000004" fill="#ffd948"/><path d="M607.15 180.425c-.01.202-.043.39-.043.594 0 6.287 5.07 11.398 11.357 11.398 6.29 0 11.4-5.11 11.4-11.4 0-.204-.032-.39-.043-.593h-22.67z" fill="#fc0" stroke-width="1.35603"/></g></g><g stroke="null"><g transform="matrix(.88286 0 0 .78047 15.57 14.912)"><title>background</title><path fill="none" d="M467.057 6.105h79.094v94.362h-79.093z"/></g><g transform="matrix(.8293 0 0 .74475 20.906 16.655)"><title>Layer 1</title><path d="M514.39 46.416s.01 3.25.01 4.414c0 9.08 7.36 16.484 16.44 16.484 9.08 0 16.485-7.403 16.485-16.484 0-1.163-.035-4.518-.035-4.518l-32.9.104z" stroke-width="2.9832660000000004" fill="#a88600"/><path stroke="#cda400" d="M545.842 47.65c0 8.274-6.708 14.982-14.982 14.982-8.275 0-14.982-6.708-14.982-14.982 0-8.275 6.707-14.982 14.982-14.982 8.274 0 14.982 6.707 14.982 14.982z" stroke-width="2.9832660000000004" fill="#ffd948"/><path d="M519.526 47.047c-.01.202-.043.39-.043.593 0 6.29 5.07 11.4 11.357 11.4 6.29 0 11.4-5.11 11.4-11.4 0-.204-.033-.39-.043-.593h-22.67z" fill="#fc0" stroke-width="1.35603"/></g></g><g stroke="null"><g transform="matrix(.88286 0 0 .78047 15.57 14.912)"><title>background</title><path fill="none" d="M489.71 35.147h79.095v94.362H489.71z"/></g><g transform="matrix(.8293 0 0 .74475 20.906 16.655)"><title>Layer 1</title><path d="M538.506 76.85s.01 3.252.01 4.415c0 9.08 7.36 16.485 16.44 16.485 9.082 0 16.486-7.404 16.486-16.485 0-1.163-.035-4.518-.035-4.518l-32.9.104z" stroke-width="2.9832660000000004" fill="#a88600"/><path stroke="#cda400" d="M569.958 78.085c0 8.274-6.707 14.982-14.982 14.982-8.274 0-14.982-6.708-14.982-14.982s6.708-14.982 14.982-14.982c8.275 0 14.982 6.708 14.982 14.982z" stroke-width="2.9832660000000004" fill="#ffd948"/><path d="M543.642 77.482c-.01.202-.042.39-.042.594 0 6.288 5.068 11.4 11.357 11.4 6.288 0 11.4-5.112 11.4-11.4 0-.204-.033-.392-.043-.594h-22.672z" fill="#fc0" stroke-width="1.35603"/></g></g><g stroke="null"><g transform="matrix(.88286 0 0 .78047 15.57 14.912)"><title>background</title><path fill="none" d="M513.875 7.813h79.094v94.362h-79.095z"/></g><g transform="matrix(.8293 0 0 .74475 20.906 16.655)"><title>Layer 1</title><path d="M564.23 48.206s.01 3.25.01 4.414c0 9.08 7.36 16.485 16.442 16.485 9.08 0 16.484-7.404 16.484-16.485 0-1.163-.035-4.517-.035-4.517l-32.9.103z" stroke-width="2.9832660000000004" fill="#a88600"/><path stroke="#cda400" d="M595.683 49.44c0 8.274-6.708 14.982-14.982 14.982s-14.98-6.708-14.98-14.982 6.706-14.982 14.98-14.982c8.275 0 14.983 6.708 14.983 14.982z" stroke-width="2.9832660000000004" fill="#ffd948"/><path d="M569.367 48.837c-.01.202-.042.39-.042.594 0 6.29 5.068 11.4 11.356 11.4 6.29 0 11.4-5.11 11.4-11.4 0-.203-.03-.39-.042-.593h-22.67z" fill="#fc0" stroke-width="1.35603"/></g></g><g stroke="null"><g transform="matrix(.88286 0 0 .78047 15.57 14.912)"><title>background</title><path fill="none" d="M618.836-21.23h79.094v94.363h-79.094z"/></g><g transform="matrix(.8293 0 0 .74475 20.906 16.655)"><title>Layer 1</title><path d="M675.97 17.77s.01 3.252.01 4.415c0 9.08 7.362 16.484 16.443 16.484 9.08 0 16.484-7.404 16.484-16.485 0-1.163-.035-4.518-.035-4.518l-32.9.104z" stroke-width="2.9832660000000004" fill="#a88600"/><path stroke="#cda400" d="M707.424 19.005c0 8.274-6.708 14.982-14.982 14.982-8.275 0-14.983-6.708-14.983-14.982 0-8.275 6.707-14.982 14.982-14.982 8.274 0 14.982 6.707 14.982 14.982z" stroke-width="2.9832660000000004" fill="#ffd948"/><path d="M681.108 18.402c-.01.202-.043.39-.043.593 0 6.29 5.068 11.4 11.357 11.4 6.29 0 11.4-5.11 11.4-11.4 0-.204-.033-.39-.043-.593h-22.672z" fill="#fc0" stroke-width="1.35603"/></g></g><g stroke="null"><g transform="matrix(.88286 0 0 .78047 15.57 14.912)"><title>background</title><path fill="none" d="M618.836 17.636h79.094v94.362h-79.094z"/></g><g transform="matrix(.8293 0 0 .74475 20.906 16.655)"><title>Layer 1</title><path d="M675.97 58.5s.01 3.25.01 4.415c0 9.08 7.362 16.484 16.443 16.484 9.08 0 16.484-7.405 16.484-16.485 0-1.163-.035-4.518-.035-4.518l-32.9.103z" stroke-width="2.9832660000000004" fill="#a88600"/><path stroke="#cda400" d="M707.424 59.734c0 8.275-6.708 14.982-14.982 14.982-8.275 0-14.983-6.707-14.983-14.982 0-8.274 6.707-14.982 14.982-14.982 8.274 0 14.982 6.708 14.982 14.982z" stroke-width="2.9832660000000004" fill="#ffd948"/><path d="M681.108 59.132c-.01.2-.043.39-.043.593 0 6.29 5.068 11.4 11.357 11.4 6.29 0 11.4-5.11 11.4-11.4 0-.204-.033-.392-.043-.593h-22.672z" fill="#fc0" stroke-width="1.35603"/></g></g><g stroke="null"><g transform="matrix(.88286 0 0 .78047 15.57 14.912)"><title>background</title><path fill="none" d="M618.836 56.502h79.094v94.362h-79.094z"/></g><g transform="matrix(.8293 0 0 .74475 20.906 16.655)"><title>Layer 1</title><path d="M675.97 99.23s.01 3.25.01 4.414c0 9.08 7.362 16.485 16.443 16.485 9.08 0 16.484-7.405 16.484-16.486 0-1.163-.035-4.518-.035-4.518l-32.9.104z" stroke-width="2.9832660000000004" fill="#a88600"/><path stroke="#cda400" d="M707.424 100.464c0 8.274-6.708 14.982-14.982 14.982-8.275 0-14.983-6.708-14.983-14.982 0-8.275 6.707-14.982 14.982-14.982 8.274 0 14.982 6.707 14.982 14.982z" stroke-width="2.9832660000000004" fill="#ffd948"/><path d="M681.108 99.86c-.01.203-.043.39-.043.595 0 6.288 5.068 11.4 11.357 11.4 6.29 0 11.4-5.112 11.4-11.4 0-.204-.033-.392-.043-.594h-22.672z" fill="#fc0" stroke-width="1.35603"/></g></g><g stroke="null"><g transform="matrix(.88286 0 0 .78047 15.57 14.912)"><title>background</title><path fill="none" d="M618.836 95.795h79.094v94.362h-79.094z"/></g><g transform="matrix(.8293 0 0 .74475 20.906 16.655)"><title>Layer 1</title><path d="M675.97 140.407s.01 3.25.01 4.414c0 9.082 7.362 16.486 16.443 16.486 9.08 0 16.484-7.404 16.484-16.485 0-1.162-.035-4.516-.035-4.516l-32.9.103z" stroke-width="2.9832660000000004" fill="#a88600"/><path stroke="#cda400" d="M707.424 141.64c0 8.275-6.708 14.983-14.982 14.983-8.275 0-14.983-6.708-14.983-14.982 0-8.273 6.707-14.98 14.982-14.98 8.274 0 14.982 6.707 14.982 14.98z" stroke-width="2.9832660000000004" fill="#ffd948"/><path d="M681.108 141.038c-.01.202-.043.39-.043.594 0 6.288 5.068 11.4 11.357 11.4 6.29 0 11.4-5.112 11.4-11.4 0-.204-.033-.392-.043-.594h-22.672z" fill="#fc0" stroke-width="1.35603"/></g></g><g stroke="null"><g transform="matrix(.88286 0 0 .78047 15.57 14.912)"><title>background</title><path fill="none" d="M618.836 133.38h79.094v94.36h-79.094z"/></g><g transform="matrix(.8293 0 0 .74475 20.906 16.655)"><title>Layer 1</title><path d="M675.97 179.794s.01 3.25.01 4.414c0 9.08 7.362 16.484 16.443 16.484 9.08 0 16.484-7.403 16.484-16.484 0-1.163-.035-4.518-.035-4.518l-32.9.104z" stroke-width="2.9832660000000004" fill="#a88600"/><path stroke="#cda400" d="M707.424 181.028c0 8.274-6.708 14.982-14.982 14.982-8.275 0-14.983-6.708-14.983-14.982 0-8.275 6.707-14.982 14.982-14.982 8.274 0 14.982 6.707 14.982 14.982z" stroke-width="2.9832660000000004" fill="#ffd948"/><path d="M681.108 180.425c-.01.202-.043.39-.043.594 0 6.287 5.068 11.398 11.357 11.398 6.29 0 11.4-5.11 11.4-11.4 0-.204-.033-.39-.043-.593h-22.672z" fill="#fc0" stroke-width="1.35603"/></g></g><g stroke="null"><g transform="matrix(.88286 0 0 .78047 15.57 14.912)"><title>background</title><path fill="none" d="M657.347-21.23h79.094v94.363h-79.093z"/></g><g transform="matrix(.8293 0 0 .74475 20.906 16.655)"><title>Layer 1</title><path d="M716.97 17.77s.01 3.252.01 4.415c0 9.08 7.36 16.484 16.44 16.484 9.08 0 16.485-7.404 16.485-16.485 0-1.163-.034-4.518-.034-4.518l-32.9.104z" stroke-width="2.9832660000000004" fill="#a88600"/><path stroke="#cda400" d="M748.422 19.005c0 8.274-6.708 14.982-14.982 14.982s-14.982-6.708-14.982-14.982c0-8.275 6.708-14.982 14.982-14.982s14.982 6.707 14.982 14.982z" stroke-width="2.9832660000000004" fill="#ffd948"/><path d="M722.106 18.402c-.01.202-.042.39-.042.593 0 6.29 5.068 11.4 11.356 11.4 6.29 0 11.4-5.11 11.4-11.4 0-.204-.032-.39-.043-.593h-22.67z" fill="#fc0" stroke-width="1.35603"/></g></g><g stroke="null"><g transform="matrix(.88286 0 0 .78047 15.57 14.912)"><title>background</title><path fill="none" d="M692.838-21.23h79.094v94.363h-79.094z"/></g><g transform="matrix(.8293 0 0 .74475 20.906 16.655)"><title>Layer 1</title><path d="M754.752 17.77s.01 3.252.01 4.415c0 9.08 7.36 16.484 16.442 16.484 9.08 0 16.484-7.404 16.484-16.485 0-1.163-.035-4.518-.035-4.518l-32.9.104z" stroke-width="2.9832660000000004" fill="#a88600"/><path stroke="#cda400" d="M786.205 19.005c0 8.274-6.708 14.982-14.982 14.982-8.275 0-14.982-6.708-14.982-14.982 0-8.275 6.708-14.982 14.983-14.982 8.274 0 14.982 6.707 14.982 14.982z" stroke-width="2.9832660000000004" fill="#ffd948"/><path d="M759.89 18.402c-.012.202-.043.39-.043.593 0 6.29 5.068 11.4 11.356 11.4 6.29 0 11.4-5.11 11.4-11.4 0-.204-.032-.39-.043-.593h-22.67z" fill="#fc0" stroke-width="1.35603"/></g></g><g stroke="null"><g transform="matrix(.88286 0 0 .78047 15.57 14.912)"><title>background</title><path fill="none" d="M656.592 56.502h79.094v94.362h-79.094z"/></g><g transform="matrix(.8293 0 0 .74475 20.906 16.655)"><title>Layer 1</title><path d="M716.166 99.23s.01 3.25.01 4.414c0 9.08 7.36 16.485 16.44 16.485 9.082 0 16.485-7.405 16.485-16.486 0-1.163-.033-4.518-.033-4.518l-32.9.104z" stroke-width="2.9832660000000004" fill="#a88600"/><path stroke="#cda400" d="M747.618 100.464c0 8.274-6.707 14.982-14.982 14.982-8.274 0-14.982-6.708-14.982-14.982 0-8.275 6.708-14.982 14.982-14.982 8.275 0 14.982 6.707 14.982 14.982z" stroke-width="2.9832660000000004" fill="#ffd948"/><path d="M721.302 99.86c-.01.203-.042.39-.042.595 0 6.288 5.068 11.4 11.357 11.4 6.288 0 11.4-5.112 11.4-11.4 0-.204-.033-.392-.044-.594h-22.67z" fill="#fc0" stroke-width="1.35603"/></g></g><g stroke="null"><g transform="matrix(.88286 0 0 .78047 15.57 14.912)"><title>background</title><path fill="none" d="M692.083 55.648h79.094v94.362h-79.094z"/></g><g transform="matrix(.8293 0 0 .74475 20.906 16.655)"><title>Layer 1</title><path d="M753.95 98.335s.008 3.25.008 4.414c0 9.08 7.36 16.483 16.442 16.483 9.08 0 16.484-7.403 16.484-16.484 0-1.164-.034-4.52-.034-4.52l-32.9.105z" stroke-width="2.9832660000000004" fill="#a88600"/><path stroke="#cda400" d="M785.4 99.57c0 8.273-6.707 14.98-14.98 14.98-8.275 0-14.983-6.707-14.983-14.98 0-8.276 6.708-14.983 14.982-14.983 8.273 0 14.98 6.707 14.98 14.982z" stroke-width="2.9832660000000004" fill="#ffd948"/><path d="M759.085 98.966c-.01.202-.042.39-.042.593 0 6.288 5.068 11.4 11.356 11.4s11.398-5.112 11.398-11.4c0-.205-.03-.392-.042-.594h-22.67z" fill="#fc0" stroke-width="1.35603"/></g></g><g stroke="null"><g transform="matrix(.88286 0 0 .78047 15.57 14.912)"><title>background</title><path fill="none" d="M657.347 133.38h79.094v94.36h-79.093z"/></g><g transform="matrix(.8293 0 0 .74475 20.906 16.655)"><title>Layer 1</title><path d="M716.97 179.794s.01 3.25.01 4.414c0 9.08 7.36 16.484 16.44 16.484 9.08 0 16.485-7.403 16.485-16.484 0-1.163-.034-4.518-.034-4.518l-32.9.104z" stroke-width="2.9832660000000004" fill="#a88600"/><path stroke="#cda400" d="M748.422 181.028c0 8.274-6.708 14.982-14.982 14.982s-14.982-6.708-14.982-14.982c0-8.275 6.708-14.982 14.982-14.982s14.982 6.707 14.982 14.982z" stroke-width="2.9832660000000004" fill="#ffd948"/><path d="M722.106 180.425c-.01.202-.042.39-.042.594 0 6.287 5.068 11.398 11.356 11.398 6.29 0 11.4-5.11 11.4-11.4 0-.204-.032-.39-.043-.593h-22.67z" fill="#fc0" stroke-width="1.35603"/></g></g><g stroke="null"><g transform="matrix(.88286 0 0 .78047 15.57 14.912)"><title>background</title><path fill="none" d="M692.083 134.233h79.094v94.362h-79.094z"/></g><g transform="matrix(.8293 0 0 .74475 20.906 16.655)"><title>Layer 1</title><path d="M753.95 180.69s.008 3.25.008 4.413c0 9.08 7.36 16.485 16.442 16.485 9.08 0 16.484-7.404 16.484-16.485 0-1.163-.034-4.518-.034-4.518l-32.9.104z" stroke-width="2.9832660000000004" fill="#a88600"/><path stroke="#cda400" d="M785.4 181.923c0 8.274-6.707 14.982-14.98 14.982-8.275 0-14.983-6.708-14.983-14.982s6.708-14.982 14.982-14.982c8.273 0 14.98 6.71 14.98 14.983z" stroke-width="2.9832660000000004" fill="#ffd948"/><path d="M759.085 181.32c-.01.202-.042.39-.042.594 0 6.288 5.068 11.4 11.356 11.4s11.398-5.112 11.398-11.4c0-.204-.03-.392-.042-.594h-22.67z" fill="#fc0" stroke-width="1.35603"/></g></g><g stroke="null"><g transform="matrix(.88286 0 0 .78047 15.57 14.912)"><title>background</title><path fill="none" d="M758.533-21.23h79.094v94.363h-79.094z"/></g><g transform="matrix(.8293 0 0 .74475 20.906 16.655)"><title>Layer 1</title><path d="M824.69 17.77s.01 3.252.01 4.415c0 9.08 7.362 16.484 16.442 16.484s16.484-7.404 16.484-16.485c0-1.163-.034-4.518-.034-4.518l-32.9.104z" stroke-width="2.9832660000000004" fill="#a88600"/><path stroke="#cda400" d="M856.143 19.005c0 8.274-6.707 14.982-14.982 14.982-8.273 0-14.98-6.708-14.98-14.982 0-8.275 6.707-14.982 14.98-14.982 8.276 0 14.983 6.707 14.983 14.982z" stroke-width="2.9832660000000004" fill="#ffd948"/><path d="M829.827 18.402c-.01.202-.042.39-.042.593 0 6.29 5.068 11.4 11.357 11.4 6.288 0 11.4-5.11 11.4-11.4 0-.204-.033-.39-.043-.593h-22.673z" fill="#fc0" stroke-width="1.35603"/></g></g><g stroke="null"><g transform="matrix(.88286 0 0 .78047 15.57 14.912)"><title>background</title><path fill="none" d="M758.533 15.928h79.094v94.362h-79.094z"/></g><g transform="matrix(.8293 0 0 .74475 20.906 16.655)"><title>Layer 1</title><path d="M824.69 56.71s.01 3.25.01 4.414c0 9.08 7.362 16.485 16.442 16.485s16.484-7.405 16.484-16.486c0-1.163-.034-4.518-.034-4.518l-32.9.104z" stroke-width="2.9832660000000004" fill="#a88600"/><path stroke="#cda400" d="M856.143 57.944c0 8.274-6.707 14.982-14.982 14.982-8.273 0-14.98-6.708-14.98-14.982s6.707-14.982 14.98-14.982c8.276 0 14.983 6.708 14.983 14.982z" stroke-width="2.9832660000000004" fill="#ffd948"/><path d="M829.827 57.34c-.01.203-.042.39-.042.595 0 6.288 5.068 11.4 11.357 11.4 6.288 0 11.4-5.112 11.4-11.4 0-.204-.033-.392-.043-.594h-22.673z" fill="#fc0" stroke-width="1.35603"/></g></g><g stroke="null"><g transform="matrix(.88286 0 0 .78047 15.57 14.912)"><title>background</title><path fill="none" d="M758.533 54.794h79.094v94.362h-79.094z"/></g><g transform="matrix(.8293 0 0 .74475 20.906 16.655)"><title>Layer 1</title><path d="M824.69 97.44s.01 3.25.01 4.414c0 9.08 7.362 16.484 16.442 16.484s16.484-7.403 16.484-16.484c0-1.163-.034-4.518-.034-4.518l-32.9.103z" stroke-width="2.9832660000000004" fill="#a88600"/><path stroke="#cda400" d="M856.143 98.674c0 8.274-6.707 14.982-14.982 14.982-8.273 0-14.98-6.708-14.98-14.982 0-8.275 6.707-14.983 14.98-14.983 8.276 0 14.983 6.71 14.983 14.984z" stroke-width="2.9832660000000004" fill="#ffd948"/><path d="M829.827 98.07c-.01.202-.042.39-.042.594 0 6.29 5.068 11.4 11.357 11.4 6.288 0 11.4-5.11 11.4-11.4 0-.204-.033-.392-.043-.593h-22.673z" fill="#fc0" stroke-width="1.35603"/></g></g><g stroke="null"><g transform="matrix(.88286 0 0 .78047 15.57 14.912)"><title>background</title><path fill="none" d="M758.533 94.086h79.094v94.362h-79.094z"/></g><g transform="matrix(.8293 0 0 .74475 20.906 16.655)"><title>Layer 1</title><path d="M824.69 138.617s.01 3.25.01 4.414c0 9.082 7.362 16.485 16.442 16.485s16.484-7.403 16.484-16.484c0-1.162-.034-4.517-.034-4.517l-32.9.104z" stroke-width="2.9832660000000004" fill="#a88600"/><path stroke="#cda400" d="M856.143 139.85c0 8.275-6.707 14.983-14.982 14.983-8.273 0-14.98-6.708-14.98-14.982s6.707-14.98 14.98-14.98c8.276 0 14.983 6.706 14.983 14.98z" stroke-width="2.9832660000000004" fill="#ffd948"/><path d="M829.827 139.248c-.01.202-.042.39-.042.593 0 6.29 5.068 11.4 11.357 11.4 6.288 0 11.4-5.11 11.4-11.4 0-.203-.033-.39-.043-.592h-22.673z" fill="#fc0" stroke-width="1.35603"/></g></g><g stroke="null"><g transform="matrix(.88286 0 0 .78047 15.57 14.912)"><title>background</title><path fill="none" d="M758.533 131.67h79.094v94.362h-79.094z"/></g><g transform="matrix(.8293 0 0 .74475 20.906 16.655)"><title>Layer 1</title><path d="M824.69 178.003s.01 3.252.01 4.415c0 9.08 7.362 16.484 16.442 16.484s16.484-7.403 16.484-16.484c0-1.163-.034-4.518-.034-4.518l-32.9.103z" stroke-width="2.9832660000000004" fill="#a88600"/><path stroke="#cda400" d="M856.143 179.238c0 8.274-6.707 14.982-14.982 14.982-8.273 0-14.98-6.708-14.98-14.982 0-8.275 6.707-14.983 14.98-14.983 8.276 0 14.983 6.708 14.983 14.983z" stroke-width="2.9832660000000004" fill="#ffd948"/><path d="M829.827 178.635c-.01.2-.042.39-.042.593 0 6.29 5.068 11.4 11.357 11.4 6.288 0 11.4-5.11 11.4-11.4 0-.204-.033-.392-.043-.593h-22.673z" fill="#fc0" stroke-width="1.35603"/></g></g><g stroke="null"><g transform="matrix(.88286 0 0 .78047 15.57 14.912)"><title>background</title><path fill="none" d="M790.248 5.25h79.094v94.363h-79.094z"/></g><g transform="matrix(.8293 0 0 .74475 20.906 16.655)"><title>Layer 1</title><path d="M858.454 45.52s.01 3.252.01 4.415c0 9.08 7.36 16.484 16.442 16.484 9.08 0 16.484-7.404 16.484-16.485 0-1.163-.035-4.518-.035-4.518l-32.9.103z" stroke-width="2.9832660000000004" fill="#a88600"/><path stroke="#cda400" d="M889.907 46.755c0 8.274-6.708 14.982-14.982 14.982-8.275 0-14.982-6.708-14.982-14.982 0-8.275 6.707-14.983 14.982-14.983 8.274 0 14.982 6.708 14.982 14.983z" stroke-width="2.9832660000000004" fill="#ffd948"/><path d="M863.59 46.152c-.01.2-.042.39-.042.593 0 6.29 5.07 11.4 11.357 11.4 6.29 0 11.4-5.11 11.4-11.4 0-.204-.033-.392-.043-.593h-22.67z" fill="#fc0" stroke-width="1.35603"/></g></g><g stroke="null"><g transform="matrix(.88286 0 0 .78047 15.57 14.912)"><title>background</title><path fill="none" d="M812.902 34.293h79.094v94.362h-79.094z"/></g><g transform="matrix(.8293 0 0 .74475 20.906 16.655)"><title>Layer 1</title><path d="M882.57 75.956s.01 3.25.01 4.414c0 9.08 7.362 16.484 16.442 16.484s16.484-7.403 16.484-16.484c0-1.163-.034-4.518-.034-4.518l-32.9.104z" stroke-width="2.9832660000000004" fill="#a88600"/><path stroke="#cda400" d="M914.023 77.19c0 8.274-6.707 14.982-14.982 14.982-8.273 0-14.98-6.708-14.98-14.982 0-8.275 6.707-14.982 14.98-14.982 8.276 0 14.983 6.707 14.983 14.982z" stroke-width="2.9832660000000004" fill="#ffd948"/><path d="M887.707 76.587c-.01.202-.042.39-.042.594 0 6.29 5.068 11.4 11.357 11.4 6.288 0 11.4-5.11 11.4-11.4 0-.204-.033-.39-.043-.593h-22.673z" fill="#fc0" stroke-width="1.35603"/></g></g><g stroke="null"><g transform="matrix(.88286 0 0 .78047 15.57 14.912)"><title>background</title><path fill="none" d="M892.19-21.23h79.093v94.363H892.19z"/></g><g transform="matrix(.8293 0 0 .74475 20.906 16.655)"><title>Layer 1</title><path d="M966.98 17.77s.01 3.252.01 4.415c0 9.08 7.36 16.484 16.44 16.484 9.08 0 16.485-7.404 16.485-16.485 0-1.163-.035-4.518-.035-4.518l-32.9.104z" stroke-width="2.9832660000000004" fill="#a88600"/><path stroke="#cda400" d="M998.432 19.005c0 8.274-6.708 14.982-14.982 14.982-8.275 0-14.982-6.708-14.982-14.982 0-8.275 6.707-14.982 14.982-14.982 8.274 0 14.982 6.707 14.982 14.982z" stroke-width="2.9832660000000004" fill="#ffd948"/><path d="M972.116 18.402c-.01.202-.042.39-.042.593 0 6.29 5.068 11.4 11.356 11.4 6.29 0 11.4-5.11 11.4-11.4 0-.204-.032-.39-.043-.593h-22.67z" fill="#fc0" stroke-width="1.35603"/></g></g><g stroke="null"><g transform="matrix(.88286 0 0 .78047 15.57 14.912)"><title>background</title><path fill="none" d="M892.19 17.636h79.093v94.362H892.19z"/></g><g transform="matrix(.8293 0 0 .74475 20.906 16.655)"><title>Layer 1</title><path d="M966.98 58.5s.01 3.25.01 4.415c0 9.08 7.36 16.484 16.44 16.484 9.08 0 16.485-7.405 16.485-16.485 0-1.163-.035-4.518-.035-4.518l-32.9.103z" stroke-width="2.9832660000000004" fill="#a88600"/><path stroke="#cda400" d="M998.432 59.734c0 8.275-6.708 14.982-14.982 14.982-8.275 0-14.982-6.707-14.982-14.982 0-8.274 6.707-14.982 14.982-14.982 8.274 0 14.982 6.708 14.982 14.982z" stroke-width="2.9832660000000004" fill="#ffd948"/><path d="M972.116 59.132c-.01.2-.042.39-.042.593 0 6.29 5.068 11.4 11.356 11.4 6.29 0 11.4-5.11 11.4-11.4 0-.204-.032-.392-.043-.593h-22.67z" fill="#fc0" stroke-width="1.35603"/></g></g><g stroke="null"><g transform="matrix(.88286 0 0 .78047 15.57 14.912)"><title>background</title><path fill="none" d="M892.19 56.502h79.093v94.362H892.19z"/></g><g transform="matrix(.8293 0 0 .74475 20.906 16.655)"><title>Layer 1</title><path d="M966.98 99.23s.01 3.25.01 4.414c0 9.08 7.36 16.485 16.44 16.485 9.08 0 16.485-7.405 16.485-16.486 0-1.163-.035-4.518-.035-4.518l-32.9.104z" stroke-width="2.9832660000000004" fill="#a88600"/><path stroke="#cda400" d="M998.432 100.464c0 8.274-6.708 14.982-14.982 14.982-8.275 0-14.982-6.708-14.982-14.982 0-8.275 6.707-14.982 14.982-14.982 8.274 0 14.982 6.707 14.982 14.982z" stroke-width="2.9832660000000004" fill="#ffd948"/><path d="M972.116 99.86c-.01.203-.042.39-.042.595 0 6.288 5.068 11.4 11.356 11.4 6.29 0 11.4-5.112 11.4-11.4 0-.204-.032-.392-.043-.594h-22.67z" fill="#fc0" stroke-width="1.35603"/></g></g><g stroke="null"><g transform="matrix(.88286 0 0 .78047 15.57 14.912)"><title>background</title><path fill="none" d="M892.19 95.795h79.093v94.362H892.19z"/></g><g transform="matrix(.8293 0 0 .74475 20.906 16.655)"><title>Layer 1</title><path d="M966.98 140.407s.01 3.25.01 4.414c0 9.082 7.36 16.486 16.44 16.486 9.08 0 16.485-7.404 16.485-16.485 0-1.162-.035-4.516-.035-4.516l-32.9.103z" stroke-width="2.9832660000000004" fill="#a88600"/><path stroke="#cda400" d="M998.432 141.64c0 8.275-6.708 14.983-14.982 14.983-8.275 0-14.982-6.708-14.982-14.982 0-8.273 6.707-14.98 14.982-14.98 8.274 0 14.982 6.707 14.982 14.98z" stroke-width="2.9832660000000004" fill="#ffd948"/><path d="M972.116 141.038c-.01.202-.042.39-.042.594 0 6.288 5.068 11.4 11.356 11.4 6.29 0 11.4-5.112 11.4-11.4 0-.204-.032-.392-.043-.594h-22.67z" fill="#fc0" stroke-width="1.35603"/></g></g><g stroke="null"><g transform="matrix(.88286 0 0 .78047 15.57 14.912)"><title>background</title><path fill="none" d="M892.19 134.233h79.093v94.362H892.19z"/></g><g transform="matrix(.8293 0 0 .74475 20.906 16.655)"><title>Layer 1</title><path d="M966.98 180.69s.01 3.25.01 4.413c0 9.08 7.36 16.485 16.44 16.485 9.08 0 16.485-7.404 16.485-16.485 0-1.163-.035-4.517-.035-4.517l-32.9.103z" stroke-width="2.9832660000000004" fill="#a88600"/><path stroke="#cda400" d="M998.432 181.923c0 8.274-6.708 14.982-14.982 14.982-8.275 0-14.982-6.708-14.982-14.982s6.707-14.982 14.982-14.982c8.274 0 14.982 6.71 14.982 14.983z" stroke-width="2.9832660000000004" fill="#ffd948"/><path d="M972.116 181.32c-.01.202-.042.39-.042.594 0 6.288 5.068 11.4 11.356 11.4 6.29 0 11.4-5.112 11.4-11.4 0-.204-.032-.392-.043-.594h-22.67z" fill="#fc0" stroke-width="1.35603"/></g></g><g stroke="null"><g transform="matrix(.88286 0 0 .78047 15.57 14.912)"><title>background</title><path fill="none" d="M836.31 64.19h79.095v94.362H836.31z"/></g><g transform="matrix(.8293 0 0 .74475 20.906 16.655)"><title>Layer 1</title><path d="M907.492 107.286s.01 3.25.01 4.415c0 9.08 7.36 16.485 16.44 16.485 9.08 0 16.485-7.404 16.485-16.484 0-1.162-.034-4.517-.034-4.517l-32.9.103z" stroke-width="2.9832660000000004" fill="#a88600"/><path stroke="#cda400" d="M938.944 108.52c0 8.275-6.708 14.982-14.982 14.982s-14.982-6.707-14.982-14.982c0-8.274 6.708-14.982 14.982-14.982s14.982 6.708 14.982 14.982z" stroke-width="2.9832660000000004" fill="#ffd948"/><path d="M912.628 107.918c-.01.2-.042.39-.042.593 0 6.29 5.068 11.4 11.356 11.4 6.29 0 11.4-5.11 11.4-11.4 0-.203-.032-.39-.043-.592h-22.672z" fill="#fc0" stroke-width="1.35603"/></g></g><g stroke="null"><g transform="matrix(.88286 0 0 .78047 15.57 14.912)"><title>background</title><path fill="none" d="M855.944 95.795h79.094v94.362h-79.094z"/></g><g transform="matrix(.8293 0 0 .74475 20.906 16.655)"><title>Layer 1</title><path d="M928.393 140.407s.01 3.25.01 4.414c0 9.082 7.36 16.486 16.44 16.486 9.082 0 16.485-7.404 16.485-16.485 0-1.162-.034-4.516-.034-4.516l-32.9.103z" stroke-width="2.9832660000000004" fill="#a88600"/><path stroke="#cda400" d="M959.845 141.64c0 8.275-6.708 14.983-14.982 14.983s-14.982-6.708-14.982-14.982c0-8.273 6.71-14.98 14.983-14.98 8.274 0 14.982 6.707 14.982 14.98z" stroke-width="2.9832660000000004" fill="#ffd948"/><path d="M933.53 141.038c-.012.202-.043.39-.043.594 0 6.288 5.068 11.4 11.357 11.4 6.288 0 11.4-5.112 11.4-11.4 0-.204-.033-.392-.044-.594h-22.67z" fill="#fc0" stroke-width="1.35603"/></g></g><g stroke="null"><g transform="matrix(.88286 0 0 .78047 15.57 14.912)"><title>background</title><path fill="none" d="M1023.58-21.23h79.094v94.363h-79.094z"/></g><g transform="matrix(.8293 0 0 .74475 20.906 16.655)"><title>Layer 1</title><path d="M1106.856 17.77s.01 3.252.01 4.415c0 9.08 7.36 16.484 16.442 16.484 9.08 0 16.484-7.404 16.484-16.485 0-1.163-.035-4.518-.035-4.518l-32.9.104z" stroke-width="2.9832660000000004" fill="#a88600"/><path stroke="#cda400" d="M1138.31 19.005c0 8.274-6.71 14.982-14.983 14.982-8.275 0-14.982-6.708-14.982-14.982 0-8.275 6.707-14.982 14.982-14.982 8.274 0 14.982 6.707 14.982 14.982z" stroke-width="2.9832660000000004" fill="#ffd948"/><path d="M1111.993 18.402c-.01.202-.043.39-.043.593 0 6.29 5.07 11.4 11.357 11.4 6.29 0 11.4-5.11 11.4-11.4 0-.204-.032-.39-.043-.593h-22.67z" fill="#fc0" stroke-width="1.35603"/></g></g><g stroke="null"><g transform="matrix(.88286 0 0 .78047 15.57 14.912)"><title>background</title><path fill="none" d="M1023.58 17.636h79.094v94.362h-79.094z"/></g><g transform="matrix(.8293 0 0 .74475 20.906 16.655)"><title>Layer 1</title><path d="M1106.856 58.5s.01 3.25.01 4.415c0 9.08 7.36 16.484 16.442 16.484 9.08 0 16.484-7.405 16.484-16.485 0-1.163-.035-4.518-.035-4.518l-32.9.103z" stroke-width="2.9832660000000004" fill="#a88600"/><path stroke="#cda400" d="M1138.31 59.734c0 8.275-6.71 14.982-14.983 14.982-8.275 0-14.982-6.707-14.982-14.982 0-8.274 6.707-14.982 14.982-14.982 8.274 0 14.982 6.708 14.982 14.982z" stroke-width="2.9832660000000004" fill="#ffd948"/><path d="M1111.993 59.132c-.01.2-.043.39-.043.593 0 6.29 5.07 11.4 11.357 11.4 6.29 0 11.4-5.11 11.4-11.4 0-.204-.032-.392-.043-.593h-22.67z" fill="#fc0" stroke-width="1.35603"/></g></g><g stroke="null"><g transform="matrix(.88286 0 0 .78047 15.57 14.912)"><title>background</title><path fill="none" d="M1023.58 56.502h79.094v94.362h-79.094z"/></g><g transform="matrix(.8293 0 0 .74475 20.906 16.655)"><title>Layer 1</title><path d="M1106.856 99.23s.01 3.25.01 4.414c0 9.08 7.36 16.485 16.442 16.485 9.08 0 16.484-7.405 16.484-16.486 0-1.163-.035-4.518-.035-4.518l-32.9.104z" stroke-width="2.9832660000000004" fill="#a88600"/><path stroke="#cda400" d="M1138.31 100.464c0 8.274-6.71 14.982-14.983 14.982-8.275 0-14.982-6.708-14.982-14.982 0-8.275 6.707-14.982 14.982-14.982 8.274 0 14.982 6.707 14.982 14.982z" stroke-width="2.9832660000000004" fill="#ffd948"/><path d="M1111.993 99.86c-.01.203-.043.39-.043.595 0 6.288 5.07 11.4 11.357 11.4 6.29 0 11.4-5.112 11.4-11.4 0-.204-.032-.392-.043-.594h-22.67z" fill="#fc0" stroke-width="1.35603"/></g></g><g stroke="null"><g transform="matrix(.88286 0 0 .78047 15.57 14.912)"><title>background</title><path fill="none" d="M1023.58 95.795h79.094v94.362h-79.094z"/></g><g transform="matrix(.8293 0 0 .74475 20.906 16.655)"><title>Layer 1</title><path d="M1106.856 140.407s.01 3.25.01 4.414c0 9.082 7.36 16.486 16.442 16.486 9.08 0 16.484-7.404 16.484-16.485 0-1.162-.035-4.516-.035-4.516l-32.9.103z" stroke-width="2.9832660000000004" fill="#a88600"/><path stroke="#cda400" d="M1138.31 141.64c0 8.275-6.71 14.983-14.983 14.983-8.275 0-14.982-6.708-14.982-14.982 0-8.273 6.707-14.98 14.982-14.98 8.274 0 14.982 6.707 14.982 14.98z" stroke-width="2.9832660000000004" fill="#ffd948"/><path d="M1111.993 141.038c-.01.202-.043.39-.043.594 0 6.288 5.07 11.4 11.357 11.4 6.29 0 11.4-5.112 11.4-11.4 0-.204-.032-.392-.043-.594h-22.67z" fill="#fc0" stroke-width="1.35603"/></g></g><g stroke="null"><g transform="matrix(.88286 0 0 .78047 15.57 14.912)"><title>background</title><path fill="none" d="M1023.58 134.233h79.094v94.362h-79.094z"/></g><g transform="matrix(.8293 0 0 .74475 20.906 16.655)"><title>Layer 1</title><path d="M1106.856 180.69s.01 3.25.01 4.413c0 9.08 7.36 16.485 16.442 16.485 9.08 0 16.484-7.404 16.484-16.485 0-1.163-.035-4.517-.035-4.517l-32.9.103z" stroke-width="2.9832660000000004" fill="#a88600"/><path stroke="#cda400" d="M1138.31 181.923c0 8.274-6.71 14.982-14.983 14.982-8.275 0-14.982-6.708-14.982-14.982s6.707-14.982 14.982-14.982c8.274 0 14.982 6.71 14.982 14.983z" stroke-width="2.9832660000000004" fill="#ffd948"/><path d="M1111.993 181.32c-.01.202-.043.39-.043.594 0 6.288 5.07 11.4 11.357 11.4 6.29 0 11.4-5.112 11.4-11.4 0-.204-.032-.392-.043-.594h-22.67z" fill="#fc0" stroke-width="1.35603"/></g></g><g stroke="null"><g transform="matrix(.88286 0 0 .78047 15.57 14.912)"><title>background</title><path fill="none" d="M953.354-21.23h79.094v94.363h-79.094z"/></g><g transform="matrix(.8293 0 0 .74475 20.906 16.655)"><title>Layer 1</title><path d="M1032.095 17.77s.01 3.252.01 4.415c0 9.08 7.36 16.484 16.44 16.484 9.08 0 16.485-7.404 16.485-16.485 0-1.163-.034-4.518-.034-4.518l-32.9.104z" stroke-width="2.9832660000000004" fill="#a88600"/><path stroke="#cda400" d="M1063.547 19.005c0 8.274-6.708 14.982-14.982 14.982s-14.982-6.708-14.982-14.982c0-8.275 6.708-14.982 14.982-14.982s14.982 6.707 14.982 14.982z" stroke-width="2.9832660000000004" fill="#ffd948"/><path d="M1037.23 18.402c-.01.202-.04.39-.04.593 0 6.29 5.067 11.4 11.355 11.4 6.29 0 11.4-5.11 11.4-11.4 0-.204-.032-.39-.043-.593h-22.67z" fill="#fc0" stroke-width="1.35603"/></g></g><g stroke="null"><g transform="matrix(.88286 0 0 .78047 15.57 14.912)"><title>background</title><path fill="none" d="M988.845-21.23h79.094v94.363h-79.095z"/></g><g transform="matrix(.8293 0 0 .74475 20.906 16.655)"><title>Layer 1</title><path d="M1069.877 17.77s.01 3.252.01 4.415c0 9.08 7.36 16.484 16.442 16.484 9.08 0 16.483-7.404 16.483-16.485 0-1.163-.035-4.518-.035-4.518l-32.9.104z" stroke-width="2.9832660000000004" fill="#a88600"/><path stroke="#cda400" d="M1101.33 19.005c0 8.274-6.708 14.982-14.982 14.982-8.275 0-14.982-6.708-14.982-14.982 0-8.275 6.707-14.982 14.982-14.982 8.274 0 14.982 6.707 14.982 14.982z" stroke-width="2.9832660000000004" fill="#ffd948"/><path d="M1075.014 18.402c-.01.202-.043.39-.043.593 0 6.29 5.07 11.4 11.358 11.4 6.29 0 11.4-5.11 11.4-11.4 0-.204-.032-.39-.043-.593h-22.67z" fill="#fc0" stroke-width="1.35603"/></g></g><g stroke="null"><g transform="matrix(.88286 0 0 .78047 15.57 14.912)"><title>background</title><path fill="none" d="M1058.316-21.23h79.094v94.363h-79.094z"/></g><g transform="matrix(.8293 0 0 .74475 20.906 16.655)"><title>Layer 1</title><path d="M1143.835 17.77s.01 3.252.01 4.415c0 9.08 7.36 16.484 16.442 16.484 9.08 0 16.484-7.404 16.484-16.485 0-1.163-.034-4.518-.034-4.518l-32.9.104z" stroke-width="2.9832660000000004" fill="#a88600"/><path stroke="#cda400" d="M1175.288 19.005c0 8.274-6.708 14.982-14.982 14.982-8.275 0-14.982-6.708-14.982-14.982 0-8.275 6.707-14.982 14.982-14.982 8.274 0 14.982 6.707 14.982 14.982z" stroke-width="2.9832660000000004" fill="#ffd948"/><path d="M1148.972 18.402c-.01.202-.043.39-.043.593 0 6.29 5.068 11.4 11.356 11.4 6.29 0 11.4-5.11 11.4-11.4 0-.204-.033-.39-.043-.593h-22.67z" fill="#fc0" stroke-width="1.35603"/></g></g><g stroke="null"><g transform="matrix(.88286 0 0 .78047 15.57 14.912)"><title>background</title><path fill="none" d="M1093.806-21.23h79.094v94.363h-79.094z"/></g><g transform="matrix(.8293 0 0 .74475 20.906 16.655)"><title>Layer 1</title><path d="M1181.618 17.77s.01 3.252.01 4.415c0 9.08 7.36 16.484 16.44 16.484 9.082 0 16.486-7.404 16.486-16.485 0-1.163-.035-4.518-.035-4.518l-32.902.104z" stroke-width="2.9832660000000004" fill="#a88600"/><path stroke="#cda400" d="M1213.07 19.005c0 8.274-6.707 14.982-14.98 14.982-8.276 0-14.984-6.708-14.984-14.982 0-8.275 6.708-14.982 14.983-14.982 8.273 0 14.98 6.707 14.98 14.982z" stroke-width="2.9832660000000004" fill="#ffd948"/><path d="M1186.755 18.402c-.01.202-.043.39-.043.593 0 6.29 5.068 11.4 11.357 11.4 6.287 0 11.398-5.11 11.398-11.4 0-.204-.032-.39-.042-.593h-22.67z" fill="#fc0" stroke-width="1.35603"/></g></g><g stroke="null"><g transform="matrix(.88286 0 0 .78047 15.57 14.912)"><title>background</title><path fill="none" d="M1208.584 61.627h79.094v94.362h-79.094z"/></g><g transform="matrix(.8293 0 0 .74475 20.906 16.655)"><title>Layer 1</title><path d="M1303.81 104.6s.01 3.252.01 4.415c0 9.08 7.36 16.484 16.44 16.484 9.08 0 16.485-7.404 16.485-16.485 0-1.163-.035-4.518-.035-4.518l-32.9.104z" stroke-width="2.9832660000000004" fill="#a88600"/><path stroke="#cda400" d="M1335.262 105.835c0 8.274-6.708 14.982-14.982 14.982-8.275 0-14.982-6.708-14.982-14.982 0-8.275 6.707-14.982 14.982-14.982 8.274 0 14.982 6.707 14.982 14.982z" stroke-width="2.9832660000000004" fill="#ffd948"/><path d="M1308.946 105.232c-.01.202-.042.39-.042.593 0 6.29 5.068 11.4 11.356 11.4 6.29 0 11.4-5.11 11.4-11.4 0-.204-.032-.39-.043-.593h-22.67z" fill="#fc0" stroke-width="1.35603"/></g></g><g stroke="null"><g transform="matrix(.88286 0 0 .78047 15.57 14.912)"><title>background</title><path fill="none" d="M1171.584 55.648h79.094v94.362h-79.094z"/></g><g transform="matrix(.8293 0 0 .74475 20.906 16.655)"><title>Layer 1</title><path d="M1264.42 98.335s.008 3.25.008 4.414c0 9.08 7.362 16.483 16.442 16.483s16.484-7.403 16.484-16.484c0-1.164-.034-4.52-.034-4.52l-32.9.105z" stroke-width="2.9832660000000004" fill="#a88600"/><path stroke="#cda400" d="M1295.87 99.57c0 8.273-6.706 14.98-14.98 14.98-8.275 0-14.983-6.707-14.983-14.98 0-8.276 6.708-14.983 14.982-14.983s14.98 6.707 14.98 14.982z" stroke-width="2.9832660000000004" fill="#ffd948"/><path d="M1269.555 98.966c-.01.202-.042.39-.042.593 0 6.288 5.068 11.4 11.357 11.4 6.288 0 11.4-5.112 11.4-11.4 0-.205-.033-.392-.044-.594h-22.67z" fill="#fc0" stroke-width="1.35603"/></g></g><g stroke="null"><g transform="matrix(.88286 0 0 .78047 15.57 14.912)"><title>background</title><path fill="none" d="M1150.44 24.043h79.094v94.362h-79.094z"/></g><g transform="matrix(.8293 0 0 .74475 20.906 16.655)"><title>Layer 1</title><path d="M1241.91 65.214s.01 3.25.01 4.414c0 9.08 7.36 16.485 16.44 16.485 9.082 0 16.485-7.404 16.485-16.485 0-1.163-.034-4.518-.034-4.518l-32.9.104z" stroke-width="2.9832660000000004" fill="#a88600"/><path stroke="#cda400" d="M1273.362 66.448c0 8.274-6.707 14.982-14.982 14.982-8.274 0-14.982-6.708-14.982-14.982s6.708-14.982 14.982-14.982c8.275 0 14.982 6.708 14.982 14.982z" stroke-width="2.9832660000000004" fill="#ffd948"/><path d="M1247.046 65.845c-.01.202-.042.39-.042.594 0 6.287 5.068 11.398 11.357 11.398 6.29 0 11.4-5.11 11.4-11.4 0-.203-.032-.39-.042-.593h-22.672z" fill="#fc0" stroke-width="1.35603"/></g></g><g stroke="null"><g transform="matrix(.88286 0 0 .78047 15.57 14.912)"><title>background</title><path fill="none" d="M1163.277-12.687h79.094v94.362h-79.093z"/></g><g transform="matrix(.8293 0 0 .74475 20.906 16.655)"><title>Layer 1</title><path d="M1255.576 26.722s.01 3.25.01 4.415c0 9.08 7.36 16.484 16.44 16.484 9.082 0 16.486-7.403 16.486-16.483 0-1.163-.035-4.518-.035-4.518l-32.9.102z" stroke-width="2.9832660000000004" fill="#a88600"/><path stroke="#cda400" d="M1287.03 27.956c0 8.275-6.71 14.982-14.984 14.982-8.274 0-14.982-6.707-14.982-14.982 0-8.274 6.708-14.982 14.982-14.982 8.275 0 14.983 6.708 14.983 14.982z" stroke-width="2.9832660000000004" fill="#ffd948"/><path d="M1260.712 27.354c-.01.2-.042.39-.042.593 0 6.29 5.068 11.4 11.357 11.4 6.288 0 11.4-5.11 11.4-11.4 0-.204-.033-.392-.043-.593h-22.672z" fill="#fc0" stroke-width="1.35603"/></g></g><g stroke="null"><g transform="matrix(.88286 0 0 .78047 15.57 14.912)"><title>background</title><path fill="none" d="M1200.278-22.937h79.094v94.362h-79.094z"/></g><g transform="matrix(.8293 0 0 .74475 20.906 16.655)"><title>Layer 1</title><path d="M1294.967 15.98s.01 3.25.01 4.415c0 9.08 7.36 16.484 16.44 16.484 9.082 0 16.485-7.405 16.485-16.485 0-1.163-.034-4.518-.034-4.518l-32.9.103z" stroke-width="2.9832660000000004" fill="#a88600"/><path stroke="#cda400" d="M1326.42 17.214c0 8.275-6.71 14.983-14.983 14.983-8.274 0-14.982-6.708-14.982-14.983 0-8.274 6.708-14.982 14.982-14.982s14.982 6.708 14.982 14.982z" stroke-width="2.9832660000000004" fill="#ffd948"/><path d="M1300.103 16.612c-.01.2-.042.39-.042.593 0 6.29 5.07 11.4 11.357 11.4 6.29 0 11.4-5.11 11.4-11.4 0-.204-.032-.392-.043-.593h-22.67z" fill="#fc0" stroke-width="1.35603"/></g></g><g stroke="null"><g transform="matrix(.88286 0 0 .78047 15.57 14.912)"><title>background</title><path fill="none" d="M1235.014-13.54h79.094v94.36h-79.094z"/></g><g transform="matrix(.8293 0 0 .74475 20.906 16.655)"><title>Layer 1</title><path d="M1331.946 25.827s.01 3.25.01 4.415c0 9.08 7.36 16.484 16.44 16.484 9.08 0 16.485-7.404 16.485-16.484 0-1.164-.033-4.518-.033-4.518l-32.9.103z" stroke-width="2.9832660000000004" fill="#a88600"/><path stroke="#cda400" d="M1363.398 27.06c0 8.276-6.708 14.983-14.982 14.983s-14.982-6.707-14.982-14.982c0-8.273 6.708-14.98 14.982-14.98s14.982 6.707 14.982 14.98z" stroke-width="2.9832660000000004" fill="#ffd948"/><path d="M1337.082 26.46c-.01.2-.042.388-.042.592 0 6.288 5.068 11.4 11.356 11.4 6.29 0 11.4-5.112 11.4-11.4 0-.204-.032-.392-.043-.593h-22.67z" fill="#fc0" stroke-width="1.35603"/></g></g><g stroke="null"><g transform="matrix(.88286 0 0 .78047 15.57 14.912)"><title>background</title><path fill="none" d="M1239.544 84.69h79.094v94.362h-79.094z"/></g><g transform="matrix(.8293 0 0 .74475 20.906 16.655)"><title>Layer 1</title><path d="M1336.77 128.77s.008 3.25.008 4.414c0 9.08 7.362 16.485 16.442 16.485s16.485-7.405 16.485-16.486c0-1.163-.035-4.518-.035-4.518l-32.9.104z" stroke-width="2.9832660000000004" fill="#a88600"/><path stroke="#cda400" d="M1368.22 130.004c0 8.274-6.706 14.982-14.98 14.982-8.275 0-14.983-6.708-14.983-14.982s6.708-14.982 14.982-14.982 14.98 6.708 14.98 14.982z" stroke-width="2.9832660000000004" fill="#ffd948"/><path d="M1341.905 129.4c-.01.203-.042.39-.042.595 0 6.288 5.068 11.4 11.357 11.4 6.288 0 11.4-5.112 11.4-11.4 0-.204-.033-.392-.043-.594h-22.672z" fill="#fc0" stroke-width="1.35603"/></g></g><g stroke="null"><g transform="matrix(.88286 0 0 .78047 15.57 14.912)"><title>background</title><path fill="none" d="M1233.503 123.983h79.094v94.362h-79.094z"/></g><g transform="matrix(.8293 0 0 .74475 20.906 16.655)"><title>Layer 1</title><path d="M1330.338 169.947s.01 3.25.01 4.415c0 9.08 7.36 16.484 16.44 16.484 9.082 0 16.485-7.404 16.485-16.484 0-1.164-.034-4.518-.034-4.518l-32.902.103z" stroke-width="2.9832660000000004" fill="#a88600"/><path stroke="#cda400" d="M1361.79 171.18c0 8.276-6.707 14.983-14.982 14.983-8.274 0-14.982-6.707-14.982-14.982 0-8.273 6.708-14.98 14.982-14.98 8.275 0 14.982 6.707 14.982 14.98z" stroke-width="2.9832660000000004" fill="#ffd948"/><path d="M1335.474 170.58c-.01.2-.042.388-.042.592 0 6.288 5.068 11.4 11.357 11.4 6.287 0 11.398-5.112 11.398-11.4 0-.204-.032-.392-.043-.593h-22.67z" fill="#fc0" stroke-width="1.35603"/></g></g><g stroke="null"><g transform="matrix(.88286 0 0 .78047 15.57 14.912)"><title>background</title><path fill="none" d="M1197.258 136.795h79.094v94.362h-79.094z"/></g><g transform="matrix(.8293 0 0 .74475 20.906 16.655)"><title>Layer 1</title><path d="M1291.75 183.374s.01 3.25.01 4.415c0 9.08 7.362 16.483 16.442 16.483s16.485-7.404 16.485-16.484c0-1.164-.035-4.52-.035-4.52l-32.9.104z" stroke-width="2.9832660000000004" fill="#a88600"/><path stroke="#cda400" d="M1323.204 184.608c0 8.275-6.708 14.983-14.983 14.983-8.273 0-14.98-6.707-14.98-14.982 0-8.274 6.707-14.982 14.98-14.982 8.276 0 14.984 6.708 14.984 14.982z" stroke-width="2.9832660000000004" fill="#ffd948"/><path d="M1296.887 184.006c-.01.2-.042.39-.042.593 0 6.288 5.068 11.398 11.357 11.398 6.288 0 11.4-5.11 11.4-11.4 0-.203-.033-.39-.043-.592h-22.672z" fill="#fc0" stroke-width="1.35603"/></g></g><g stroke="null"><g transform="matrix(.88286 0 0 .78047 15.57 14.912)"><title>background</title><path fill="none" d="M1160.257 125.69h79.094v94.363h-79.093z"/></g><g transform="matrix(.8293 0 0 .74475 20.906 16.655)"><title>Layer 1</title><path d="M1252.36 171.737s.01 3.25.01 4.415c0 9.08 7.36 16.484 16.442 16.484 9.08 0 16.484-7.404 16.484-16.484 0-1.163-.035-4.518-.035-4.518l-32.9.103z" stroke-width="2.9832660000000004" fill="#a88600"/><path stroke="#cda400" d="M1283.813 172.97c0 8.276-6.708 14.984-14.982 14.984s-14.98-6.708-14.98-14.983c0-8.273 6.706-14.98 14.98-14.98 8.275 0 14.983 6.707 14.983 14.98z" stroke-width="2.9832660000000004" fill="#ffd948"/><path d="M1257.497 172.37c-.01.2-.042.388-.042.592 0 6.29 5.068 11.4 11.356 11.4 6.29 0 11.4-5.11 11.4-11.4 0-.204-.03-.392-.042-.593h-22.67z" fill="#fc0" stroke-width="1.35603"/></g></g></g></svg>
