<svg width="596" height="191" xmlns="http://www.w3.org/2000/svg"><title>background</title><path fill="none" d="M-1-1h598v193H-1z"/><g><title>Layer 1</title><g stroke="null"><g transform="matrix(.94087 0 0 .86186 122.065 -9.467)"><title>background</title><path fill="none" d="M-133.807 4.65h58.094v68.362h-58.094z"/></g><g transform="matrix(.94087 0 0 .86186 122.065 -9.467)"><title>Layer 1</title><path fill="#a88600" stroke-width="2.9832660000000004" d="M-119.957 37.02s.01 3.25.01 4.415c0 9.08 7.36 16.484 16.44 16.484 9.082 0 16.485-7.405 16.485-16.485 0-1.164-.034-4.518-.034-4.518l-32.9.103z"/><path fill="#ffd948" stroke-width="2.9832660000000004" d="M-88.505 38.254c0 8.275-6.708 14.982-14.982 14.982s-14.982-6.707-14.982-14.982c0-8.274 6.71-14.982 14.983-14.982 8.274 0 14.982 6.708 14.982 14.982z" stroke="#cda400"/><path fill="#fc0" d="M-114.82 37.652c-.012.2-.043.39-.043.593 0 6.288 5.068 11.4 11.356 11.4 6.29 0 11.4-5.112 11.4-11.4 0-.204-.032-.392-.043-.593h-22.67z" stroke-width="1.35603"/></g></g><g stroke="null"><g transform="matrix(.94087 0 0 .86186 122.065 -9.467)"><title>background</title><path fill="none" d="M-125.304 41.78h58.094v68.36h-58.094z"/></g><g transform="matrix(.94087 0 0 .86186 122.065 -9.467)"><title>Layer 1</title><path fill="#a88600" stroke-width="2.9832660000000004" d="M-111.455 74.15s.01 3.25.01 4.414c0 9.08 7.36 16.484 16.442 16.484 9.08 0 16.484-7.404 16.484-16.484 0-1.163-.034-4.518-.034-4.518l-32.9.103z"/><path fill="#ffd948" stroke-width="2.9832660000000004" d="M-80.002 75.383c0 8.275-6.708 14.983-14.982 14.983-8.275 0-14.982-6.708-14.982-14.983 0-8.274 6.707-14.982 14.982-14.982 8.274 0 14.982 6.71 14.982 14.983z" stroke="#cda400"/><path fill="#fc0" d="M-106.318 74.78c-.01.202-.042.39-.042.594 0 6.29 5.068 11.4 11.356 11.4 6.29 0 11.4-5.11 11.4-11.4 0-.204-.032-.392-.043-.593h-22.67z" stroke-width="1.35603"/></g></g><g stroke="null"><g transform="matrix(.94087 0 0 .86186 122.065 -9.467)"><title>background</title><path fill="none" d="M-116.8 81.23h58.093v68.36H-116.8z"/></g><g transform="matrix(.94087 0 0 .86186 122.065 -9.467)"><title>Layer 1</title><path fill="#a88600" stroke-width="2.9832660000000004" d="M-102.952 113.6s.01 3.25.01 4.414c0 9.08 7.36 16.484 16.442 16.484 9.08 0 16.484-7.404 16.484-16.484 0-1.164-.035-4.518-.035-4.518l-32.902.103z"/><path fill="#ffd948" stroke-width="2.9832660000000004" d="M-71.5 114.833c0 8.275-6.707 14.982-14.98 14.982-8.276 0-14.983-6.707-14.983-14.982 0-8.274 6.707-14.982 14.982-14.982 8.273 0 14.98 6.71 14.98 14.983z" stroke="#cda400"/><path fill="#fc0" d="M-97.815 114.23c-.01.202-.043.39-.043.594 0 6.288 5.07 11.4 11.357 11.4 6.288 0 11.398-5.112 11.398-11.4 0-.204-.032-.392-.042-.593h-22.67z" stroke-width="1.35603"/></g></g><g stroke="null"><g transform="matrix(.94087 0 0 .86186 122.065 -9.467)"><title>background</title><path fill="none" d="M-109.36 118.358h58.093v68.362h-58.094z"/></g><g transform="matrix(.94087 0 0 .86186 122.065 -9.467)"><title>Layer 1</title><path fill="#a88600" stroke-width="2.9832660000000004" d="M-95.512 150.728s.01 3.25.01 4.415c0 9.08 7.36 16.484 16.442 16.484 9.08 0 16.484-7.404 16.484-16.484 0-1.163-.035-4.518-.035-4.518l-32.902.103z"/><path fill="#ffd948" stroke-width="2.9832660000000004" d="M-64.06 151.962c0 8.275-6.707 14.983-14.98 14.983-8.276 0-14.984-6.708-14.984-14.983 0-8.274 6.708-14.982 14.983-14.982 8.273 0 14.98 6.708 14.98 14.982z" stroke="#cda400"/><path fill="#fc0" d="M-90.375 151.36c-.01.2-.043.39-.043.593 0 6.29 5.068 11.4 11.357 11.4 6.288 0 11.398-5.11 11.398-11.4 0-.204-.032-.392-.042-.593h-22.67z" stroke-width="1.35603"/></g></g><g stroke="null"><g transform="matrix(.94087 0 0 .86186 122.065 -9.467)"><title>background</title><path fill="none" d="M-27.522 58.023h58.094v68.362h-58.094z"/></g><g transform="matrix(.94087 0 0 .86186 122.065 -9.467)"><title>Layer 1</title><path fill="#a88600" stroke-width="2.9832660000000004" d="M-13.672 90.393s.01 3.25.01 4.415c0 9.08 7.36 16.484 16.44 16.484 9.082 0 16.485-7.404 16.485-16.484 0-1.163-.034-4.518-.034-4.518l-32.902.103z"/><path fill="#ffd948" stroke-width="2.9832660000000004" d="M17.78 91.627c0 8.275-6.707 14.983-14.982 14.983-8.274 0-14.982-6.708-14.982-14.983 0-8.274 6.708-14.982 14.982-14.982 8.275 0 14.982 6.708 14.982 14.982z" stroke="#cda400"/><path fill="#fc0" d="M-8.536 91.025c-.01.2-.042.39-.042.593 0 6.29 5.068 11.4 11.357 11.4 6.287 0 11.398-5.11 11.398-11.4 0-.204-.032-.392-.043-.593h-22.67z" stroke-width="1.35603"/></g></g><g stroke="null"><g transform="matrix(.94087 0 0 .86186 122.065 -9.467)"><title>background</title><path fill="none" d="M-74.287 120.68h58.094v68.36h-58.094z"/></g><g transform="matrix(.94087 0 0 .86186 122.065 -9.467)"><title>Layer 1</title><path fill="#a88600" stroke-width="2.9832660000000004" d="M-60.438 153.05s.01 3.25.01 4.413c0 9.08 7.36 16.485 16.442 16.485 9.08 0 16.484-7.404 16.484-16.485 0-1.163-.035-4.517-.035-4.517l-32.9.103z"/><path fill="#ffd948" stroke-width="2.9832660000000004" d="M-28.985 154.283c0 8.274-6.708 14.982-14.982 14.982-8.275 0-14.982-6.708-14.982-14.982S-52.24 139.3-43.966 139.3c8.274 0 14.982 6.71 14.982 14.983z" stroke="#cda400"/><path fill="#fc0" d="M-55.3 153.68c-.012.202-.044.39-.044.594 0 6.288 5.07 11.4 11.357 11.4 6.29 0 11.4-5.112 11.4-11.4 0-.204-.032-.392-.043-.594H-55.3z" stroke-width="1.35603"/></g></g><g stroke="null"><g transform="matrix(.94087 0 0 .86186 122.065 -9.467)"><title>background</title><path fill="none" d="M-49.842 87.03H8.252v68.362h-58.094z"/></g><g transform="matrix(.94087 0 0 .86186 122.065 -9.467)"><title>Layer 1</title><path fill="#a88600" stroke-width="2.9832660000000004" d="M-35.992 119.4s.01 3.252.01 4.415c0 9.08 7.36 16.484 16.44 16.484 9.082 0 16.485-7.404 16.485-16.485 0-1.163-.034-4.518-.034-4.518l-32.902.104z"/><path fill="#ffd948" stroke-width="2.9832660000000004" d="M-4.54 120.635c0 8.274-6.707 14.982-14.982 14.982-8.274 0-14.982-6.708-14.982-14.982 0-8.275 6.708-14.983 14.982-14.983 8.275 0 14.982 6.708 14.982 14.983z" stroke="#cda400"/><path fill="#fc0" d="M-30.856 120.032c-.01.202-.042.39-.042.593 0 6.29 5.068 11.4 11.357 11.4 6.287 0 11.398-5.11 11.398-11.4 0-.204-.032-.39-.043-.593h-22.67z" stroke-width="1.35603"/></g></g><g stroke="null"><g transform="matrix(.94087 0 0 .86186 122.065 -9.467)"><title>background</title><path fill="none" d="M-9.453 90.51H48.64v68.363H-9.452z"/></g><g transform="matrix(.94087 0 0 .86186 122.065 -9.467)"><title>Layer 1</title><path fill="#a88600" stroke-width="2.9832660000000004" d="M4.396 122.88s.01 3.252.01 4.416c0 9.08 7.36 16.484 16.442 16.484 9.08 0 16.484-7.404 16.484-16.484 0-1.163-.035-4.518-.035-4.518l-32.9.103z"/><path fill="#ffd948" stroke-width="2.9832660000000004" d="M35.85 124.116c0 8.274-6.71 14.982-14.983 14.982-8.275 0-14.983-6.708-14.983-14.982 0-8.275 6.708-14.983 14.983-14.983 8.274 0 14.982 6.708 14.982 14.983z" stroke="#cda400"/><path fill="#fc0" d="M9.533 123.513c-.01.2-.043.39-.043.593 0 6.29 5.068 11.4 11.357 11.4 6.29 0 11.4-5.11 11.4-11.4 0-.204-.033-.392-.043-.593H9.534z" stroke-width="1.35603"/></g></g><g stroke="null"><g transform="matrix(.94087 0 0 .86186 122.065 -9.467)"><title>background</title><path fill="none" d="M12.866 123H70.96v68.36H12.866z"/></g><g transform="matrix(.94087 0 0 .86186 122.065 -9.467)"><title>Layer 1</title><path fill="#a88600" stroke-width="2.9832660000000004" d="M26.716 155.37s.01 3.25.01 4.414c0 9.08 7.36 16.484 16.44 16.484 9.082 0 16.486-7.403 16.486-16.484 0-1.163-.035-4.518-.035-4.518l-32.9.103z"/><path fill="#ffd948" stroke-width="2.9832660000000004" d="M58.17 156.604c0 8.274-6.71 14.982-14.984 14.982-8.274 0-14.982-6.708-14.982-14.982 0-8.275 6.708-14.983 14.982-14.983 8.275 0 14.983 6.71 14.983 14.984z" stroke="#cda400"/><path fill="#fc0" d="M31.852 156c-.01.202-.042.39-.042.594 0 6.29 5.068 11.4 11.357 11.4 6.288 0 11.4-5.11 11.4-11.4 0-.204-.033-.392-.043-.593H31.852z" stroke-width="1.35603"/></g></g><g stroke="null"><g transform="matrix(.94087 0 0 .86186 122.065 -9.467)"><title>background</title><path fill="none" d="M49.003 121.84h58.094v68.36H49.003z"/></g><g transform="matrix(.94087 0 0 .86186 122.065 -9.467)"><title>Layer 1</title><path fill="#a88600" stroke-width="2.9832660000000004" d="M62.853 154.21s.01 3.25.01 4.414c0 9.08 7.36 16.484 16.44 16.484 9.082 0 16.486-7.404 16.486-16.484 0-1.163-.036-4.518-.036-4.518l-32.9.103z"/><path fill="#ffd948" stroke-width="2.9832660000000004" d="M94.306 155.443c0 8.275-6.708 14.982-14.983 14.982-8.274 0-14.982-6.707-14.982-14.982 0-8.274 6.71-14.982 14.983-14.982 8.275 0 14.983 6.71 14.983 14.983z" stroke="#cda400"/><path fill="#fc0" d="M67.99 154.84c-.01.202-.043.39-.043.594 0 6.29 5.068 11.4 11.357 11.4 6.288 0 11.4-5.11 11.4-11.4 0-.204-.033-.392-.043-.593H67.99z" stroke-width="1.35603"/></g></g><g stroke="null"><g transform="matrix(.94087 0 0 .86186 122.065 -9.467)"><title>background</title><path fill="none" d="M55.38 83.55h58.095v68.36H55.38z"/></g><g transform="matrix(.94087 0 0 .86186 122.065 -9.467)"><title>Layer 1</title><path fill="#a88600" stroke-width="2.9832660000000004" d="M69.23 115.92s.01 3.25.01 4.414c0 9.08 7.36 16.484 16.44 16.484 9.082 0 16.486-7.403 16.486-16.484 0-1.163-.035-4.518-.035-4.518l-32.9.104z"/><path fill="#ffd948" stroke-width="2.9832660000000004" d="M100.683 117.154c0 8.274-6.708 14.982-14.982 14.982s-14.982-6.708-14.982-14.982c0-8.275 6.708-14.982 14.983-14.982s14.983 6.707 14.983 14.982z" stroke="#cda400"/><path fill="#fc0" d="M74.366 116.55c-.01.203-.042.39-.042.594 0 6.29 5.068 11.4 11.357 11.4 6.29 0 11.4-5.11 11.4-11.4 0-.204-.032-.39-.042-.593H74.366z" stroke-width="1.35603"/></g></g><g stroke="null"><g transform="matrix(.94087 0 0 .86186 122.065 -9.467)"><title>background</title><path fill="none" d="M135.094 6.97h58.094v68.362h-58.094z"/></g><g transform="matrix(.94087 0 0 .86186 122.065 -9.467)"><title>Layer 1</title><path fill="#a88600" stroke-width="2.9832660000000004" d="M148.944 39.34s.01 3.252.01 4.415c0 9.08 7.36 16.484 16.44 16.484 9.082 0 16.485-7.404 16.485-16.485 0-1.163-.035-4.518-.035-4.518l-32.9.104z"/><path fill="#ffd948" stroke-width="2.9832660000000004" d="M180.396 40.575c0 8.274-6.707 14.982-14.982 14.982-8.274 0-14.982-6.708-14.982-14.982 0-8.275 6.708-14.982 14.982-14.982 8.275 0 14.982 6.707 14.982 14.982z" stroke="#cda400"/><path fill="#fc0" d="M154.08 39.972c-.01.202-.042.39-.042.593 0 6.29 5.068 11.4 11.357 11.4 6.288 0 11.4-5.11 11.4-11.4 0-.204-.033-.39-.043-.593H154.08z" stroke-width="1.35603"/></g></g><g stroke="null"><g transform="matrix(.94087 0 0 .86186 122.065 -9.467)"><title>background</title><path fill="none" d="M135.094 46.42h58.094v68.362h-58.094z"/></g><g transform="matrix(.94087 0 0 .86186 122.065 -9.467)"><title>Layer 1</title><path fill="#a88600" stroke-width="2.9832660000000004" d="M148.944 78.79s.01 3.252.01 4.415c0 9.08 7.36 16.484 16.44 16.484 9.082 0 16.485-7.404 16.485-16.485 0-1.163-.035-4.518-.035-4.518l-32.9.103z"/><path fill="#ffd948" stroke-width="2.9832660000000004" d="M180.396 80.025c0 8.274-6.707 14.982-14.982 14.982-8.274 0-14.982-6.708-14.982-14.982 0-8.275 6.708-14.983 14.982-14.983 8.275 0 14.982 6.708 14.982 14.983z" stroke="#cda400"/><path fill="#fc0" d="M154.08 79.422c-.01.2-.042.39-.042.593 0 6.29 5.068 11.4 11.357 11.4 6.288 0 11.4-5.11 11.4-11.4 0-.204-.033-.392-.043-.593H154.08z" stroke-width="1.35603"/></g></g><g stroke="null"><g transform="matrix(.94087 0 0 .86186 122.065 -9.467)"><title>background</title><path fill="none" d="M136.157 84.71h58.094v68.362h-58.093z"/></g><g transform="matrix(.94087 0 0 .86186 122.065 -9.467)"><title>Layer 1</title><path fill="#a88600" stroke-width="2.9832660000000004" d="M150.007 117.08s.01 3.25.01 4.414c0 9.08 7.36 16.485 16.44 16.485 9.082 0 16.485-7.405 16.485-16.486 0-1.163-.034-4.517-.034-4.517l-32.9.103z"/><path fill="#ffd948" stroke-width="2.9832660000000004" d="M181.46 118.314c0 8.274-6.708 14.982-14.983 14.982-8.274 0-14.982-6.708-14.982-14.982s6.708-14.982 14.982-14.982c8.275 0 14.982 6.708 14.982 14.982z" stroke="#cda400"/><path fill="#fc0" d="M155.143 117.712c-.01.2-.042.39-.042.593 0 6.288 5.07 11.4 11.358 11.4s11.4-5.112 11.4-11.4c0-.204-.033-.392-.044-.593h-22.67z" stroke-width="1.35603"/></g></g><g stroke="null"><g transform="matrix(.94087 0 0 .86186 122.065 -9.467)"><title>background</title><path fill="none" d="M136.157 123h58.094v68.36h-58.093z"/></g><g transform="matrix(.94087 0 0 .86186 122.065 -9.467)"><title>Layer 1</title><path fill="#a88600" stroke-width="2.9832660000000004" d="M150.007 155.37s.01 3.25.01 4.414c0 9.08 7.36 16.484 16.44 16.484 9.082 0 16.485-7.403 16.485-16.484 0-1.163-.034-4.518-.034-4.518l-32.9.103z"/><path fill="#ffd948" stroke-width="2.9832660000000004" d="M181.46 156.604c0 8.274-6.708 14.982-14.983 14.982-8.274 0-14.982-6.708-14.982-14.982 0-8.275 6.708-14.983 14.982-14.983 8.275 0 14.982 6.71 14.982 14.984z" stroke="#cda400"/><path fill="#fc0" d="M155.143 156c-.01.202-.042.39-.042.594 0 6.29 5.07 11.4 11.358 11.4s11.4-5.11 11.4-11.4c0-.204-.033-.392-.044-.593h-22.67z" stroke-width="1.35603"/></g></g><g stroke="null"><g transform="matrix(.94087 0 0 .86186 122.065 -9.467)"><title>background</title><path fill="none" d="M137.22 162.45h58.094v68.36H137.22z"/></g><g transform="matrix(.94087 0 0 .86186 122.065 -9.467)"><title>Layer 1</title><path fill="#a88600" stroke-width="2.9832660000000004" d="M151.07 194.82s.01 3.25.01 4.414c0 9.08 7.36 16.484 16.44 16.484 9.082 0 16.485-7.404 16.485-16.484 0-1.163-.034-4.518-.034-4.518l-32.9.103z"/><path fill="#ffd948" stroke-width="2.9832660000000004" d="M182.522 196.053c0 8.275-6.708 14.982-14.982 14.982s-14.982-6.707-14.982-14.982c0-8.274 6.708-14.982 14.982-14.982s14.982 6.71 14.982 14.983z" stroke="#cda400"/><path fill="#fc0" d="M156.206 195.45c-.01.202-.042.39-.042.594 0 6.29 5.068 11.4 11.356 11.4 6.29 0 11.4-5.11 11.4-11.4 0-.204-.032-.392-.043-.593h-22.67z" stroke-width="1.35603"/></g></g><g stroke="null"><g transform="matrix(.94087 0 0 .86186 122.065 -9.467)"><title>background</title><path fill="none" d="M172.294 5.81h58.094v68.362h-58.094z"/></g><g transform="matrix(.94087 0 0 .86186 122.065 -9.467)"><title>Layer 1</title><path fill="#a88600" stroke-width="2.9832660000000004" d="M186.144 38.18s.01 3.25.01 4.415c0 9.08 7.36 16.484 16.44 16.484 9.082 0 16.485-7.405 16.485-16.485 0-1.163-.035-4.518-.035-4.518l-32.9.103z"/><path fill="#ffd948" stroke-width="2.9832660000000004" d="M217.596 39.414c0 8.275-6.707 14.983-14.982 14.983-8.274 0-14.982-6.708-14.982-14.983 0-8.274 6.708-14.982 14.982-14.982 8.275 0 14.982 6.708 14.982 14.982z" stroke="#cda400"/><path fill="#fc0" d="M191.28 38.812c-.01.2-.042.39-.042.593 0 6.29 5.068 11.4 11.357 11.4 6.288 0 11.4-5.11 11.4-11.4 0-.204-.033-.392-.044-.593h-22.67z" stroke-width="1.35603"/></g></g><g stroke="null"><g transform="matrix(.94087 0 0 .86186 122.065 -9.467)"><title>background</title><path fill="none" d="M207.368 5.81h58.094v68.362h-58.094z"/></g><g transform="matrix(.94087 0 0 .86186 122.065 -9.467)"><title>Layer 1</title><path fill="#a88600" stroke-width="2.9832660000000004" d="M221.218 38.18s.01 3.25.01 4.415c0 9.08 7.36 16.484 16.44 16.484 9.082 0 16.485-7.405 16.485-16.485 0-1.163-.034-4.518-.034-4.518l-32.902.103z"/><path fill="#ffd948" stroke-width="2.9832660000000004" d="M252.67 39.414c0 8.275-6.707 14.983-14.982 14.983-8.274 0-14.982-6.708-14.982-14.983 0-8.274 6.708-14.982 14.982-14.982 8.275 0 14.982 6.708 14.982 14.982z" stroke="#cda400"/><path fill="#fc0" d="M226.354 38.812c-.01.2-.042.39-.042.593 0 6.29 5.068 11.4 11.357 11.4 6.287 0 11.398-5.11 11.398-11.4 0-.204-.032-.392-.043-.593h-22.67z" stroke-width="1.35603"/></g></g><g stroke="null"><g transform="matrix(.94087 0 0 .86186 122.065 -9.467)"><title>background</title><path fill="none" d="M172.294 84.71h58.094v68.362h-58.094z"/></g><g transform="matrix(.94087 0 0 .86186 122.065 -9.467)"><title>Layer 1</title><path fill="#a88600" stroke-width="2.9832660000000004" d="M186.144 117.08s.01 3.25.01 4.415c0 9.08 7.36 16.484 16.44 16.484 9.082 0 16.485-7.405 16.485-16.485 0-1.164-.035-4.518-.035-4.518l-32.9.103z"/><path fill="#ffd948" stroke-width="2.9832660000000004" d="M217.596 118.314c0 8.274-6.707 14.982-14.982 14.982-8.274 0-14.982-6.708-14.982-14.982s6.708-14.982 14.982-14.982c8.275 0 14.982 6.708 14.982 14.982z" stroke="#cda400"/><path fill="#fc0" d="M191.28 117.712c-.01.2-.042.39-.042.593 0 6.288 5.068 11.4 11.357 11.4 6.288 0 11.4-5.112 11.4-11.4 0-.204-.033-.392-.044-.593h-22.67z" stroke-width="1.35603"/></g></g><g stroke="null"><g transform="matrix(.94087 0 0 .86186 122.065 -9.467)"><title>background</title><path fill="none" d="M209.494 84.71h58.094v68.362h-58.094z"/></g><g transform="matrix(.94087 0 0 .86186 122.065 -9.467)"><title>Layer 1</title><path fill="#a88600" stroke-width="2.9832660000000004" d="M223.343 117.08s.01 3.25.01 4.414c0 9.08 7.36 16.485 16.442 16.485 9.08 0 16.484-7.405 16.484-16.486 0-1.163-.036-4.517-.036-4.517l-32.9.103z"/><path fill="#ffd948" stroke-width="2.9832660000000004" d="M254.796 118.314c0 8.274-6.708 14.982-14.982 14.982-8.275 0-14.982-6.708-14.982-14.982s6.707-14.982 14.982-14.982c8.274 0 14.982 6.708 14.982 14.982z" stroke="#cda400"/><path fill="#fc0" d="M228.48 117.712c-.01.2-.042.39-.042.593 0 6.288 5.068 11.4 11.356 11.4 6.29 0 11.4-5.112 11.4-11.4 0-.204-.032-.392-.043-.593h-22.67z" stroke-width="1.35603"/></g></g><g stroke="null"><g transform="matrix(.94087 0 0 .86186 122.065 -9.467)"><title>background</title><path fill="none" d="M174.42 162.45h58.094v68.36H174.42z"/></g><g transform="matrix(.94087 0 0 .86186 122.065 -9.467)"><title>Layer 1</title><path fill="#a88600" stroke-width="2.9832660000000004" d="M188.27 194.82s.01 3.25.01 4.414c0 9.08 7.36 16.484 16.44 16.484 9.08 0 16.485-7.404 16.485-16.484 0-1.163-.035-4.518-.035-4.518l-32.9.103z"/><path fill="#ffd948" stroke-width="2.9832660000000004" d="M219.722 196.053c0 8.275-6.708 14.982-14.982 14.982-8.275 0-14.982-6.707-14.982-14.982 0-8.274 6.707-14.982 14.982-14.982 8.274 0 14.982 6.71 14.982 14.983z" stroke="#cda400"/><path fill="#fc0" d="M193.406 195.45c-.01.202-.043.39-.043.594 0 6.29 5.07 11.4 11.357 11.4 6.29 0 11.4-5.11 11.4-11.4 0-.204-.032-.392-.043-.593h-22.67z" stroke-width="1.35603"/></g></g><g stroke="null"><g transform="matrix(.94087 0 0 .86186 122.065 -9.467)"><title>background</title><path fill="none" d="M211.62 161.29h58.094v68.36H211.62z"/></g><g transform="matrix(.94087 0 0 .86186 122.065 -9.467)"><title>Layer 1</title><path fill="#a88600" stroke-width="2.9832660000000004" d="M225.47 193.66s.01 3.25.01 4.414c0 9.08 7.36 16.484 16.44 16.484 9.08 0 16.485-7.404 16.485-16.484 0-1.164-.035-4.518-.035-4.518l-32.9.103z"/><path fill="#ffd948" stroke-width="2.9832660000000004" d="M256.922 194.893c0 8.274-6.708 14.982-14.982 14.982-8.275 0-14.983-6.708-14.983-14.982s6.708-14.982 14.983-14.982c8.274 0 14.982 6.71 14.982 14.983z" stroke="#cda400"/><path fill="#fc0" d="M230.606 194.29c-.01.202-.043.39-.043.594 0 6.288 5.068 11.4 11.357 11.4 6.29 0 11.4-5.112 11.4-11.4 0-.204-.033-.392-.043-.593h-22.67z" stroke-width="1.35603"/></g></g><g stroke="null"><g transform="matrix(.94087 0 0 .86186 122.065 -9.467)"><title>background</title><path fill="none" d="M-99.796 157.808h58.094v68.362h-58.094z"/></g><g transform="matrix(.94087 0 0 .86186 122.065 -9.467)"><title>Layer 1</title><path fill="#a88600" stroke-width="2.9832660000000004" d="M-85.946 190.178s.01 3.25.01 4.415c0 9.08 7.36 16.484 16.44 16.484 9.082 0 16.485-7.404 16.485-16.484 0-1.164-.035-4.518-.035-4.518l-32.9.103z"/><path fill="#ffd948" stroke-width="2.9832660000000004" d="M-54.494 191.412c0 8.275-6.707 14.982-14.982 14.982-8.274 0-14.982-6.707-14.982-14.982 0-8.274 6.708-14.982 14.982-14.982 8.275 0 14.982 6.708 14.982 14.982z" stroke="#cda400"/><path fill="#fc0" d="M-80.81 190.81c-.01.2-.042.39-.042.593 0 6.288 5.068 11.4 11.357 11.4 6.288 0 11.4-5.112 11.4-11.4 0-.204-.033-.392-.044-.593h-22.67z" stroke-width="1.35603"/></g></g><g stroke="null"><g transform="matrix(.94087 0 0 .86186 122.065 -9.467)"><title>background</title><path fill="none" d="M40.5 160.128h58.095v68.362H40.5z"/></g><g transform="matrix(.94087 0 0 .86186 122.065 -9.467)"><title>Layer 1</title><path fill="#a88600" stroke-width="2.9832660000000004" d="M54.35 192.5s.01 3.25.01 4.413c0 9.08 7.36 16.484 16.442 16.484 9.08 0 16.484-7.403 16.484-16.484 0-1.163-.035-4.518-.035-4.518l-32.9.104z"/><path fill="#ffd948" stroke-width="2.9832660000000004" d="M85.803 193.733c0 8.274-6.708 14.982-14.982 14.982s-14.982-6.708-14.982-14.982c0-8.275 6.708-14.982 14.983-14.982s14.983 6.708 14.983 14.983z" stroke="#cda400"/><path fill="#fc0" d="M59.487 193.13c-.01.202-.043.39-.043.593 0 6.29 5.068 11.4 11.357 11.4 6.29 0 11.4-5.11 11.4-11.4 0-.204-.032-.39-.042-.593h-22.67z" stroke-width="1.35603"/></g></g><g stroke="null"><g transform="matrix(.94087 0 0 .86186 122.065 -9.467)"><title>background</title><path fill="none" d="M60.695 44.1h58.094v68.362H60.694z"/></g><g transform="matrix(.94087 0 0 .86186 122.065 -9.467)"><title>Layer 1</title><path fill="#a88600" stroke-width="2.9832660000000004" d="M74.544 76.47s.01 3.25.01 4.414c0 9.08 7.36 16.485 16.442 16.485 9.08 0 16.484-7.405 16.484-16.486 0-1.163-.035-4.517-.035-4.517l-32.9.103z"/><path fill="#ffd948" stroke-width="2.9832660000000004" d="M105.997 77.704c0 8.274-6.708 14.982-14.982 14.982-8.275 0-14.982-6.708-14.982-14.982s6.707-14.982 14.982-14.982c8.274 0 14.982 6.708 14.982 14.982z" stroke="#cda400"/><path fill="#fc0" d="M79.68 77.1c-.01.203-.042.39-.042.595 0 6.288 5.07 11.4 11.357 11.4 6.29 0 11.4-5.112 11.4-11.4 0-.204-.032-.392-.043-.594h-22.67z" stroke-width="1.35603"/></g></g><g stroke="null"><g transform="matrix(.94087 0 0 .86186 122.065 -9.467)"><title>background</title><path fill="none" d="M63.883 6.97h58.094v68.362H63.883z"/></g><g transform="matrix(.94087 0 0 .86186 122.065 -9.467)"><title>Layer 1</title><path fill="#a88600" stroke-width="2.9832660000000004" d="M77.733 39.34s.01 3.252.01 4.415c0 9.08 7.36 16.484 16.44 16.484 9.082 0 16.485-7.404 16.485-16.485 0-1.163-.034-4.518-.034-4.518l-32.9.104z"/><path fill="#ffd948" stroke-width="2.9832660000000004" d="M109.185 40.575c0 8.274-6.707 14.982-14.982 14.982-8.274 0-14.982-6.708-14.982-14.982 0-8.275 6.71-14.982 14.983-14.982 8.275 0 14.982 6.707 14.982 14.982z" stroke="#cda400"/><path fill="#fc0" d="M82.87 39.972c-.012.202-.043.39-.043.593 0 6.29 5.068 11.4 11.357 11.4 6.288 0 11.4-5.11 11.4-11.4 0-.204-.033-.39-.043-.593H82.87z" stroke-width="1.35603"/></g></g><g stroke="null"><g transform="matrix(.94087 0 0 .86186 122.065 -9.467)"><title>background</title><path fill="none" d="M243.505 4.65H301.6v68.362h-58.095z"/></g><g transform="matrix(.94087 0 0 .86186 122.065 -9.467)"><title>Layer 1</title><path fill="#a88600" stroke-width="2.9832660000000004" d="M257.355 37.02s.01 3.25.01 4.415c0 9.08 7.36 16.484 16.44 16.484 9.082 0 16.485-7.405 16.485-16.485 0-1.164-.034-4.518-.034-4.518l-32.9.103z"/><path fill="#ffd948" stroke-width="2.9832660000000004" d="M288.807 38.254c0 8.275-6.707 14.982-14.982 14.982-8.274 0-14.982-6.707-14.982-14.982 0-8.274 6.708-14.982 14.982-14.982 8.275 0 14.982 6.708 14.982 14.982z" stroke="#cda400"/><path fill="#fc0" d="M262.49 37.652c-.01.2-.04.39-.04.593 0 6.288 5.067 11.4 11.356 11.4 6.288 0 11.4-5.112 11.4-11.4 0-.204-.033-.392-.044-.593h-22.67z" stroke-width="1.35603"/></g></g><g stroke="null"><g transform="matrix(.94087 0 0 .86186 122.065 -9.467)"><title>background</title><path fill="none" d="M246.694 84.71h58.094v68.362h-58.094z"/></g><g transform="matrix(.94087 0 0 .86186 122.065 -9.467)"><title>Layer 1</title><path fill="#a88600" stroke-width="2.9832660000000004" d="M260.543 117.08s.01 3.25.01 4.415c0 9.08 7.36 16.484 16.442 16.484 9.08 0 16.484-7.405 16.484-16.485 0-1.164-.036-4.518-.036-4.518l-32.9.103z"/><path fill="#ffd948" stroke-width="2.9832660000000004" d="M291.996 118.314c0 8.274-6.708 14.982-14.982 14.982-8.275 0-14.982-6.708-14.982-14.982s6.707-14.982 14.982-14.982c8.274 0 14.982 6.708 14.982 14.982z" stroke="#cda400"/><path fill="#fc0" d="M265.68 117.712c-.01.2-.043.39-.043.593 0 6.288 5.07 11.4 11.357 11.4 6.29 0 11.4-5.112 11.4-11.4 0-.204-.033-.392-.043-.593h-22.67z" stroke-width="1.35603"/></g></g><g stroke="null"><g transform="matrix(.94087 0 0 .86186 122.065 -9.467)"><title>background</title><path fill="none" d="M249.882 160.128h58.094v68.362h-58.094z"/></g><g transform="matrix(.94087 0 0 .86186 122.065 -9.467)"><title>Layer 1</title><path fill="#a88600" stroke-width="2.9832660000000004" d="M263.732 192.5s.01 3.25.01 4.413c0 9.08 7.36 16.484 16.44 16.484 9.082 0 16.485-7.403 16.485-16.484 0-1.163-.034-4.518-.034-4.518l-32.9.104z"/><path fill="#ffd948" stroke-width="2.9832660000000004" d="M295.184 193.733c0 8.274-6.707 14.982-14.982 14.982-8.274 0-14.982-6.708-14.982-14.982 0-8.275 6.708-14.982 14.982-14.982 8.275 0 14.982 6.708 14.982 14.983z" stroke="#cda400"/><path fill="#fc0" d="M268.868 193.13c-.01.202-.042.39-.042.593 0 6.29 5.068 11.4 11.357 11.4 6.288 0 11.4-5.11 11.4-11.4 0-.204-.033-.39-.044-.593h-22.672z" stroke-width="1.35603"/></g></g><g stroke="null"><g transform="matrix(.94087 0 0 .86186 122.065 -9.467)"><title>background</title><path fill="none" d="M329.596 3.49h58.094v68.362h-58.094z"/></g><g transform="matrix(.94087 0 0 .86186 122.065 -9.467)"><title>Layer 1</title><path fill="#a88600" stroke-width="2.9832660000000004" d="M343.446 35.86s.01 3.25.01 4.414c0 9.08 7.36 16.485 16.44 16.485 9.082 0 16.485-7.405 16.485-16.486 0-1.163-.033-4.518-.033-4.518l-32.9.104z"/><path fill="#ffd948" stroke-width="2.9832660000000004" d="M374.898 37.094c0 8.274-6.708 14.982-14.982 14.982s-14.982-6.708-14.982-14.982c0-8.275 6.708-14.982 14.982-14.982s14.982 6.707 14.982 14.982z" stroke="#cda400"/><path fill="#fc0" d="M348.582 36.49c-.01.203-.042.39-.042.595 0 6.288 5.068 11.4 11.356 11.4 6.29 0 11.4-5.112 11.4-11.4 0-.204-.032-.392-.043-.594h-22.67z" stroke-width="1.35603"/></g></g><g stroke="null"><g transform="matrix(.94087 0 0 .86186 122.065 -9.467)"><title>background</title><path fill="none" d="M329.596 44.1h58.094v68.362h-58.094z"/></g><g transform="matrix(.94087 0 0 .86186 122.065 -9.467)"><title>Layer 1</title><path fill="#a88600" stroke-width="2.9832660000000004" d="M343.446 76.47s.01 3.25.01 4.414c0 9.08 7.36 16.485 16.44 16.485 9.08 0 16.485-7.405 16.485-16.486 0-1.163-.033-4.518-.033-4.518l-32.9.104z"/><path fill="#ffd948" stroke-width="2.9832660000000004" d="M374.898 77.704c0 8.274-6.708 14.982-14.982 14.982s-14.982-6.708-14.982-14.982 6.708-14.982 14.982-14.982 14.982 6.708 14.982 14.982z" stroke="#cda400"/><path fill="#fc0" d="M348.582 77.1c-.01.203-.042.39-.042.595 0 6.288 5.068 11.4 11.356 11.4 6.29 0 11.4-5.112 11.4-11.4 0-.204-.032-.392-.043-.594h-22.67z" stroke-width="1.35603"/></g></g><g stroke="null"><g transform="matrix(.94087 0 0 .86186 122.065 -9.467)"><title>background</title><path fill="none" d="M329.596 87.03h58.094v68.362h-58.094z"/></g><g transform="matrix(.94087 0 0 .86186 122.065 -9.467)"><title>Layer 1</title><path fill="#a88600" stroke-width="2.9832660000000004" d="M343.446 119.4s.01 3.252.01 4.415c0 9.08 7.36 16.484 16.44 16.484 9.082 0 16.485-7.404 16.485-16.485 0-1.163-.033-4.518-.033-4.518l-32.9.104z"/><path fill="#ffd948" stroke-width="2.9832660000000004" d="M374.898 120.635c0 8.274-6.708 14.982-14.982 14.982s-14.982-6.708-14.982-14.982c0-8.275 6.708-14.983 14.982-14.983s14.982 6.708 14.982 14.983z" stroke="#cda400"/><path fill="#fc0" d="M348.582 120.032c-.01.202-.042.39-.042.593 0 6.29 5.068 11.4 11.356 11.4 6.29 0 11.4-5.11 11.4-11.4 0-.204-.032-.39-.043-.593h-22.67z" stroke-width="1.35603"/></g></g><g stroke="null"><g transform="matrix(.94087 0 0 .86186 122.065 -9.467)"><title>background</title><path fill="none" d="M330.66 128.8h58.093v68.363H330.66z"/></g><g transform="matrix(.94087 0 0 .86186 122.065 -9.467)"><title>Layer 1</title><path fill="#a88600" stroke-width="2.9832660000000004" d="M344.508 161.17s.01 3.252.01 4.415c0 9.08 7.36 16.485 16.442 16.485 9.08 0 16.484-7.404 16.484-16.485 0-1.163-.035-4.517-.035-4.517l-32.902.103z"/><path fill="#ffd948" stroke-width="2.9832660000000004" d="M375.96 162.405c0 8.274-6.707 14.982-14.98 14.982-8.276 0-14.983-6.708-14.983-14.982s6.707-14.982 14.982-14.982c8.273 0 14.98 6.708 14.98 14.982z" stroke="#cda400"/><path fill="#fc0" d="M349.645 161.802c-.01.202-.042.39-.042.594 0 6.288 5.068 11.4 11.356 11.4s11.398-5.112 11.398-11.4c0-.204-.03-.392-.042-.594h-22.67z" stroke-width="1.35603"/></g></g><g stroke="null"><g transform="matrix(.94087 0 0 .86186 122.065 -9.467)"><title>background</title><path fill="none" d="M330.66 169.41h58.093v68.363H330.66z"/></g><g transform="matrix(.94087 0 0 .86186 122.065 -9.467)"><title>Layer 1</title><path fill="#a88600" stroke-width="2.9832660000000004" d="M344.508 201.78s.01 3.252.01 4.416c0 9.08 7.36 16.484 16.442 16.484 9.08 0 16.484-7.404 16.484-16.484 0-1.164-.035-4.518-.035-4.518l-32.902.103z"/><path fill="#ffd948" stroke-width="2.9832660000000004" d="M375.96 203.015c0 8.274-6.707 14.982-14.98 14.982-8.276 0-14.983-6.708-14.983-14.982s6.707-14.982 14.982-14.982c8.273 0 14.98 6.708 14.98 14.982z" stroke="#cda400"/><path fill="#fc0" d="M349.645 202.413c-.01.2-.042.39-.042.593 0 6.288 5.068 11.4 11.356 11.4s11.398-5.112 11.398-11.4c0-.204-.03-.392-.042-.593h-22.67z" stroke-width="1.35603"/></g></g><g stroke="null"><g transform="matrix(.94087 0 0 .86186 122.065 -9.467)"><title>background</title><path fill="none" d="M366.796 2.33h58.094v68.36h-58.094z"/></g><g transform="matrix(.94087 0 0 .86186 122.065 -9.467)"><title>Layer 1</title><path fill="#a88600" stroke-width="2.9832660000000004" d="M380.645 34.7s.01 3.25.01 4.414c0 9.08 7.36 16.484 16.442 16.484 9.08 0 16.484-7.403 16.484-16.484 0-1.163-.034-4.518-.034-4.518l-32.9.104z"/><path fill="#ffd948" stroke-width="2.9832660000000004" d="M412.098 35.934c0 8.274-6.708 14.982-14.982 14.982-8.275 0-14.982-6.708-14.982-14.982 0-8.275 6.707-14.983 14.982-14.983 8.274 0 14.982 6.71 14.982 14.984z" stroke="#cda400"/><path fill="#fc0" d="M385.782 35.33c-.01.202-.042.39-.042.594 0 6.29 5.068 11.4 11.356 11.4 6.29 0 11.4-5.11 11.4-11.4 0-.204-.032-.392-.043-.593h-22.67z" stroke-width="1.35603"/></g></g><g stroke="null"><g transform="matrix(.94087 0 0 .86186 122.065 -9.467)"><title>background</title><path fill="none" d="M403.996 6.97h58.094v68.362h-58.094z"/></g><g transform="matrix(.94087 0 0 .86186 122.065 -9.467)"><title>Layer 1</title><path fill="#a88600" stroke-width="2.9832660000000004" d="M417.845 39.34s.01 3.252.01 4.415c0 9.08 7.36 16.484 16.442 16.484 9.08 0 16.484-7.404 16.484-16.485 0-1.163-.034-4.518-.034-4.518l-32.9.104z"/><path fill="#ffd948" stroke-width="2.9832660000000004" d="M449.298 40.575c0 8.274-6.708 14.982-14.982 14.982-8.275 0-14.983-6.708-14.983-14.982 0-8.275 6.708-14.982 14.983-14.982 8.274 0 14.982 6.707 14.982 14.982z" stroke="#cda400"/><path fill="#fc0" d="M422.982 39.972c-.01.202-.043.39-.043.593 0 6.29 5.067 11.4 11.356 11.4 6.29 0 11.4-5.11 11.4-11.4 0-.204-.033-.39-.043-.593h-22.67z" stroke-width="1.35603"/></g></g><g stroke="null"><g transform="matrix(.94087 0 0 .86186 122.065 -9.467)"><title>background</title><path fill="none" d="M433.755 29.016h58.094v68.362h-58.095z"/></g><g transform="matrix(.94087 0 0 .86186 122.065 -9.467)"><title>Layer 1</title><path fill="#a88600" stroke-width="2.9832660000000004" d="M447.605 61.386s.01 3.25.01 4.415c0 9.08 7.36 16.485 16.44 16.485 9.082 0 16.486-7.404 16.486-16.484 0-1.163-.034-4.517-.034-4.517l-32.9.103z"/><path fill="#ffd948" stroke-width="2.9832660000000004" d="M479.058 62.62c0 8.275-6.708 14.982-14.983 14.982-8.274 0-14.982-6.707-14.982-14.982 0-8.274 6.708-14.982 14.982-14.982 8.275 0 14.983 6.708 14.983 14.982z" stroke="#cda400"/><path fill="#fc0" d="M452.74 62.018c-.01.2-.04.39-.04.593 0 6.29 5.067 11.4 11.356 11.4 6.288 0 11.4-5.11 11.4-11.4 0-.203-.033-.39-.043-.592H452.74z" stroke-width="1.35603"/></g></g><g stroke="null"><g transform="matrix(.94087 0 0 .86186 122.065 -9.467)"><title>background</title><path fill="none" d="M433.755 66.145h58.094v68.362h-58.095z"/></g><g transform="matrix(.94087 0 0 .86186 122.065 -9.467)"><title>Layer 1</title><path fill="#a88600" stroke-width="2.9832660000000004" d="M447.605 98.515s.01 3.25.01 4.415c0 9.08 7.36 16.484 16.44 16.484 9.082 0 16.486-7.404 16.486-16.484 0-1.163-.034-4.518-.034-4.518l-32.9.103z"/><path fill="#ffd948" stroke-width="2.9832660000000004" d="M479.058 99.75c0 8.274-6.708 14.982-14.983 14.982-8.274 0-14.982-6.708-14.982-14.983s6.708-14.983 14.982-14.983c8.275 0 14.983 6.708 14.983 14.982z" stroke="#cda400"/><path fill="#fc0" d="M452.74 99.147c-.01.2-.04.39-.04.593 0 6.29 5.067 11.4 11.356 11.4 6.288 0 11.4-5.11 11.4-11.4 0-.204-.033-.392-.043-.593H452.74z" stroke-width="1.35603"/></g></g><g stroke="null"><g transform="matrix(.94087 0 0 .86186 122.065 -9.467)"><title>background</title><path fill="none" d="M401.87 87.03h58.094v68.362H401.87z"/></g><g transform="matrix(.94087 0 0 .86186 122.065 -9.467)"><title>Layer 1</title><path fill="#a88600" stroke-width="2.9832660000000004" d="M415.72 119.4s.01 3.252.01 4.415c0 9.08 7.36 16.484 16.44 16.484 9.08 0 16.485-7.404 16.485-16.485 0-1.163-.034-4.518-.034-4.518l-32.9.104z"/><path fill="#ffd948" stroke-width="2.9832660000000004" d="M447.172 120.635c0 8.274-6.708 14.982-14.982 14.982s-14.982-6.708-14.982-14.982c0-8.275 6.708-14.983 14.982-14.983s14.982 6.708 14.982 14.983z" stroke="#cda400"/><path fill="#fc0" d="M420.856 120.032c-.01.202-.042.39-.042.593 0 6.29 5.068 11.4 11.356 11.4 6.29 0 11.4-5.11 11.4-11.4 0-.204-.032-.39-.043-.593h-22.67z" stroke-width="1.35603"/></g></g><g stroke="null"><g transform="matrix(.94087 0 0 .86186 122.065 -9.467)"><title>background</title><path fill="none" d="M365.733 87.03h58.094v68.362h-58.094z"/></g><g transform="matrix(.94087 0 0 .86186 122.065 -9.467)"><title>Layer 1</title><path fill="#a88600" stroke-width="2.9832660000000004" d="M379.583 119.4s.01 3.252.01 4.415c0 9.08 7.36 16.484 16.44 16.484 9.08 0 16.485-7.404 16.485-16.485 0-1.163-.034-4.518-.034-4.518l-32.9.104z"/><path fill="#ffd948" stroke-width="2.9832660000000004" d="M411.035 120.635c0 8.274-6.708 14.982-14.982 14.982s-14.982-6.708-14.982-14.982c0-8.275 6.71-14.983 14.983-14.983 8.274 0 14.982 6.708 14.982 14.983z" stroke="#cda400"/><path fill="#fc0" d="M384.72 120.032c-.012.202-.043.39-.043.593 0 6.29 5.068 11.4 11.356 11.4 6.29 0 11.4-5.11 11.4-11.4 0-.204-.032-.39-.043-.593h-22.67z" stroke-width="1.35603"/></g></g><g stroke="null"><g transform="matrix(.94087 0 0 .86186 122.065 -9.467)"><title>background</title><path fill="none" d="M431.63 113.717h58.094v68.362H431.63z"/></g><g transform="matrix(.94087 0 0 .86186 122.065 -9.467)"><title>Layer 1</title><path fill="#a88600" stroke-width="2.9832660000000004" d="M445.48 146.087s.01 3.25.01 4.415c0 9.08 7.36 16.484 16.44 16.484 9.08 0 16.485-7.404 16.485-16.484 0-1.163-.035-4.518-.035-4.518l-32.9.103z"/><path fill="#ffd948" stroke-width="2.9832660000000004" d="M476.932 147.32c0 8.276-6.708 14.983-14.982 14.983-8.275 0-14.982-6.707-14.982-14.982 0-8.273 6.707-14.98 14.982-14.98 8.274 0 14.982 6.707 14.982 14.98z" stroke="#cda400"/><path fill="#fc0" d="M450.616 146.72c-.01.2-.043.388-.043.592 0 6.29 5.07 11.4 11.357 11.4 6.29 0 11.4-5.11 11.4-11.4 0-.204-.032-.392-.043-.593h-22.67z" stroke-width="1.35603"/></g></g><g stroke="null"><g transform="matrix(.94087 0 0 .86186 122.065 -9.467)"><title>background</title><path fill="none" d="M366.796 169.41h58.094v68.363h-58.094z"/></g><g transform="matrix(.94087 0 0 .86186 122.065 -9.467)"><title>Layer 1</title><path fill="#a88600" stroke-width="2.9832660000000004" d="M380.645 201.78s.01 3.252.01 4.416c0 9.08 7.36 16.484 16.442 16.484 9.08 0 16.484-7.404 16.484-16.484 0-1.164-.034-4.518-.034-4.518l-32.9.103z"/><path fill="#ffd948" stroke-width="2.9832660000000004" d="M412.098 203.015c0 8.274-6.708 14.982-14.982 14.982-8.275 0-14.982-6.708-14.982-14.982s6.707-14.982 14.982-14.982c8.274 0 14.982 6.708 14.982 14.982z" stroke="#cda400"/><path fill="#fc0" d="M385.782 202.413c-.01.2-.042.39-.042.593 0 6.288 5.068 11.4 11.356 11.4 6.29 0 11.4-5.112 11.4-11.4 0-.204-.032-.392-.043-.593h-22.67z" stroke-width="1.35603"/></g></g><g stroke="null"><g transform="matrix(.94087 0 0 .86186 122.065 -9.467)"><title>background</title><path fill="none" d="M401.87 165.93h58.094v68.362H401.87z"/></g><g transform="matrix(.94087 0 0 .86186 122.065 -9.467)"><title>Layer 1</title><path fill="#a88600" stroke-width="2.9832660000000004" d="M415.72 198.3s.01 3.25.01 4.415c0 9.08 7.36 16.484 16.44 16.484 9.08 0 16.485-7.405 16.485-16.485 0-1.164-.035-4.518-.035-4.518l-32.9.103z"/><path fill="#ffd948" stroke-width="2.9832660000000004" d="M447.172 199.534c0 8.275-6.708 14.982-14.982 14.982-8.275 0-14.982-6.707-14.982-14.982 0-8.274 6.707-14.982 14.982-14.982 8.274 0 14.982 6.708 14.982 14.982z" stroke="#cda400"/><path fill="#fc0" d="M420.856 198.932c-.01.2-.042.39-.042.593 0 6.288 5.068 11.4 11.356 11.4 6.29 0 11.4-5.112 11.4-11.4 0-.204-.032-.392-.043-.593h-22.67z" stroke-width="1.35603"/></g></g><g stroke="null"><g transform="matrix(.94087 0 0 .86186 122.065 -9.467)"><title>background</title><path fill="none" d="M433.755 150.846h58.094v68.362h-58.095z"/></g><g transform="matrix(.94087 0 0 .86186 122.065 -9.467)"><title>Layer 1</title><path fill="#a88600" stroke-width="2.9832660000000004" d="M447.605 183.216s.01 3.25.01 4.415c0 9.08 7.36 16.485 16.44 16.485 9.082 0 16.486-7.404 16.486-16.484 0-1.162-.034-4.517-.034-4.517l-32.9.103z"/><path fill="#ffd948" stroke-width="2.9832660000000004" d="M479.058 184.45c0 8.275-6.708 14.983-14.983 14.983-8.274 0-14.982-6.708-14.982-14.983 0-8.274 6.708-14.982 14.982-14.982 8.275 0 14.983 6.708 14.983 14.982z" stroke="#cda400"/><path fill="#fc0" d="M452.74 183.848c-.01.2-.04.39-.04.593 0 6.29 5.067 11.4 11.356 11.4 6.288 0 11.4-5.11 11.4-11.4 0-.203-.033-.39-.043-.592H452.74z" stroke-width="1.35603"/></g></g></g></svg>