<svg width="252.09449" height="171.3622" xmlns="http://www.w3.org/2000/svg" xmlns:xlink="http://www.w3.org/1999/xlink">
 <defs>
  <mask id="mask5350" maskUnits="userSpaceOnUse">
   <rect fill="url(#linearGradient5354)" fill-rule="nonzero" stroke-width="12" stroke-linecap="square" stroke-miterlimit="4" id="rect5352" width="1436" height="1028" x="-1052" y="428.362213"/>
  </mask>
  <linearGradient id="linearGradient5321">
   <stop stop-color="#000000" id="stop5323" offset="0"/>
   <stop stop-color="#ffffff" id="stop5325" offset="1"/>
  </linearGradient>
  <linearGradient id="linearGradient4840">
   <stop stop-color="#ffe370" id="stop4842" offset="0"/>
   <stop stop-color="#ffcc00" id="stop4844" offset="1"/>
  </linearGradient>
  <linearGradient id="linearGradient4830">
   <stop stop-color="#ff7000" id="stop4832" offset="0"/>
   <stop stop-color="#ffac00" offset="0.501854" id="stop4838"/>
   <stop stop-color="#ff7000" id="stop4834" offset="1"/>
  </linearGradient>
  <linearGradient id="linearGradient4822">
   <stop stop-color="#ffcc00" id="stop4824" offset="0"/>
   <stop stop-color="#ffffff" id="stop4826" offset="1"/>
  </linearGradient>
  <linearGradient id="linearGradient4806">
   <stop stop-color="#ffcc00" id="stop4808" offset="0"/>
   <stop stop-color="#ff7000" offset="0.141818" id="stop4820"/>
   <stop stop-color="#ffd739" offset="0.342296" id="stop4818"/>
   <stop stop-color="#fecb00" offset="0.662022" id="stop4816"/>
   <stop stop-color="#ff7000" offset="0.875334" id="stop4814"/>
   <stop stop-color="#ffcc00" id="stop4810" offset="1"/>
  </linearGradient>
  <linearGradient y2="5.492345" x2="-0.793188" y1="5.492345" x1="-5.016097" id="linearGradient4812" xlink:href="#linearGradient4806"/>
  <linearGradient y2="5.60348" x2="-2.913059" y1="1.072104" x1="-2.913059" id="linearGradient4828" xlink:href="#linearGradient4822"/>
  <linearGradient y2="3.563004" x2="-0.860733" y1="3.563004" x1="-5.127057" id="linearGradient4836" xlink:href="#linearGradient4830"/>
  <linearGradient y2="6.594621" x2="-3.341826" y1="1.969157" x1="-3.341826" id="linearGradient4846" xlink:href="#linearGradient4840"/>
  <linearGradient y2="4.263962" x2="-0.449745" y1="4.263962" x1="-4.672655" id="linearGradient4878" xlink:href="#linearGradient4806"/>
  <linearGradient y2="4.375094" x2="-2.569622" y1="-0.15628" x1="-2.569622" id="linearGradient4880" xlink:href="#linearGradient4822"/>
  <linearGradient y2="2.238791" x2="-0.507536" y1="2.238791" x1="-4.773858" id="linearGradient4882" xlink:href="#linearGradient4830"/>
  <linearGradient y2="4.951397" x2="-2.962134" y1="0.325931" x1="-2.962134" id="linearGradient4884" xlink:href="#linearGradient4840"/>
  <linearGradient y2="2.909589" x2="-0.793188" y1="2.909589" x1="-5.016097" id="linearGradient4900" xlink:href="#linearGradient4806"/>
  <linearGradient y2="3.020725" x2="-2.913059" y1="-1.510653" x1="-2.913059" id="linearGradient4902" xlink:href="#linearGradient4822"/>
  <linearGradient y2="0.778759" x2="-0.860733" y1="0.778759" x1="-5.127057" id="linearGradient4904" xlink:href="#linearGradient4830"/>
  <linearGradient y2="3.139634" x2="-3.341825" y1="-1.485831" x1="-3.341825" id="linearGradient4906" xlink:href="#linearGradient4840"/>
  <linearGradient y2="0.009728" x2="0.534819" y1="0.375486" x1="0.534819" id="linearGradient5354" xlink:href="#linearGradient5321"/>
 </defs>
 <metadata id="metadata4154">image/svg+xml</metadata>
 <g class="currentLayer">
  <title>Layer 1</title>
  <g stroke-width="0" id="g5042">
   <path fill="url(#linearGradient4812)" fill-rule="nonzero" stroke-linecap="square" stroke-miterlimit="4" stroke-width="12" d="m116.09158,80.66932c-3.04516,0.00532 -6.08928,0.05597 -9.11848,0.15125c-23.69636,0.74568 -46.19112,4.23294 -62.30666,10.09693c-4.83788,1.76037 -9.16439,3.7147 -12.89624,6.02533l-12.85275,0l0,18.59522l0.00187,0.05127c-0.01404,0.61038 0.00661,1.22291 0.06364,1.83565l0.00187,0.05128l0.00275,0c0.11125,1.15401 0.34943,2.30845 0.73385,3.45025c2.19348,6.51463 7.66405,11.06604 14.16572,14.67011c6.52905,3.61924 14.69045,6.49475 24.16318,8.80552c18.96488,4.62628 43.31086,6.79344 67.0394,6.1408c23.7252,-0.65256 46.3696,-4.05689 62.68755,-9.83623c8.13624,-2.88162 14.86722,-6.28946 19.80995,-10.93548c3.5056,-3.29516 6.05435,-7.65996 6.65321,-12.29497l0.1346,0l0,-20.53342l-12.41189,0c-0.57617,-0.36181 -1.16288,-0.71648 -1.76757,-1.0583c-6.13777,-3.46957 -13.74952,-6.03394 -22.34067,-8.29145c-17.28945,-4.54318 -39.4662,-6.963 -61.76325,-6.92376l-0.00008,0z" id="path4731"/>
   <path fill="url(#linearGradient4828)" fill-rule="nonzero" stroke-linecap="square" stroke-miterlimit="4" stroke-width="12" d="m116.09158,62.07411c-3.04516,0.00531 -6.08928,0.05596 -9.11848,0.15124c-23.69636,0.74569 -46.19112,4.23295 -62.30666,10.09694c-8.03343,2.92313 -14.66916,6.37396 -19.4849,11.11947c-4.98316,4.91046 -7.73832,12.12322 -5.46019,18.88952c2.19348,6.51464 7.66405,11.06604 14.16572,14.67011c6.52905,3.61924 14.69045,6.49475 24.16317,8.80552c18.96489,4.62628 43.31086,6.79344 67.03941,6.14081c23.7252,-0.65257 46.36959,-4.0569 62.68755,-9.83624c8.13624,-2.88162 14.86722,-6.28946 19.80994,-10.93547c5.09529,-4.78942 8.17014,-11.83842 6.17253,-18.6926c-0.03156,-0.10864 -0.06523,-0.21662 -0.10118,-0.32404a2.69045,2.53238 0 0 0 -0.00093,-0.00303l-0.23211,-0.69073a2.69045,2.53238 0 0 0 -0.0014,-0.00389c-0.0365,-0.10805 -0.07494,-0.21523 -0.11583,-0.32188l-0.00047,-0.00177c-2.25529,-5.90142 -6.97506,-10.37952 -13.11226,-13.84876c-6.13777,-3.46956 -13.74951,-6.03393 -22.34066,-8.29145c-17.28945,-4.54318 -39.4662,-6.963 -61.76325,-6.92375z" id="path4728"/>
   <path fill="url(#linearGradient4836)" fill-rule="nonzero" stroke-linecap="square" stroke-miterlimit="4" stroke-width="12" d="m116.09661,64.60609c-3.01672,0.00528 -6.03284,0.05557 -9.03378,0.14996c-23.47025,0.73857 -45.76711,4.23008 -61.42631,9.92802c-7.8296,2.84897 -14.10244,6.16366 -18.50979,10.50672c-4.40735,4.34307 -6.75297,10.69621 -4.84078,16.37563c1.91226,5.67942 6.74815,9.80641 12.96628,13.25331c6.21813,3.44689 14.16351,6.2653 23.47281,8.5362c18.6186,4.54181 42.78648,6.70699 66.28586,6.06066c23.49925,-0.64635 45.94832,-4.05412 61.81911,-9.67508c7.93539,-2.81048 14.31799,-6.09128 18.85634,-10.3572c4.53836,-4.26592 7.15741,-10.47279 5.47896,-16.23128a6.69764,6.30414 0 0 0 -0.07279,-0.23312l-0.2321,-0.69074a6.69764,6.30414 0 0 0 -0.08378,-0.23225c-4.00109,-10.47206 -16.69369,-16.10578 -33.64514,-20.56014c-16.95145,-4.45437 -38.94954,-6.86955 -61.03489,-6.83069z" id="path4725"/>
   <path fill="url(#linearGradient4846)" fill-rule="nonzero" stroke-linecap="square" stroke-miterlimit="4" stroke-width="12" id="path4723" d="m204.70734,94.82055a88.39998,26.15955 0 0 1 -79.89203,28.29539a88.39998,26.15955 0 0 1 -96.14534,-23.45367a88.39998,26.15955 0 0 1 78.61671,-28.60649a88.39998,26.15955 0 0 1 97.18815,23.07422"/>
   <path fill="#ff5a00" fill-rule="nonzero" stroke-linecap="square" stroke-miterlimit="4" stroke-width="12" d="m185.54633,80.68397a80.75591,23.89749 0 0 1 11.33286,9.72679l0.21242,0.63084a80.75591,23.89749 0 0 1 -72.98349,25.84862a80.75591,23.89749 0 0 1 -87.83179,-21.42582a80.75591,23.89749 0 0 1 11.12684,-14.61755a88.39998,26.15955 0 0 0 -18.73319,18.81541a88.39998,26.15955 0 0 0 96.14544,23.45366a88.39998,26.15955 0 0 0 79.8917,-28.29529l-0.23211,-0.69074a88.39998,26.15955 0 0 0 -18.92868,-13.44592z" id="path4848"/>
   <path opacity="0.308" fill="#000000" fill-rule="nonzero" stroke-linecap="square" stroke-miterlimit="4" stroke-width="12" d="m116.0915,62.07411c-3.04515,0.00531 -6.08927,0.05596 -9.11847,0.15124c-9.99525,0.31454 -19.77403,1.11889 -28.95314,2.38161c-4.59314,1.13869 -8.88692,2.42141 -12.80148,3.84581c-4.83787,1.76037 -9.16439,3.71469 -12.89624,6.02533l-12.85275,0l0,18.59521l0.00187,0.05128c-0.01404,0.61038 0.00661,1.22291 0.06364,1.83565l0.00187,0.05128l0.00275,0c0.11125,1.15401 0.34943,2.30845 0.73385,3.45024c2.19349,6.51464 7.66405,11.06605 14.16573,14.67012c6.52904,3.61924 14.69045,6.49475 24.16317,8.80552c18.96488,4.62628 43.31086,6.79344 67.0394,6.1408c23.7252,-0.65256 46.3696,-4.0569 62.68755,-9.83623c2.11296,-0.74835 4.12901,-1.53301 6.04572,-2.3648l0,-18.93434l-0.00094,0c0.01256,-1.47897 -0.18138,-2.97376 -0.61437,-4.45942c-0.03156,-0.10864 -0.06523,-0.21662 -0.10117,-0.32404a2.69045,2.53238 0 0 0 -0.00094,-0.00303l-0.2321,-0.69073a2.69045,2.53238 0 0 0 -0.00141,-0.00389c-0.0365,-0.10805 -0.07493,-0.21523 -0.11582,-0.32188l-0.00047,-0.00177c-2.2553,-5.90137 -6.97513,-10.37952 -13.11233,-13.84876c-6.13777,-3.46956 -13.74951,-6.03393 -22.34066,-8.29145c-17.28945,-4.54318 -39.4662,-6.963 -61.76326,-6.92375z" id="path4866"/>
   <path fill="url(#linearGradient4878)" fill-rule="nonzero" stroke-linecap="square" stroke-miterlimit="4" stroke-width="12" id="path4868" d="m136.64352,56.33273c-3.04515,0.00532 -6.08928,0.05597 -9.11847,0.15125c-23.69636,0.74568 -46.19112,4.23294 -62.30666,10.09693c-4.83788,1.76037 -9.16439,3.71469 -12.89624,6.02533l-12.85275,0l0,18.59521l0.00187,0.05128c-0.01404,0.61038 0.00661,1.22291 0.06364,1.83565l0.00187,0.05128l0.00274,0c0.11126,1.15401 0.34943,2.30845 0.73386,3.45024c2.19348,6.51464 7.66405,11.06605 14.16572,14.67012c6.52905,3.61924 14.69045,6.49475 24.16318,8.80552c18.96488,4.62628 43.31085,6.79344 67.0394,6.1408c23.7252,-0.65256 46.3696,-4.0569 62.68755,-9.83623c8.13624,-2.88162 14.86722,-6.28946 19.80995,-10.93548c3.5056,-3.29516 6.05435,-7.65996 6.65321,-12.29497l0.13459,0l0,-20.53342l-12.41188,0c-0.57617,-0.36181 -1.16288,-0.71648 -1.76757,-1.0583c-6.13778,-3.46957 -13.74952,-6.03394 -22.34067,-8.29145c-17.28945,-4.54318 -39.4662,-6.963 -61.76325,-6.92376l-0.00009,0z"/>
   <path fill="url(#linearGradient4880)" fill-rule="nonzero" stroke-linecap="square" stroke-miterlimit="4" stroke-width="12" id="path4870" d="m136.64352,37.73751c-3.04515,0.00532 -6.08928,0.05597 -9.11847,0.15125c-23.69636,0.74568 -46.19112,4.23295 -62.30666,10.09694c-8.03343,2.92313 -14.66916,6.37396 -19.48491,11.11946c-4.98315,4.91047 -7.73831,12.12323 -5.46019,18.88953c2.19349,6.51464 7.66405,11.06604 14.16573,14.67011c6.52904,3.61924 14.69045,6.49475 24.16317,8.80552c18.96489,4.62628 43.31086,6.79344 67.0394,6.14081c23.7252,-0.65257 46.3696,-4.0569 62.68755,-9.83624c8.13624,-2.88162 14.86722,-6.28946 19.80995,-10.93548c5.09529,-4.78941 8.17014,-11.83841 6.17253,-18.6926c-0.03156,-0.10863 -0.06523,-0.21661 -0.10118,-0.32403a2.69045,2.53238 0 0 0 -0.00094,-0.00303l-0.2321,-0.69074a2.69045,2.53238 0 0 0 -0.00141,-0.00388c-0.0365,-0.10805 -0.07493,-0.21524 -0.11582,-0.32188l-0.00047,-0.00177c-2.25529,-5.90142 -6.97506,-10.37952 -13.11226,-13.84876c-6.13777,-3.46957 -13.74952,-6.03394 -22.34067,-8.29145c-17.28944,-4.54318 -39.46619,-6.963 -61.76325,-6.92376z"/>
   <path fill="url(#linearGradient4882)" fill-rule="nonzero" stroke-linecap="square" stroke-miterlimit="4" stroke-width="12" id="path4872" d="m136.64856,40.2695c-3.01672,0.00528 -6.03284,0.05557 -9.03378,0.14996c-23.47025,0.73857 -45.76711,4.23008 -61.42631,9.92802c-7.8296,2.84897 -14.10244,6.16366 -18.50979,10.50672c-4.40735,4.34307 -6.75297,10.69621 -4.84079,16.37563c1.91227,5.67942 6.74816,9.80641 12.96629,13.25331c6.21813,3.44689 14.16351,6.2653 23.47281,8.5362c18.6186,4.54181 42.78648,6.70699 66.28586,6.06066c23.49924,-0.64635 45.94832,-4.05412 61.81911,-9.67508c7.93539,-2.81048 14.31799,-6.09128 18.85634,-10.3572c4.53836,-4.26592 7.15741,-10.47279 5.47896,-16.23128a6.69764,6.30414 0 0 0 -0.07279,-0.23312l-0.23211,-0.69074a6.69764,6.30414 0 0 0 -0.08377,-0.23226c-4.00109,-10.47205 -16.69369,-16.10577 -33.64514,-20.56013c-16.95146,-4.45437 -38.94955,-6.86956 -61.03489,-6.83069z"/>
   <path fill="url(#linearGradient4884)" fill-rule="nonzero" stroke-linecap="square" stroke-miterlimit="4" stroke-width="12" d="m225.25928,70.48395a88.39998,26.15955 0 0 1 -79.89202,28.2954a88.39998,26.15955 0 0 1 -96.14535,-23.45367a88.39998,26.15955 0 0 1 78.61672,-28.60649a88.39998,26.15955 0 0 1 97.18815,23.07422" id="path4874"/>
   <path fill="#ff5a00" fill-rule="nonzero" stroke-linecap="square" stroke-miterlimit="4" stroke-width="12" id="path4876" d="m206.09828,56.34738a80.75591,23.89749 0 0 1 11.33285,9.72679l0.21242,0.63084a80.75591,23.89749 0 0 1 -72.98348,25.84862a80.75591,23.89749 0 0 1 -87.83179,-21.42582a80.75591,23.89749 0 0 1 11.12684,-14.61755a88.39998,26.15955 0 0 0 -18.7332,18.81541a88.39998,26.15955 0 0 0 96.14545,23.45365a88.39998,26.15955 0 0 0 79.8917,-28.29528l-0.23211,-0.69074a88.39998,26.15955 0 0 0 -18.92868,-13.44592z"/>
   <path opacity="0.308" fill="#000000" fill-rule="nonzero" stroke-linecap="square" stroke-miterlimit="4" stroke-width="12" d="m116.0915,62.07411c-3.04515,0.00531 -6.08927,0.05596 -9.11847,0.15124c-23.69636,0.74569 -46.19112,4.23295 -62.30666,10.09694c-7.03652,2.56038 -13.00075,5.52586 -17.60884,9.41136c2.04675,1.69493 4.36352,3.19891 6.82947,4.56586c6.52905,3.61924 14.69045,6.49475 24.16317,8.80551c18.96489,4.62628 43.31086,6.79345 67.0394,6.14081c23.7252,-0.65256 46.3696,-4.0569 62.68756,-9.83624c8.13624,-2.88161 14.86721,-6.28945 19.80994,-10.93547c3.50561,-3.29516 6.05436,-7.65996 6.65322,-12.29497l0.13459,0l0,-0.84414l-0.41843,-2.47339l-14.79566,11.86062c-5.95066,-3.18447 -13.19062,-5.59187 -21.30603,-7.72438c-17.28945,-4.54318 -39.4662,-6.963 -61.76326,-6.92375z" id="path4888"/>
   <path fill="url(#linearGradient4900)" fill-rule="nonzero" stroke-linecap="square" stroke-miterlimit="4" stroke-width="12" d="m116.09158,29.50008c-3.04516,0.00531 -6.08928,0.05596 -9.11848,0.15124c-23.69636,0.74569 -46.19112,4.23295 -62.30666,10.09694c-4.83788,1.76036 -9.16439,3.71469 -12.89624,6.02532l-12.85275,0l0,18.59522l0.00187,0.05128c-0.01404,0.61038 0.00661,1.22291 0.06364,1.83565l0.00187,0.05127l0.00275,0c0.11125,1.15401 0.34943,2.30846 0.73385,3.45025c2.19348,6.51464 7.66405,11.06605 14.16572,14.67012c6.52905,3.61924 14.69045,6.49475 24.16318,8.80551c18.96488,4.62628 43.31086,6.79345 67.0394,6.14081c23.7252,-0.65257 46.3696,-4.0569 62.68755,-9.83624c8.13624,-2.88161 14.86722,-6.28945 19.80995,-10.93547c3.5056,-3.29517 6.05435,-7.65997 6.65321,-12.29498l0.1346,0l0,-20.53342l-12.41189,0c-0.57617,-0.3618 -1.16288,-0.71647 -1.76757,-1.05829c-6.13777,-3.46957 -13.74952,-6.03395 -22.34067,-8.29145c-17.28945,-4.54318 -39.4662,-6.96301 -61.76325,-6.92376l-0.00008,0z" id="path4890"/>
   <path fill="url(#linearGradient4902)" fill-rule="nonzero" stroke-linecap="square" stroke-miterlimit="4" stroke-width="12" d="m116.09158,10.90486c-3.04516,0.00532 -6.08928,0.05597 -9.11848,0.15125c-23.69636,0.74568 -46.19112,4.23294 -62.30666,10.09693c-8.03343,2.92314 -14.66916,6.37397 -19.4849,11.11947c-4.98316,4.91047 -7.73832,12.12323 -5.46019,18.88953c2.19348,6.51463 7.66405,11.06604 14.16572,14.67011c6.52905,3.61924 14.69045,6.49475 24.16317,8.80552c18.96489,4.62628 43.31086,6.79344 67.03941,6.1408c23.7252,-0.65256 46.36959,-4.05689 62.68755,-9.83623c8.13624,-2.88162 14.86722,-6.28946 19.80994,-10.93548c5.09529,-4.78942 8.17014,-11.83842 6.17253,-18.6926c-0.03156,-0.10863 -0.06523,-0.21662 -0.10118,-0.32404a2.69045,2.53238 0 0 0 -0.00093,-0.00302l-0.23211,-0.69074a2.69045,2.53238 0 0 0 -0.0014,-0.00388c-0.0365,-0.10805 -0.07494,-0.21524 -0.11583,-0.32189l-0.00047,-0.00176c-2.25529,-5.90142 -6.97506,-10.37952 -13.11226,-13.84876c-6.13777,-3.46957 -13.74951,-6.03394 -22.34066,-8.29145c-17.28945,-4.54318 -39.4662,-6.963 -61.76325,-6.92376z" id="path4892"/>
   <path fill="url(#linearGradient4904)" fill-rule="nonzero" stroke-linecap="square" stroke-miterlimit="4" stroke-width="12" d="m116.09661,13.43685c-3.01672,0.00527 -6.03284,0.05557 -9.03378,0.14996c-23.47025,0.73857 -45.76711,4.23007 -61.42631,9.92802c-7.8296,2.84897 -14.10244,6.16365 -18.50979,10.50672c-4.40735,4.34306 -6.75297,10.69621 -4.84078,16.37563c1.91226,5.67942 6.74815,9.80641 12.96628,13.25331c6.21813,3.44689 14.16351,6.26529 23.47281,8.5362c18.6186,4.5418 42.78648,6.70699 66.28586,6.06066c23.49925,-0.64636 45.94832,-4.05412 61.81911,-9.67508c7.93539,-2.81049 14.31799,-6.09129 18.85634,-10.3572c4.53836,-4.26592 7.15741,-10.4728 5.47896,-16.23128a6.69764,6.30414 0 0 0 -0.07279,-0.23312l-0.2321,-0.69074a6.69764,6.30414 0 0 0 -0.08378,-0.23226c-4.00109,-10.47205 -16.69369,-16.10577 -33.64514,-20.56013c-16.95145,-4.45437 -38.94954,-6.86956 -61.03489,-6.83069z" id="path4894"/>
   <path fill="url(#linearGradient4906)" fill-rule="nonzero" stroke-linecap="square" stroke-miterlimit="4" stroke-width="12" id="path4896" d="m204.70734,43.6513a88.39998,26.15955 0 0 1 -79.89203,28.2954a88.39998,26.15955 0 0 1 -96.14534,-23.45367a88.39998,26.15955 0 0 1 78.61671,-28.6065a88.39998,26.15955 0 0 1 97.18815,23.07422"/>
   <path fill="#ff5a00" fill-rule="nonzero" stroke-linecap="square" stroke-miterlimit="4" stroke-width="12" d="m185.54633,29.51473a80.75591,23.89749 0 0 1 11.33286,9.72679l0.21242,0.63084a80.75591,23.89749 0 0 1 -72.98349,25.84862a80.75591,23.89749 0 0 1 -87.83179,-21.42583a80.75591,23.89749 0 0 1 11.12684,-14.61754a88.39998,26.15955 0 0 0 -18.73319,18.81541a88.39998,26.15955 0 0 0 96.14544,23.45365a88.39998,26.15955 0 0 0 79.8917,-28.29529l-0.23211,-0.69073a88.39998,26.15955 0 0 0 -18.92868,-13.44592z" id="path4898"/>
  </g>
 </g>
 <g>
  <title>Layer 2</title>
  <rect fill="none" y="0" x="0" height="100%" width="100%" id="backgroundrect"/>
 </g>
 <g>
  <title>background</title>
  <rect fill="none" id="canvas_background" height="173.3622" width="254.09449" y="-1" x="-1"/>
 </g>
</svg>