<svg width="77.09449" height="92.3622" xmlns="http://www.w3.org/2000/svg">

 <metadata id="metadata8400">image/svg+xml</metadata>
 <g>
  <title>background</title>
  <rect fill="none" id="canvas_background" height="94.3622" width="79.09449" y="-1" x="-1"/>
 </g>
 <g>
  <title>Layer 1</title>
  <g transform="matrix(1.3560283,0,0,1.3560283,105.86175,122.92637) " id="g8267">
   <path fill="#808080" fill-rule="nonzero" stroke-width="2.2" d="m-61.401474,-60.152445c0,0 0.007,2.39748 0.007,3.25547c0,6.69643 5.42857,12.15625 12.125,12.15625c6.69643,0 12.15625,-5.45982 12.15625,-12.15625c0,-0.85779 -0.0255,-3.33173 -0.0255,-3.33173l-24.26275,0.07626z" id="path7213-7-2"/>
   <path fill="#dcdcdc" stroke="#9f9f9f" stroke-width="2.2" stroke-miterlimit="4" id="path7204-4-9" d="m-38.206867,-59.242387c0,6.10194 -4.9466,11.04854 -11.04854,11.04854c-6.10195,0 -11.04855,-4.9466 -11.04855,-11.04854c0,-6.10195 4.9466,-11.04855 11.04855,-11.04855c6.10194,0 11.04854,4.9466 11.04854,11.04855z"/>
   <path fill="#bdbdbd" d="m-57.613654,-59.686725c-0.008,0.14853 -0.0312,0.28702 -0.0312,0.4375c0,4.63747 3.73752,8.40625 8.375,8.40625c4.63747,0 8.40625,-3.76878 8.40625,-8.40625c0,-0.15048 -0.0234,-0.28897 -0.0312,-0.4375l-16.71875,0l-0.0001,0z" id="path7206-3-5"/>
  </g>
 </g>
</svg>