<svg width="596" height="191" xmlns="http://www.w3.org/2000/svg">
 <!-- Created with Method Draw - http://github.com/duopixel/Method-Draw/ -->

 <g>
  <title>background</title>
  <rect x="-1" y="-1" width="598" height="193" id="canvas_background" fill="none"/>
 </g>
 <g>
  <title>Layer 1</title>
  <metadata id="svg_16">image/svg+xml</metadata>
  <g id="svg_20" stroke="null">
   <g id="svg_18" transform="matrix(0.9408657402091183,0,0,0.8618550251289684,122.06486613720391,-9.46670773553989) " stroke="null">
    <title transform="translate(0,-1.1602879762649536) translate(-1.0628509521484375,0) translate(0,-1.1602879762649536) translate(0,-1.1602879762649536) translate(-1.0628509521484375,0) translate(-1.0628509521484375,0) translate(-1.0628509521484375,0) translate(-1.0628509521484375,0) ">background</title>
    <rect fill="none" id="svg_15" height="68.3622" width="58.09449" y="4.6499" x="-133.80696" stroke="null"/>
   </g>
   <g id="svg_19" transform="matrix(0.9408657402091183,0,0,0.8618550251289684,122.06486613720391,-9.46670773553989) " stroke="null">
    <title transform="translate(0,-1.1602879762649536) translate(-1.0628509521484375,0) translate(0,-1.1602879762649536) translate(0,-1.1602879762649536) translate(-1.0628509521484375,0) translate(-1.0628509521484375,0) translate(-1.0628509521484375,0) translate(-1.0628509521484375,0) ">Layer 1</title>
    <g transform="matrix(1.3560283,0,0,1.3560283,104.02935,109.49134) " id="svg_10" stroke="null">
     <g id="svg_11" stroke="null">
      <path fill="#a88600" fill-rule="nonzero" stroke-width="2.2" id="svg_14" d="m-165.178485,-53.443735c0,0 0.007,2.39748 0.007,3.25547c0,6.69643 5.42857,12.15625 12.125,12.15625c6.69643,0 12.15625,-5.45982 12.15625,-12.15625c0,-0.85779 -0.0255,-3.33173 -0.0255,-3.33173l-24.26275,0.07626z" stroke="null"/>
      <path fill="#ffd948" stroke-width="2.2" stroke-miterlimit="4" d="m-141.983885,-52.533675c0,6.10194 -4.94659,11.04854 -11.04854,11.04854c-6.10194,0 -11.04855,-4.9466 -11.04855,-11.04854c0,-6.10195 4.9466,-11.04855 11.04855,-11.04855c6.10195,0 11.04854,4.9466 11.04854,11.04855z" id="svg_13" stroke="#cda400"/>
      <path fill="#ffcc00" id="svg_12" d="m-161.390675,-52.978015c-0.008,0.14853 -0.0312,0.28702 -0.0312,0.4375c0,4.63747 3.73752,8.40625 8.375,8.40625c4.63747,0 8.40625,-3.76878 8.40625,-8.40625c0,-0.15048 -0.0234,-0.28897 -0.0312,-0.4375l-16.71875,0l-0.0001,0z" stroke="null"/>
     </g>
    </g>
   </g>
  </g>
  <g id="svg_31" stroke="null">
   <g id="svg_23" transform="matrix(0.9408657402091183,0,0,0.8618550251289684,122.06486613720391,-9.46670773553989) " stroke="null">
    <title transform="translate(0,-1.1602879762649536) translate(-1.0628509521484375,0) translate(0,-1.1602879762649536) translate(0,-1.1602879762649536) translate(-1.0628509521484375,0) translate(-1.0628509521484375,0) translate(-1.0628509521484375,0) translate(-1.0628509521484375,0) ">background</title>
    <rect fill="none" id="svg_22" height="68.3622" width="58.09449" y="41.779115" x="-125.304153" stroke="null"/>
   </g>
   <g id="svg_30" transform="matrix(0.9408657402091183,0,0,0.8618550251289684,122.06486613720391,-9.46670773553989) " stroke="null">
    <title transform="translate(0,-1.1602879762649536) translate(-1.0628509521484375,0) translate(0,-1.1602879762649536) translate(0,-1.1602879762649536) translate(-1.0628509521484375,0) translate(-1.0628509521484375,0) translate(-1.0628509521484375,0) translate(-1.0628509521484375,0) ">Layer 1</title>
    <g transform="matrix(1.3560283,0,0,1.3560283,104.02935,109.49134) " id="svg_29" stroke="null">
     <g id="svg_28" stroke="null">
      <path fill="#a88600" fill-rule="nonzero" stroke-width="2.2" id="svg_25" d="m-158.908115,-26.062885c0,0 0.007,2.39748 0.007,3.25547c0,6.69643 5.42857,12.15625 12.125,12.15625c6.69643,0 12.15625,-5.45982 12.15625,-12.15625c0,-0.85779 -0.0255,-3.33173 -0.0255,-3.33173l-24.26275,0.07626z" stroke="null"/>
      <path fill="#ffd948" stroke-width="2.2" stroke-miterlimit="4" d="m-135.713505,-25.152825c0,6.10194 -4.9466,11.04854 -11.04854,11.04854c-6.10195,0 -11.04855,-4.9466 -11.04855,-11.04854c0,-6.10195 4.9466,-11.04855 11.04855,-11.04855c6.10194,0 11.04854,4.9466 11.04854,11.04855z" id="svg_26" stroke="#cda400"/>
      <path fill="#ffcc00" id="svg_27" d="m-155.120295,-25.597165c-0.008,0.14853 -0.0312,0.28702 -0.0312,0.4375c0,4.63747 3.73752,8.40625 8.375,8.40625c4.63747,0 8.40625,-3.76878 8.40625,-8.40625c0,-0.15048 -0.0234,-0.28897 -0.0312,-0.4375l-16.71875,0l-0.0001,0z" stroke="null"/>
     </g>
    </g>
   </g>
  </g>
  <g id="svg_42" stroke="null">
   <g id="svg_34" transform="matrix(0.9408657402091183,0,0,0.8618550251289684,122.06486613720391,-9.46670773553989) " stroke="null">
    <title transform="translate(0,-1.1602879762649536) translate(-1.0628509521484375,0) translate(0,-1.1602879762649536) translate(0,-1.1602879762649536) translate(-1.0628509521484375,0) translate(-1.0628509521484375,0) translate(-1.0628509521484375,0) translate(-1.0628509521484375,0) ">background</title>
    <rect fill="none" id="svg_33" height="68.3622" width="58.09449" y="81.228906" x="-116.801346" stroke="null"/>
   </g>
   <g id="svg_41" transform="matrix(0.9408657402091183,0,0,0.8618550251289684,122.06486613720391,-9.46670773553989) " stroke="null">
    <title transform="translate(0,-1.1602879762649536) translate(-1.0628509521484375,0) translate(0,-1.1602879762649536) translate(0,-1.1602879762649536) translate(-1.0628509521484375,0) translate(-1.0628509521484375,0) translate(-1.0628509521484375,0) translate(-1.0628509521484375,0) ">Layer 1</title>
    <g transform="matrix(1.3560283,0,0,1.3560283,104.02935,109.49134) " id="svg_40" stroke="null">
     <g id="svg_39" stroke="null">
      <path fill="#a88600" fill-rule="nonzero" stroke-width="2.2" id="svg_36" d="m-152.637735,3.029275c0,0 0.007,2.39748 0.007,3.25547c0,6.69643 5.42857,12.15625 12.125,12.15625c6.69643,0 12.15625,-5.45982 12.15625,-12.15625c0,-0.85779 -0.0255,-3.33173 -0.0255,-3.33173l-24.26275,0.07626z" stroke="null"/>
      <path fill="#ffd948" stroke-width="2.2" stroke-miterlimit="4" d="m-129.443125,3.939335c0,6.10194 -4.9466,11.04854 -11.04854,11.04854c-6.10195,0 -11.04855,-4.9466 -11.04855,-11.04854c0,-6.10195 4.9466,-11.04855 11.04855,-11.04855c6.10194,0 11.04854,4.9466 11.04854,11.04855z" id="svg_37" stroke="#cda400"/>
      <path fill="#ffcc00" id="svg_38" d="m-148.849915,3.494995c-0.008,0.14853 -0.0312,0.28702 -0.0312,0.4375c0,4.63747 3.73752,8.40625 8.375,8.40625c4.63747,0 8.40625,-3.76878 8.40625,-8.40625c0,-0.15048 -0.0234,-0.28897 -0.0312,-0.4375l-16.71875,0l-0.0001,0z" stroke="null"/>
     </g>
    </g>
   </g>
  </g>
  <g id="svg_53" stroke="null">
   <g id="svg_45" transform="matrix(0.9408657402091183,0,0,0.8618550251289684,122.06486613720391,-9.46670773553989) " stroke="null">
    <title transform="translate(0,-1.1602879762649536) translate(-1.0628509521484375,0) translate(0,-1.1602879762649536) translate(0,-1.1602879762649536) translate(-1.0628509521484375,0) translate(-1.0628509521484375,0) translate(-1.0628509521484375,0) translate(-1.0628509521484375,0) ">background</title>
    <rect fill="none" id="svg_44" height="68.3622" width="58.09449" y="118.358115" x="-109.361389" stroke="null"/>
   </g>
   <g id="svg_52" transform="matrix(0.9408657402091183,0,0,0.8618550251289684,122.06486613720391,-9.46670773553989) " stroke="null">
    <title transform="translate(0,-1.1602879762649536) translate(-1.0628509521484375,0) translate(0,-1.1602879762649536) translate(0,-1.1602879762649536) translate(-1.0628509521484375,0) translate(-1.0628509521484375,0) translate(-1.0628509521484375,0) translate(-1.0628509521484375,0) ">Layer 1</title>
    <g transform="matrix(1.3560283,0,0,1.3560283,104.02935,109.49134) " id="svg_51" stroke="null">
     <g id="svg_50" stroke="null">
      <path fill="#a88600" fill-rule="nonzero" stroke-width="2.2" id="svg_47" d="m-147.151155,30.410125c0,0 0.007,2.39748 0.007,3.25547c0,6.69643 5.42857,12.15625 12.125,12.15625c6.69643,0 12.15625,-5.45982 12.15625,-12.15625c0,-0.85779 -0.0255,-3.33173 -0.0255,-3.33173l-24.26275,0.07626z" stroke="null"/>
      <path fill="#ffd948" stroke-width="2.2" stroke-miterlimit="4" d="m-123.956545,31.320185c0,6.10194 -4.9466,11.04854 -11.04854,11.04854c-6.10195,0 -11.04855,-4.9466 -11.04855,-11.04854c0,-6.10195 4.9466,-11.04855 11.04855,-11.04855c6.10194,0 11.04854,4.9466 11.04854,11.04855z" id="svg_48" stroke="#cda400"/>
      <path fill="#ffcc00" id="svg_49" d="m-143.363335,30.875845c-0.008,0.14853 -0.0312,0.28702 -0.0312,0.4375c0,4.63747 3.73752,8.40625 8.375,8.40625c4.63747,0 8.40625,-3.76878 8.40625,-8.40625c0,-0.15048 -0.0234,-0.28897 -0.0312,-0.4375l-16.71875,0l-0.0001,0z" stroke="null"/>
     </g>
    </g>
   </g>
  </g>
  <g id="svg_64" stroke="null">
   <g id="svg_56" transform="matrix(0.9408657402091183,0,0,0.8618550251289684,122.06486613720391,-9.46670773553989) " stroke="null">
    <title transform="translate(0,-1.1602879762649536) translate(-1.0628509521484375,0) translate(0,-1.1602879762649536) translate(0,-1.1602879762649536) translate(-1.0628509521484375,0) translate(-1.0628509521484375,0) translate(-1.0628509521484375,0) translate(-1.0628509521484375,0) ">background</title>
    <rect fill="none" id="svg_55" height="68.3622" width="58.09449" y="58.023146" x="-27.52187" stroke="null"/>
   </g>
   <g id="svg_63" transform="matrix(0.9408657402091183,0,0,0.8618550251289684,122.06486613720391,-9.46670773553989) " stroke="null">
    <title transform="translate(0,-1.1602879762649536) translate(-1.0628509521484375,0) translate(0,-1.1602879762649536) translate(0,-1.1602879762649536) translate(-1.0628509521484375,0) translate(-1.0628509521484375,0) translate(-1.0628509521484375,0) translate(-1.0628509521484375,0) ">Layer 1</title>
    <g transform="matrix(1.3560283,0,0,1.3560283,104.02935,109.49134) " id="svg_62" stroke="null">
     <g id="svg_61" stroke="null">
      <path fill="#a88600" fill-rule="nonzero" stroke-width="2.2" id="svg_58" d="m-86.798795,-14.083755c0,0 0.00701,2.39748 0.00701,3.25547c0,6.69643 5.42856,12.15625 12.125,12.15625c6.69643,0 12.15625,-5.45982 12.15625,-12.15625c0,-0.85779 -0.02551,-3.33173 -0.02551,-3.33173l-24.26275,0.07626z" stroke="null"/>
      <path fill="#ffd948" stroke-width="2.2" stroke-miterlimit="4" d="m-63.604185,-13.173705c0,6.10194 -4.94659,11.04854 -11.04853,11.04854c-6.10195,0 -11.04856,-4.9466 -11.04856,-11.04854c0,-6.10194 4.94661,-11.04855 11.04856,-11.04855c6.10194,0 11.04854,4.9466 11.04854,11.04855l-0.00001,0z" id="svg_59" stroke="#cda400"/>
      <path fill="#ffcc00" id="svg_60" d="m-83.010965,-13.618045c-0.008,0.14853 -0.0312,0.28702 -0.0312,0.4375c0,4.63747 3.73752,8.40625 8.375,8.40625c4.63747,0 8.40625,-3.76878 8.40625,-8.40625c0,-0.15048 -0.0234,-0.28897 -0.0312,-0.4375l-16.71875,0l-0.0001,0z" stroke="null"/>
     </g>
    </g>
   </g>
  </g>
  <g id="svg_75" stroke="null">
   <g id="svg_67" transform="matrix(0.9408657402091183,0,0,0.8618550251289684,122.06486613720391,-9.46670773553989) " stroke="null">
    <title transform="translate(0,-1.1602879762649536) translate(-1.0628509521484375,0) translate(0,-1.1602879762649536) translate(0,-1.1602879762649536) translate(-1.0628509521484375,0) translate(-1.0628509521484375,0) translate(-1.0628509521484375,0) translate(-1.0628509521484375,0) ">background</title>
    <rect fill="none" id="svg_66" height="68.3622" width="58.09449" y="120.678697" x="-74.287306" stroke="null"/>
   </g>
   <g id="svg_74" transform="matrix(0.9408657402091183,0,0,0.8618550251289684,122.06486613720391,-9.46670773553989) " stroke="null">
    <title transform="translate(0,-1.1602879762649536) translate(-1.0628509521484375,0) translate(0,-1.1602879762649536) translate(0,-1.1602879762649536) translate(-1.0628509521484375,0) translate(-1.0628509521484375,0) translate(-1.0628509521484375,0) translate(-1.0628509521484375,0) ">Layer 1</title>
    <g transform="matrix(1.3560283,0,0,1.3560283,104.02935,109.49134) " id="svg_73" stroke="null">
     <g id="svg_72" stroke="null">
      <path fill="#a88600" fill-rule="nonzero" stroke-width="2.2" id="svg_69" d="m-121.285855,32.121435c0,0 0.007,2.39748 0.007,3.25547c0,6.69643 5.42857,12.15625 12.125,12.15625c6.69643,0 12.15625,-5.45982 12.15625,-12.15625c0,-0.85779 -0.0255,-3.33173 -0.0255,-3.33173l-24.26275,0.07626z" stroke="null"/>
      <path fill="#ffd948" stroke-width="2.2" stroke-miterlimit="4" d="m-98.091245,33.031495c0,6.10194 -4.9466,11.04854 -11.04854,11.04854c-6.10195,0 -11.04855,-4.9466 -11.04855,-11.04854c0,-6.10195 4.9466,-11.04855 11.04855,-11.04855c6.10194,0 11.04854,4.9466 11.04854,11.04855z" id="svg_70" stroke="#cda400"/>
      <path fill="#ffcc00" id="svg_71" d="m-117.498035,32.587155c-0.008,0.14853 -0.0312,0.28702 -0.0312,0.4375c0,4.63747 3.73752,8.40625 8.375,8.40625c4.63747,0 8.40625,-3.76878 8.40625,-8.40625c0,-0.15048 -0.0234,-0.28897 -0.0312,-0.4375l-16.71875,0l-0.0001,0z" stroke="null"/>
     </g>
    </g>
   </g>
  </g>
  <g id="svg_86" stroke="null">
   <g id="svg_78" transform="matrix(0.9408657402091183,0,0,0.8618550251289684,122.06486613720391,-9.46670773553989) " stroke="null">
    <title transform="translate(0,-1.1602879762649536) translate(-1.0628509521484375,0) translate(0,-1.1602879762649536) translate(0,-1.1602879762649536) translate(-1.0628509521484375,0) translate(-1.0628509521484375,0) translate(-1.0628509521484375,0) translate(-1.0628509521484375,0) ">background</title>
    <rect fill="none" id="svg_77" height="68.3622" width="58.09449" y="87.030341" x="-49.841742" stroke="null"/>
   </g>
   <g id="svg_85" transform="matrix(0.9408657402091183,0,0,0.8618550251289684,122.06486613720391,-9.46670773553989) " stroke="null">
    <title transform="translate(0,-1.1602879762649536) translate(-1.0628509521484375,0) translate(0,-1.1602879762649536) translate(0,-1.1602879762649536) translate(-1.0628509521484375,0) translate(-1.0628509521484375,0) translate(-1.0628509521484375,0) translate(-1.0628509521484375,0) ">Layer 1</title>
    <g transform="matrix(1.3560283,0,0,1.3560283,104.02935,109.49134) " id="svg_84" stroke="null">
     <g id="svg_83" stroke="null">
      <path fill="#a88600" fill-rule="nonzero" stroke-width="2.2" id="svg_80" d="m-103.258525,7.307535c0,0 0.007,2.39748 0.007,3.25547c0,6.69643 5.42857,12.15625 12.125,12.15625c6.69643,0 12.15625,-5.45982 12.15625,-12.15625c0,-0.85779 -0.0255,-3.33173 -0.0255,-3.33173l-24.26275,0.07626z" stroke="null"/>
      <path fill="#ffd948" stroke-width="2.2" stroke-miterlimit="4" d="m-80.063915,8.217595c0,6.10194 -4.9466,11.04854 -11.04854,11.04854c-6.10195,0 -11.04855,-4.9466 -11.04855,-11.04854c0,-6.10195 4.9466,-11.04855 11.04855,-11.04855c6.10194,0 11.04854,4.9466 11.04854,11.04855z" id="svg_81" stroke="#cda400"/>
      <path fill="#ffcc00" id="svg_82" d="m-99.470705,7.773255c-0.008,0.14853 -0.0312,0.28702 -0.0312,0.4375c0,4.63747 3.73752,8.40625 8.375,8.40625c4.63747,0 8.40625,-3.76878 8.40625,-8.40625c0,-0.15048 -0.0234,-0.28897 -0.0312,-0.4375l-16.71875,0l-0.0001,0z" stroke="null"/>
     </g>
    </g>
   </g>
  </g>
  <g id="svg_97" stroke="null">
   <g id="svg_89" transform="matrix(0.9408657402091183,0,0,0.8618550251289684,122.06486613720391,-9.46670773553989) " stroke="null">
    <title transform="translate(0,-1.1602879762649536) translate(-1.0628509521484375,0) translate(0,-1.1602879762649536) translate(0,-1.1602879762649536) translate(-1.0628509521484375,0) translate(-1.0628509521484375,0) translate(-1.0628509521484375,0) translate(-1.0628509521484375,0) ">background</title>
    <rect fill="none" id="svg_88" height="68.3622" width="58.09449" y="90.511211" x="-9.453406" stroke="null"/>
   </g>
   <g id="svg_96" transform="matrix(0.9408657402091183,0,0,0.8618550251289684,122.06486613720391,-9.46670773553989) " stroke="null">
    <title transform="translate(0,-1.1602879762649536) translate(-1.0628509521484375,0) translate(0,-1.1602879762649536) translate(0,-1.1602879762649536) translate(-1.0628509521484375,0) translate(-1.0628509521484375,0) translate(-1.0628509521484375,0) translate(-1.0628509521484375,0) ">Layer 1</title>
    <g transform="matrix(1.3560283,0,0,1.3560283,104.02935,109.49134) " id="svg_95" stroke="null">
     <g id="svg_94" stroke="null">
      <path fill="#a88600" fill-rule="nonzero" stroke-width="2.2" id="svg_91" d="m-73.474245,9.874495c0,0 0.00701,2.39748 0.00701,3.25547c0,6.69643 5.42856,12.15625 12.125,12.15625c6.69643,0 12.15625,-5.45982 12.15625,-12.15625c0,-0.85779 -0.0255,-3.33173 -0.0255,-3.33173l-24.26276,0.07626z" stroke="null"/>
      <path fill="#ffd948" stroke-width="2.2" stroke-miterlimit="4" d="m-50.279625,10.784555c0,6.10194 -4.9466,11.04854 -11.04854,11.04854c-6.10195,0 -11.04855,-4.9466 -11.04855,-11.04854c0,-6.10195 4.9466,-11.04855 11.04854,-11.04855c6.10194,0 11.04854,4.9466 11.04854,11.04855l0.00001,0z" id="svg_92" stroke="#cda400"/>
      <path fill="#ffcc00" id="svg_93" d="m-69.686425,10.340215c-0.008,0.14853 -0.0312,0.28702 -0.0312,0.4375c0,4.63747 3.73752,8.40625 8.375,8.40625c4.63747,0 8.40625,-3.76878 8.40625,-8.40625c0,-0.15048 -0.0234,-0.28897 -0.0312,-0.4375l-16.71875,0l-0.0001,0z" stroke="null"/>
     </g>
    </g>
   </g>
  </g>
  <g id="svg_108" stroke="null">
   <g id="svg_100" transform="matrix(0.9408657402091183,0,0,0.8618550251289684,122.06486613720391,-9.46670773553989) " stroke="null">
    <title transform="translate(0,-1.1602879762649536) translate(-1.0628509521484375,0) translate(0,-1.1602879762649536) translate(0,-1.1602879762649536) translate(-1.0628509521484375,0) translate(-1.0628509521484375,0) translate(-1.0628509521484375,0) translate(-1.0628509521484375,0) ">background</title>
    <rect fill="none" id="svg_99" height="68.3622" width="58.09449" y="122.999273" x="12.866462" stroke="null"/>
   </g>
   <g id="svg_107" transform="matrix(0.9408657402091183,0,0,0.8618550251289684,122.06486613720391,-9.46670773553989) " stroke="null">
    <title transform="translate(0,-1.1602879762649536) translate(-1.0628509521484375,0) translate(0,-1.1602879762649536) translate(0,-1.1602879762649536) translate(-1.0628509521484375,0) translate(-1.0628509521484375,0) translate(-1.0628509521484375,0) translate(-1.0628509521484375,0) ">Layer 1</title>
    <g transform="matrix(1.3560283,0,0,1.3560283,104.02935,109.49134) " id="svg_106" stroke="null">
     <g id="svg_105" stroke="null">
      <path fill="#a88600" fill-rule="nonzero" stroke-width="2.2" id="svg_102" d="m-57.014505,33.832735c0,0 0.007,2.39748 0.007,3.25547c0,6.69643 5.42857,12.15625 12.125,12.15625c6.69643,0 12.15625,-5.45982 12.15625,-12.15625c0,-0.85779 -0.0255,-3.33173 -0.0255,-3.33173l-24.26275,0.07626z" stroke="null"/>
      <path fill="#ffd948" stroke-width="2.2" stroke-miterlimit="4" d="m-33.819895,34.742795c0,6.10194 -4.9466,11.04854 -11.04854,11.04854c-6.10195,0 -11.04855,-4.9466 -11.04855,-11.04854c0,-6.10195 4.9466,-11.04855 11.04855,-11.04855c6.10194,0 11.04854,4.9466 11.04854,11.04855z" id="svg_103" stroke="#cda400"/>
      <path fill="#ffcc00" id="svg_104" d="m-53.226685,34.298455c-0.008,0.14853 -0.0312,0.28702 -0.0312,0.4375c0,4.63747 3.73752,8.40625 8.375,8.40625c4.63747,0 8.40625,-3.76878 8.40625,-8.40625c0,-0.15048 -0.0234,-0.28897 -0.0312,-0.4375l-16.71875,0l-0.0001,0z" stroke="null"/>
     </g>
    </g>
   </g>
  </g>
  <g id="svg_119" stroke="null">
   <g id="svg_111" transform="matrix(0.9408657402091183,0,0,0.8618550251289684,122.06486613720391,-9.46670773553989) " stroke="null">
    <title transform="translate(0,-1.1602879762649536) translate(-1.0628509521484375,0) translate(0,-1.1602879762649536) translate(0,-1.1602879762649536) translate(-1.0628509521484375,0) translate(-1.0628509521484375,0) translate(-1.0628509521484375,0) translate(-1.0628509521484375,0) ">background</title>
    <rect fill="none" id="svg_110" height="68.3622" width="58.09449" y="121.838979" x="49.003401" stroke="null"/>
   </g>
   <g id="svg_118" transform="matrix(0.9408657402091183,0,0,0.8618550251289684,122.06486613720391,-9.46670773553989) " stroke="null">
    <title transform="translate(0,-1.1602879762649536) translate(-1.0628509521484375,0) translate(0,-1.1602879762649536) translate(0,-1.1602879762649536) translate(-1.0628509521484375,0) translate(-1.0628509521484375,0) translate(-1.0628509521484375,0) translate(-1.0628509521484375,0) ">Layer 1</title>
    <g transform="matrix(1.3560283,0,0,1.3560283,104.02935,109.49134) " id="svg_117" stroke="null">
     <g id="svg_116" stroke="null">
      <path fill="#a88600" fill-rule="nonzero" stroke-width="2.2" id="svg_113" d="m-30.365405,32.977085c0,0 0.007,2.39748 0.007,3.25547c0,6.69643 5.42857,12.15625 12.125,12.15625c6.69643,0 12.15625,-5.45982 12.15625,-12.15625c0,-0.85779 -0.0255,-3.33173 -0.0255,-3.33173l-24.26275,0.07626z" stroke="null"/>
      <path fill="#ffd948" stroke-width="2.2" stroke-miterlimit="4" d="m-7.170795,33.887145c0,6.10194 -4.9466,11.04854 -11.04854,11.04854c-6.10195,0 -11.04855,-4.9466 -11.04855,-11.04854c0,-6.10195 4.9466,-11.04855 11.04855,-11.04855c6.10194,0 11.04854,4.9466 11.04854,11.04855z" id="svg_114" stroke="#cda400"/>
      <path fill="#ffcc00" id="svg_115" d="m-26.577585,33.442805c-0.008,0.14853 -0.0312,0.28702 -0.0312,0.4375c0,4.63747 3.73752,8.40625 8.375,8.40625c4.63747,0 8.40625,-3.76878 8.40625,-8.40625c0,-0.15048 -0.0234,-0.28897 -0.0312,-0.4375l-16.71875,0l-0.0001,0z" stroke="null"/>
     </g>
    </g>
   </g>
  </g>
  <g id="svg_130" stroke="null">
   <g id="svg_122" transform="matrix(0.9408657402091183,0,0,0.8618550251289684,122.06486613720391,-9.46670773553989) " stroke="null">
    <title transform="translate(0,-1.1602879762649536) translate(-1.0628509521484375,0) translate(0,-1.1602879762649536) translate(0,-1.1602879762649536) translate(-1.0628509521484375,0) translate(-1.0628509521484375,0) translate(-1.0628509521484375,0) translate(-1.0628509521484375,0) ">background</title>
    <rect fill="none" id="svg_121" height="68.3622" width="58.09449" y="83.54948" x="55.380506" stroke="null"/>
   </g>
   <g id="svg_129" transform="matrix(0.9408657402091183,0,0,0.8618550251289684,122.06486613720391,-9.46670773553989) " stroke="null">
    <title transform="translate(0,-1.1602879762649536) translate(-1.0628509521484375,0) translate(0,-1.1602879762649536) translate(0,-1.1602879762649536) translate(-1.0628509521484375,0) translate(-1.0628509521484375,0) translate(-1.0628509521484375,0) translate(-1.0628509521484375,0) ">Layer 1</title>
    <g transform="matrix(1.3560283,0,0,1.3560283,104.02935,109.49134) " id="svg_128" stroke="null">
     <g id="svg_127" stroke="null">
      <path fill="#a88600" fill-rule="nonzero" stroke-width="2.2" id="svg_124" d="m-25.662625,4.740575c0,0 0.00701,2.39748 0.00701,3.25547c0,6.69643 5.42857,12.15625 12.125,12.15625c6.69643,0 12.15625,-5.45982 12.15625,-12.15625c0,-0.85779 -0.0255,-3.33173 -0.0255,-3.33173l-24.26276,0.07626z" stroke="null"/>
      <path fill="#ffd948" stroke-width="2.2" stroke-miterlimit="4" d="m-2.468005,5.650635c0,6.10194 -4.9466,11.04854 -11.04854,11.04854c-6.10195,0 -11.04856,-4.9466 -11.04856,-11.04854c0,-6.10195 4.9466,-11.04855 11.04855,-11.04855c6.10194,0 11.04854,4.9466 11.04854,11.04855l0.00001,0z" id="svg_125" stroke="#cda400"/>
      <path fill="#ffcc00" id="svg_126" d="m-21.874805,5.206295c-0.008,0.14853 -0.03119,0.28702 -0.03119,0.4375c0,4.63747 3.73752,8.40625 8.375,8.40625c4.63747,0 8.40625,-3.76878 8.40625,-8.40625c0,-0.15048 -0.0234,-0.28897 -0.0312,-0.4375l-16.71875,0l-0.0001,0l-0.00001,0z" stroke="null"/>
     </g>
    </g>
   </g>
  </g>
  <g id="svg_141" stroke="null">
   <g id="svg_133" transform="matrix(0.9408657402091183,0,0,0.8618550251289684,122.06486613720391,-9.46670773553989) " stroke="null">
    <title transform="translate(0,-1.1602879762649536) translate(-1.0628509521484375,0) translate(0,-1.1602879762649536) translate(0,-1.1602879762649536) translate(-1.0628509521484375,0) translate(-1.0628509521484375,0) translate(-1.0628509521484375,0) translate(-1.0628509521484375,0) ">background</title>
    <rect fill="none" id="svg_132" height="68.3622" width="58.09449" y="6.970476" x="135.094316" stroke="null"/>
   </g>
   <g id="svg_140" transform="matrix(0.9408657402091183,0,0,0.8618550251289684,122.06486613720391,-9.46670773553989) " stroke="null">
    <title transform="translate(0,-1.1602879762649536) translate(-1.0628509521484375,0) translate(0,-1.1602879762649536) translate(0,-1.1602879762649536) translate(-1.0628509521484375,0) translate(-1.0628509521484375,0) translate(-1.0628509521484375,0) translate(-1.0628509521484375,0) ">Layer 1</title>
    <g transform="matrix(1.3560283,0,0,1.3560283,104.02935,109.49134) " id="svg_139" stroke="null">
     <g id="svg_138" stroke="null">
      <path fill="#a88600" fill-rule="nonzero" stroke-width="2.2" id="svg_135" d="m33.122145,-51.732435c0,0 0.007,2.39748 0.007,3.25547c0,6.69643 5.42857,12.15625 12.125,12.15625c6.69643,0 12.15625,-5.45982 12.15625,-12.15625c0,-0.85779 -0.0255,-3.33173 -0.0255,-3.33173l-24.26275,0.07626z" stroke="null"/>
      <path fill="#ffd948" stroke-width="2.2" stroke-miterlimit="4" d="m56.316755,-50.822375c0,6.10194 -4.9466,11.04854 -11.04854,11.04854c-6.10195,0 -11.04855,-4.9466 -11.04855,-11.04854c0,-6.10195 4.9466,-11.04855 11.04855,-11.04855c6.10194,0 11.04854,4.9466 11.04854,11.04855z" id="svg_136" stroke="#cda400"/>
      <path fill="#ffcc00" id="svg_137" d="m36.909965,-51.266715c-0.008,0.14853 -0.0312,0.28702 -0.0312,0.4375c0,4.63747 3.73752,8.40625 8.375,8.40625c4.63747,0 8.40625,-3.76878 8.40625,-8.40625c0,-0.15048 -0.0234,-0.28897 -0.0312,-0.4375l-16.71875,0l-0.0001,0z" stroke="null"/>
     </g>
    </g>
   </g>
  </g>
  <g id="svg_152" stroke="null">
   <g id="svg_144" transform="matrix(0.9408657402091183,0,0,0.8618550251289684,122.06486613720391,-9.46670773553989) " stroke="null">
    <title transform="translate(0,-1.1602879762649536) translate(-1.0628509521484375,0) translate(0,-1.1602879762649536) translate(0,-1.1602879762649536) translate(-1.0628509521484375,0) translate(-1.0628509521484375,0) translate(-1.0628509521484375,0) translate(-1.0628509521484375,0) ">background</title>
    <rect fill="none" id="svg_143" height="68.3622" width="58.09449" y="46.420265" x="135.094316" stroke="null"/>
   </g>
   <g id="svg_151" transform="matrix(0.9408657402091183,0,0,0.8618550251289684,122.06486613720391,-9.46670773553989) " stroke="null">
    <title transform="translate(0,-1.1602879762649536) translate(-1.0628509521484375,0) translate(0,-1.1602879762649536) translate(0,-1.1602879762649536) translate(-1.0628509521484375,0) translate(-1.0628509521484375,0) translate(-1.0628509521484375,0) translate(-1.0628509521484375,0) ">Layer 1</title>
    <g transform="matrix(1.3560283,0,0,1.3560283,104.02935,109.49134) " id="svg_150" stroke="null">
     <g id="svg_149" stroke="null">
      <path fill="#a88600" fill-rule="nonzero" stroke-width="2.2" id="svg_146" d="m33.122145,-22.640275c0,0 0.007,2.39748 0.007,3.25547c0,6.69643 5.42857,12.15625 12.125,12.15625c6.69643,0 12.15625,-5.45982 12.15625,-12.15625c0,-0.85779 -0.0255,-3.33173 -0.0255,-3.33173l-24.26275,0.07626z" stroke="null"/>
      <path fill="#ffd948" stroke-width="2.2" stroke-miterlimit="4" d="m56.316755,-21.730215c0,6.10194 -4.9466,11.04854 -11.04854,11.04854c-6.10195,0 -11.04855,-4.9466 -11.04855,-11.04854c0,-6.10195 4.9466,-11.04855 11.04855,-11.04855c6.10194,0 11.04854,4.9466 11.04854,11.04855z" id="svg_147" stroke="#cda400"/>
      <path fill="#ffcc00" id="svg_148" d="m36.909965,-22.174555c-0.008,0.14853 -0.0312,0.28702 -0.0312,0.4375c0,4.63747 3.73752,8.40625 8.375,8.40625c4.63747,0 8.40625,-3.76878 8.40625,-8.40625c0,-0.15048 -0.0234,-0.28897 -0.0312,-0.4375l-16.71875,0l-0.0001,0z" stroke="null"/>
     </g>
    </g>
   </g>
  </g>
  <g id="svg_163" stroke="null">
   <g id="svg_155" transform="matrix(0.9408657402091183,0,0,0.8618550251289684,122.06486613720391,-9.46670773553989) " stroke="null">
    <title transform="translate(0,-1.1602879762649536) translate(-1.0628509521484375,0) translate(0,-1.1602879762649536) translate(0,-1.1602879762649536) translate(-1.0628509521484375,0) translate(-1.0628509521484375,0) translate(-1.0628509521484375,0) translate(-1.0628509521484375,0) ">background</title>
    <rect fill="none" id="svg_154" height="68.3622" width="58.09449" y="84.709767" x="136.157167" stroke="null"/>
   </g>
   <g id="svg_162" transform="matrix(0.9408657402091183,0,0,0.8618550251289684,122.06486613720391,-9.46670773553989) " stroke="null">
    <title transform="translate(0,-1.1602879762649536) translate(-1.0628509521484375,0) translate(0,-1.1602879762649536) translate(0,-1.1602879762649536) translate(-1.0628509521484375,0) translate(-1.0628509521484375,0) translate(-1.0628509521484375,0) translate(-1.0628509521484375,0) ">Layer 1</title>
    <g transform="matrix(1.3560283,0,0,1.3560283,104.02935,109.49134) " id="svg_161" stroke="null">
     <g id="svg_160" stroke="null">
      <path fill="#a88600" fill-rule="nonzero" stroke-width="2.2" id="svg_157" d="m33.905945,5.596225c0,0 0.007,2.39748 0.007,3.25547c0,6.69643 5.42857,12.15625 12.125,12.15625c6.69643,0 12.15625,-5.45982 12.15625,-12.15625c0,-0.85779 -0.0255,-3.33173 -0.0255,-3.33173l-24.26275,0.07626z" stroke="null"/>
      <path fill="#ffd948" stroke-width="2.2" stroke-miterlimit="4" d="m57.100555,6.506285c0,6.10194 -4.9466,11.04854 -11.04854,11.04854c-6.10195,0 -11.04855,-4.9466 -11.04855,-11.04854c0,-6.10195 4.9466,-11.04855 11.04855,-11.04855c6.10194,0 11.04854,4.9466 11.04854,11.04855z" id="svg_158" stroke="#cda400"/>
      <path fill="#ffcc00" id="svg_159" d="m37.693765,6.061945c-0.008,0.14853 -0.0312,0.28702 -0.0312,0.4375c0,4.63747 3.73752,8.40625 8.375,8.40625c4.63747,0 8.40625,-3.76878 8.40625,-8.40625c0,-0.15048 -0.0234,-0.28897 -0.0312,-0.4375l-16.71875,0l-0.0001,0z" stroke="null"/>
     </g>
    </g>
   </g>
  </g>
  <g id="svg_174" stroke="null">
   <g id="svg_166" transform="matrix(0.9408657402091183,0,0,0.8618550251289684,122.06486613720391,-9.46670773553989) " stroke="null">
    <title transform="translate(0,-1.1602879762649536) translate(-1.0628509521484375,0) translate(0,-1.1602879762649536) translate(0,-1.1602879762649536) translate(-1.0628509521484375,0) translate(-1.0628509521484375,0) translate(-1.0628509521484375,0) translate(-1.0628509521484375,0) ">background</title>
    <rect fill="none" id="svg_165" height="68.3622" width="58.09449" y="122.999269" x="136.157167" stroke="null"/>
   </g>
   <g id="svg_173" transform="matrix(0.9408657402091183,0,0,0.8618550251289684,122.06486613720391,-9.46670773553989) " stroke="null">
    <title transform="translate(0,-1.1602879762649536) translate(-1.0628509521484375,0) translate(0,-1.1602879762649536) translate(0,-1.1602879762649536) translate(-1.0628509521484375,0) translate(-1.0628509521484375,0) translate(-1.0628509521484375,0) translate(-1.0628509521484375,0) ">Layer 1</title>
    <g transform="matrix(1.3560283,0,0,1.3560283,104.02935,109.49134) " id="svg_172" stroke="null">
     <g id="svg_171" stroke="null">
      <path fill="#a88600" fill-rule="nonzero" stroke-width="2.2" id="svg_168" d="m33.905945,33.832735c0,0 0.007,2.39748 0.007,3.25547c0,6.69643 5.42857,12.15625 12.125,12.15625c6.69643,0 12.15625,-5.45982 12.15625,-12.15625c0,-0.85779 -0.0255,-3.33173 -0.0255,-3.33173l-24.26275,0.07626z" stroke="null"/>
      <path fill="#ffd948" stroke-width="2.2" stroke-miterlimit="4" d="m57.100555,34.742795c0,6.10194 -4.9466,11.04854 -11.04854,11.04854c-6.10195,0 -11.04855,-4.9466 -11.04855,-11.04854c0,-6.10195 4.9466,-11.04855 11.04855,-11.04855c6.10194,0 11.04854,4.9466 11.04854,11.04855z" id="svg_169" stroke="#cda400"/>
      <path fill="#ffcc00" id="svg_170" d="m37.693765,34.298455c-0.008,0.14853 -0.0312,0.28702 -0.0312,0.4375c0,4.63747 3.73752,8.40625 8.375,8.40625c4.63747,0 8.40625,-3.76878 8.40625,-8.40625c0,-0.15048 -0.0234,-0.28897 -0.0312,-0.4375l-16.71875,0l-0.0001,0z" stroke="null"/>
     </g>
    </g>
   </g>
  </g>
  <g id="svg_185" stroke="null">
   <g id="svg_177" transform="matrix(0.9408657402091183,0,0,0.8618550251289684,122.06486613720391,-9.46670773553989) " stroke="null">
    <title transform="translate(0,-1.1602879762649536) translate(-1.0628509521484375,0) translate(0,-1.1602879762649536) translate(0,-1.1602879762649536) translate(-1.0628509521484375,0) translate(-1.0628509521484375,0) translate(-1.0628509521484375,0) translate(-1.0628509521484375,0) ">background</title>
    <rect fill="none" id="svg_176" height="68.3622" width="58.09449" y="162.449056" x="137.220018" stroke="null"/>
   </g>
   <g id="svg_184" transform="matrix(0.9408657402091183,0,0,0.8618550251289684,122.06486613720391,-9.46670773553989) " stroke="null">
    <title transform="translate(0,-1.1602879762649536) translate(-1.0628509521484375,0) translate(0,-1.1602879762649536) translate(0,-1.1602879762649536) translate(-1.0628509521484375,0) translate(-1.0628509521484375,0) translate(-1.0628509521484375,0) translate(-1.0628509521484375,0) ">Layer 1</title>
    <g transform="matrix(1.3560283,0,0,1.3560283,104.02935,109.49134) " id="svg_183" stroke="null">
     <g id="svg_182" stroke="null">
      <path fill="#a88600" fill-rule="nonzero" stroke-width="2.2" id="svg_179" d="m34.689745,62.924885c0,0 0.007,2.39748 0.007,3.25548c0,6.69643 5.42857,12.15625 12.125,12.15625c6.69643,0 12.15625,-5.45982 12.15625,-12.15625c0,-0.85779 -0.0255,-3.33173 -0.0255,-3.33173l-24.26275,0.07626l0,-0.00001z" stroke="null"/>
      <path fill="#ffd948" stroke-width="2.2" stroke-miterlimit="4" d="m57.884355,63.834945c0,6.10194 -4.9466,11.04855 -11.04854,11.04855c-6.10195,0 -11.04855,-4.94661 -11.04855,-11.04855c0,-6.10195 4.9466,-11.04854 11.04855,-11.04854c6.10194,0 11.04854,4.94659 11.04854,11.04854z" id="svg_180" stroke="#cda400"/>
      <path fill="#ffcc00" id="svg_181" d="m38.477565,63.390615c-0.008,0.14852 -0.0312,0.28702 -0.0312,0.4375c0,4.63746 3.73752,8.40625 8.375,8.40625c4.63747,0 8.40625,-3.76879 8.40625,-8.40625c0,-0.15048 -0.0234,-0.28898 -0.0312,-0.4375l-16.71875,0l-0.0001,0z" stroke="null"/>
     </g>
    </g>
   </g>
  </g>
  <g id="svg_196" stroke="null">
   <g id="svg_188" transform="matrix(0.9408657402091183,0,0,0.8618550251289684,122.06486613720391,-9.46670773553989) " stroke="null">
    <title transform="translate(0,-1.1602879762649536) translate(-1.0628509521484375,0) translate(0,-1.1602879762649536) translate(0,-1.1602879762649536) translate(-1.0628509521484375,0) translate(-1.0628509521484375,0) translate(-1.0628509521484375,0) translate(-1.0628509521484375,0) ">background</title>
    <rect fill="none" id="svg_187" height="68.3622" width="58.09449" y="5.810188" x="172.2941" stroke="null"/>
   </g>
   <g id="svg_195" transform="matrix(0.9408657402091183,0,0,0.8618550251289684,122.06486613720391,-9.46670773553989) " stroke="null">
    <title transform="translate(0,-1.1602879762649536) translate(-1.0628509521484375,0) translate(0,-1.1602879762649536) translate(0,-1.1602879762649536) translate(-1.0628509521484375,0) translate(-1.0628509521484375,0) translate(-1.0628509521484375,0) translate(-1.0628509521484375,0) ">Layer 1</title>
    <g transform="matrix(1.3560283,0,0,1.3560283,104.02935,109.49134) " id="svg_194" stroke="null">
     <g id="svg_193" stroke="null">
      <path fill="#a88600" fill-rule="nonzero" stroke-width="2.2" id="svg_190" d="m60.555035,-52.588085c0,0 0.007,2.39748 0.007,3.25547c0,6.69643 5.42857,12.15625 12.125,12.15625c6.69643,0 12.15625,-5.45982 12.15625,-12.15625c0,-0.85779 -0.0255,-3.33173 -0.0255,-3.33173l-24.26275,0.07626z" stroke="null"/>
      <path fill="#ffd948" stroke-width="2.2" stroke-miterlimit="4" d="m83.749645,-51.678025c0,6.10194 -4.9466,11.04854 -11.04854,11.04854c-6.10195,0 -11.04855,-4.9466 -11.04855,-11.04854c0,-6.10195 4.9466,-11.04855 11.04855,-11.04855c6.10194,0 11.04854,4.9466 11.04854,11.04855z" id="svg_191" stroke="#cda400"/>
      <path fill="#ffcc00" id="svg_192" d="m64.342855,-52.122365c-0.008,0.14853 -0.0312,0.28702 -0.0312,0.4375c0,4.63747 3.73752,8.40625 8.375,8.40625c4.63747,0 8.40625,-3.76878 8.40625,-8.40625c0,-0.15048 -0.0234,-0.28897 -0.0312,-0.4375l-16.71875,0l-0.0001,0z" stroke="null"/>
     </g>
    </g>
   </g>
  </g>
  <g id="svg_207" stroke="null">
   <g id="svg_199" transform="matrix(0.9408657402091183,0,0,0.8618550251289684,122.06486613720391,-9.46670773553989) " stroke="null">
    <title transform="translate(0,-1.1602879762649536) translate(-1.0628509521484375,0) translate(0,-1.1602879762649536) translate(0,-1.1602879762649536) translate(-1.0628509521484375,0) translate(-1.0628509521484375,0) translate(-1.0628509521484375,0) translate(-1.0628509521484375,0) ">background</title>
    <rect fill="none" id="svg_198" height="68.3622" width="58.09449" y="5.810188" x="207.368181" stroke="null"/>
   </g>
   <g id="svg_206" transform="matrix(0.9408657402091183,0,0,0.8618550251289684,122.06486613720391,-9.46670773553989) " stroke="null">
    <title transform="translate(0,-1.1602879762649536) translate(-1.0628509521484375,0) translate(0,-1.1602879762649536) translate(0,-1.1602879762649536) translate(-1.0628509521484375,0) translate(-1.0628509521484375,0) translate(-1.0628509521484375,0) translate(-1.0628509521484375,0) ">Layer 1</title>
    <g transform="matrix(1.3560283,0,0,1.3560283,104.02935,109.49134) " id="svg_205" stroke="null">
     <g id="svg_204" stroke="null">
      <path fill="#a88600" fill-rule="nonzero" stroke-width="2.2" id="svg_201" d="m86.420345,-52.588085c0,0 0.007,2.39748 0.007,3.25547c0,6.69643 5.42857,12.15625 12.125,12.15625c6.69643,0 12.15625,-5.45982 12.15625,-12.15625c0,-0.85779 -0.0255,-3.33173 -0.0255,-3.33173l-24.26275,0.07626z" stroke="null"/>
      <path fill="#ffd948" stroke-width="2.2" stroke-miterlimit="4" d="m109.614955,-51.678025c0,6.10194 -4.9466,11.04854 -11.04854,11.04854c-6.10195,0 -11.04855,-4.9466 -11.04855,-11.04854c0,-6.10195 4.9466,-11.04855 11.04855,-11.04855c6.10194,0 11.04854,4.9466 11.04854,11.04855z" id="svg_202" stroke="#cda400"/>
      <path fill="#ffcc00" id="svg_203" d="m90.208165,-52.122365c-0.008,0.14853 -0.0312,0.28702 -0.0312,0.4375c0,4.63747 3.73752,8.40625 8.375,8.40625c4.63747,0 8.40625,-3.76878 8.40625,-8.40625c0,-0.15048 -0.0234,-0.28897 -0.0312,-0.4375l-16.71875,0l-0.0001,0z" stroke="null"/>
     </g>
    </g>
   </g>
  </g>
  <g id="svg_218" stroke="null">
   <g id="svg_210" transform="matrix(0.9408657402091183,0,0,0.8618550251289684,122.06486613720391,-9.46670773553989) " stroke="null">
    <title transform="translate(0,-1.1602879762649536) translate(-1.0628509521484375,0) translate(0,-1.1602879762649536) translate(0,-1.1602879762649536) translate(-1.0628509521484375,0) translate(-1.0628509521484375,0) translate(-1.0628509521484375,0) translate(-1.0628509521484375,0) ">background</title>
    <rect fill="none" id="svg_209" height="68.3622" width="58.09449" y="84.709768" x="172.2941" stroke="null"/>
   </g>
   <g id="svg_217" transform="matrix(0.9408657402091183,0,0,0.8618550251289684,122.06486613720391,-9.46670773553989) " stroke="null">
    <title transform="translate(0,-1.1602879762649536) translate(-1.0628509521484375,0) translate(0,-1.1602879762649536) translate(0,-1.1602879762649536) translate(-1.0628509521484375,0) translate(-1.0628509521484375,0) translate(-1.0628509521484375,0) translate(-1.0628509521484375,0) ">Layer 1</title>
    <g transform="matrix(1.3560283,0,0,1.3560283,104.02935,109.49134) " id="svg_216" stroke="null">
     <g id="svg_215" stroke="null">
      <path fill="#a88600" fill-rule="nonzero" stroke-width="2.2" id="svg_212" d="m60.555035,5.596235c0,0 0.007,2.39748 0.007,3.25547c0,6.69643 5.42857,12.15625 12.125,12.15625c6.69643,0 12.15625,-5.45982 12.15625,-12.15625c0,-0.85779 -0.0255,-3.33173 -0.0255,-3.33173l-24.26275,0.07626z" stroke="null"/>
      <path fill="#ffd948" stroke-width="2.2" stroke-miterlimit="4" d="m83.749645,6.506295c0,6.10194 -4.9466,11.04854 -11.04854,11.04854c-6.10195,0 -11.04855,-4.9466 -11.04855,-11.04854c0,-6.10195 4.9466,-11.04855 11.04855,-11.04855c6.10194,0 11.04854,4.9466 11.04854,11.04855z" id="svg_213" stroke="#cda400"/>
      <path fill="#ffcc00" id="svg_214" d="m64.342855,6.061955c-0.008,0.14853 -0.0312,0.28702 -0.0312,0.4375c0,4.63747 3.73752,8.40625 8.375,8.40625c4.63747,0 8.40625,-3.76878 8.40625,-8.40625c0,-0.15048 -0.0234,-0.28897 -0.0312,-0.4375l-16.71875,0l-0.0001,0z" stroke="null"/>
     </g>
    </g>
   </g>
  </g>
  <g id="svg_229" stroke="null">
   <g id="svg_221" transform="matrix(0.9408657402091183,0,0,0.8618550251289684,122.06486613720391,-9.46670773553989) " stroke="null">
    <title transform="translate(0,-1.1602879762649536) translate(-1.0628509521484375,0) translate(0,-1.1602879762649536) translate(0,-1.1602879762649536) translate(-1.0628509521484375,0) translate(-1.0628509521484375,0) translate(-1.0628509521484375,0) translate(-1.0628509521484375,0) ">background</title>
    <rect fill="none" id="svg_220" height="68.3622" width="58.09449" y="84.709766" x="209.493883" stroke="null"/>
   </g>
   <g id="svg_228" transform="matrix(0.9408657402091183,0,0,0.8618550251289684,122.06486613720391,-9.46670773553989) " stroke="null">
    <title transform="translate(0,-1.1602879762649536) translate(-1.0628509521484375,0) translate(0,-1.1602879762649536) translate(0,-1.1602879762649536) translate(-1.0628509521484375,0) translate(-1.0628509521484375,0) translate(-1.0628509521484375,0) translate(-1.0628509521484375,0) ">Layer 1</title>
    <g transform="matrix(1.3560283,0,0,1.3560283,104.02935,109.49134) " id="svg_227" stroke="null">
     <g id="svg_226" stroke="null">
      <path fill="#a88600" fill-rule="nonzero" stroke-width="2.2" id="svg_223" d="m87.987945,5.596225c0,0 0.007,2.39748 0.007,3.25547c0,6.69643 5.42857,12.15625 12.125,12.15625c6.69643,0 12.15625,-5.45982 12.15625,-12.15625c0,-0.85779 -0.0255,-3.33173 -0.0255,-3.33173l-24.26275,0.07626z" stroke="null"/>
      <path fill="#ffd948" stroke-width="2.2" stroke-miterlimit="4" d="m111.182555,6.506285c0,6.10194 -4.9466,11.04854 -11.04854,11.04854c-6.10195,0 -11.04855,-4.9466 -11.04855,-11.04854c0,-6.10195 4.9466,-11.04855 11.04855,-11.04855c6.10194,0 11.04854,4.9466 11.04854,11.04855z" id="svg_224" stroke="#cda400"/>
      <path fill="#ffcc00" id="svg_225" d="m91.775765,6.061945c-0.008,0.14853 -0.0312,0.28702 -0.0312,0.4375c0,4.63747 3.73752,8.40625 8.375,8.40625c4.63747,0 8.40625,-3.76878 8.40625,-8.40625c0,-0.15048 -0.0234,-0.28897 -0.0312,-0.4375l-16.71875,0l-0.0001,0z" stroke="null"/>
     </g>
    </g>
   </g>
  </g>
  <g id="svg_240" stroke="null">
   <g id="svg_232" transform="matrix(0.9408657402091183,0,0,0.8618550251289684,122.06486613720391,-9.46670773553989) " stroke="null">
    <title transform="translate(0,-1.1602879762649536) translate(-1.0628509521484375,0) translate(0,-1.1602879762649536) translate(0,-1.1602879762649536) translate(-1.0628509521484375,0) translate(-1.0628509521484375,0) translate(-1.0628509521484375,0) translate(-1.0628509521484375,0) ">background</title>
    <rect fill="none" id="svg_231" height="68.3622" width="58.09449" y="162.449056" x="174.419801" stroke="null"/>
   </g>
   <g id="svg_239" transform="matrix(0.9408657402091183,0,0,0.8618550251289684,122.06486613720391,-9.46670773553989) " stroke="null">
    <title transform="translate(0,-1.1602879762649536) translate(-1.0628509521484375,0) translate(0,-1.1602879762649536) translate(0,-1.1602879762649536) translate(-1.0628509521484375,0) translate(-1.0628509521484375,0) translate(-1.0628509521484375,0) translate(-1.0628509521484375,0) ">Layer 1</title>
    <g transform="matrix(1.3560283,0,0,1.3560283,104.02935,109.49134) " id="svg_238" stroke="null">
     <g id="svg_237" stroke="null">
      <path fill="#a88600" fill-rule="nonzero" stroke-width="2.2" id="svg_234" d="m62.122635,62.924885c0,0 0.007,2.39748 0.007,3.25548c0,6.69643 5.42857,12.15625 12.125,12.15625c6.69643,0 12.15625,-5.45982 12.15625,-12.15625c0,-0.85779 -0.0255,-3.33173 -0.0255,-3.33173l-24.26275,0.07626l0,-0.00001z" stroke="null"/>
      <path fill="#ffd948" stroke-width="2.2" stroke-miterlimit="4" d="m85.317245,63.834945c0,6.10194 -4.9466,11.04855 -11.04854,11.04855c-6.10195,0 -11.04855,-4.94661 -11.04855,-11.04855c0,-6.10195 4.9466,-11.04854 11.04855,-11.04854c6.10194,0 11.04854,4.94659 11.04854,11.04854z" id="svg_235" stroke="#cda400"/>
      <path fill="#ffcc00" id="svg_236" d="m65.910455,63.390615c-0.008,0.14852 -0.0312,0.28702 -0.0312,0.4375c0,4.63746 3.73752,8.40625 8.375,8.40625c4.63747,0 8.40625,-3.76879 8.40625,-8.40625c0,-0.15048 -0.0234,-0.28898 -0.0312,-0.4375l-16.71875,0l-0.0001,0z" stroke="null"/>
     </g>
    </g>
   </g>
  </g>
  <g id="svg_251" stroke="null">
   <g id="svg_243" transform="matrix(0.9408657402091183,0,0,0.8618550251289684,122.06486613720391,-9.46670773553989) " stroke="null">
    <title transform="translate(0,-1.1602879762649536) translate(-1.0628509521484375,0) translate(0,-1.1602879762649536) translate(0,-1.1602879762649536) translate(-1.0628509521484375,0) translate(-1.0628509521484375,0) translate(-1.0628509521484375,0) translate(-1.0628509521484375,0) ">background</title>
    <rect fill="none" id="svg_242" height="68.3622" width="58.09449" y="161.288778" x="211.619585" stroke="null"/>
   </g>
   <g id="svg_250" transform="matrix(0.9408657402091183,0,0,0.8618550251289684,122.06486613720391,-9.46670773553989) " stroke="null">
    <title transform="translate(0,-1.1602879762649536) translate(-1.0628509521484375,0) translate(0,-1.1602879762649536) translate(0,-1.1602879762649536) translate(-1.0628509521484375,0) translate(-1.0628509521484375,0) translate(-1.0628509521484375,0) translate(-1.0628509521484375,0) ">Layer 1</title>
    <g transform="matrix(1.3560283,0,0,1.3560283,104.02935,109.49134) " id="svg_249" stroke="null">
     <g id="svg_248" stroke="null">
      <path fill="#a88600" fill-rule="nonzero" stroke-width="2.2" id="svg_245" d="m89.555525,62.069245c0,0 0.007,2.39748 0.007,3.25547c0,6.69643 5.42857,12.15625 12.125,12.15625c6.69643,0 12.15625,-5.45982 12.15625,-12.15625c0,-0.85779 -0.0255,-3.33173 -0.0255,-3.33173l-24.26275,0.07626z" stroke="null"/>
      <path fill="#ffd948" stroke-width="2.2" stroke-miterlimit="4" d="m112.750135,62.979305c0,6.10194 -4.9466,11.04854 -11.04854,11.04854c-6.10195,0 -11.04855,-4.9466 -11.04855,-11.04854c0,-6.10195 4.9466,-11.04855 11.04855,-11.04855c6.10194,0 11.04854,4.9466 11.04854,11.04855z" id="svg_246" stroke="#cda400"/>
      <path fill="#ffcc00" id="svg_247" d="m93.343345,62.534965c-0.008,0.14853 -0.0312,0.28702 -0.0312,0.4375c0,4.63747 3.73752,8.40625 8.375,8.40625c4.63747,0 8.40625,-3.76878 8.40625,-8.40625c0,-0.15048 -0.0234,-0.28897 -0.0312,-0.4375l-16.71875,0l-0.0001,0z" stroke="null"/>
     </g>
    </g>
   </g>
  </g>
  <g id="svg_262" stroke="null">
   <g id="svg_254" transform="matrix(0.9408657402091183,0,0,0.8618550251289684,122.06486613720391,-9.46670773553989) " stroke="null">
    <title transform="translate(0,-1.1602879762649536) translate(-1.0628509521484375,0) translate(0,-1.1602879762649536) translate(0,-1.1602879762649536) translate(-1.0628509521484375,0) translate(-1.0628509521484375,0) translate(-1.0628509521484375,0) translate(-1.0628509521484375,0) ">background</title>
    <rect fill="none" id="svg_253" height="68.3622" width="58.09449" y="157.807914" x="-99.795733" stroke="null"/>
   </g>
   <g id="svg_261" transform="matrix(0.9408657402091183,0,0,0.8618550251289684,122.06486613720391,-9.46670773553989) " stroke="null">
    <title transform="translate(0,-1.1602879762649536) translate(-1.0628509521484375,0) translate(0,-1.1602879762649536) translate(0,-1.1602879762649536) translate(-1.0628509521484375,0) translate(-1.0628509521484375,0) translate(-1.0628509521484375,0) translate(-1.0628509521484375,0) ">Layer 1</title>
    <g transform="matrix(1.3560283,0,0,1.3560283,104.02935,109.49134) " id="svg_260" stroke="null">
     <g id="svg_259" stroke="null">
      <path fill="#a88600" fill-rule="nonzero" stroke-width="2.2" id="svg_256" d="m-140.096985,59.502295c0,0 0.007,2.39748 0.007,3.25547c0,6.69643 5.42857,12.15625 12.125,12.15625c6.69643,0 12.15625,-5.45982 12.15625,-12.15625c0,-0.85779 -0.0255,-3.33173 -0.0255,-3.33173l-24.26275,0.07626z" stroke="null"/>
      <path fill="#ffd948" stroke-width="2.2" stroke-miterlimit="4" d="m-116.902375,60.412355c0,6.10194 -4.9466,11.04854 -11.04854,11.04854c-6.10195,0 -11.04855,-4.9466 -11.04855,-11.04854c0,-6.10195 4.9466,-11.04855 11.04855,-11.04855c6.10194,0 11.04854,4.9466 11.04854,11.04855z" id="svg_257" stroke="#cda400"/>
      <path fill="#ffcc00" id="svg_258" d="m-136.309165,59.968015c-0.008,0.14853 -0.0312,0.28702 -0.0312,0.4375c0,4.63747 3.73752,8.40625 8.375,8.40625c4.63747,0 8.40625,-3.76878 8.40625,-8.40625c0,-0.15048 -0.0234,-0.28897 -0.0312,-0.4375l-16.71875,0l-0.0001,0z" stroke="null"/>
     </g>
    </g>
   </g>
  </g>
  <g id="svg_273" stroke="null">
   <g id="svg_265" transform="matrix(0.9408657402091183,0,0,0.8618550251289684,122.06486613720391,-9.46670773553989) " stroke="null">
    <title transform="translate(0,-1.1602879762649536) translate(-1.0628509521484375,0) translate(0,-1.1602879762649536) translate(0,-1.1602879762649536) translate(-1.0628509521484375,0) translate(-1.0628509521484375,0) translate(-1.0628509521484375,0) translate(-1.0628509521484375,0) ">background</title>
    <rect fill="none" id="svg_264" height="68.3622" width="58.09449" y="160.128482" x="40.500596" stroke="null"/>
   </g>
   <g id="svg_272" transform="matrix(0.9408657402091183,0,0,0.8618550251289684,122.06486613720391,-9.46670773553989) " stroke="null">
    <title transform="translate(0,-1.1602879762649536) translate(-1.0628509521484375,0) translate(0,-1.1602879762649536) translate(0,-1.1602879762649536) translate(-1.0628509521484375,0) translate(-1.0628509521484375,0) translate(-1.0628509521484375,0) translate(-1.0628509521484375,0) ">Layer 1</title>
    <g transform="matrix(1.3560283,0,0,1.3560283,104.02935,109.49134) " id="svg_271" stroke="null">
     <g id="svg_270" stroke="null">
      <path fill="#a88600" fill-rule="nonzero" stroke-width="2.2" id="svg_267" d="m-36.635785,61.213585c0,0 0.007,2.39748 0.007,3.25547c0,6.69643 5.42857,12.15625 12.125,12.15625c6.69643,0 12.15625,-5.45982 12.15625,-12.15625c0,-0.85779 -0.0255,-3.33173 -0.0255,-3.33173l-24.26275,0.07626z" stroke="null"/>
      <path fill="#ffd948" stroke-width="2.2" stroke-miterlimit="4" d="m-13.441175,62.123645c0,6.10194 -4.9466,11.04854 -11.04854,11.04854c-6.10195,0 -11.04855,-4.9466 -11.04855,-11.04854c0,-6.10195 4.9466,-11.04855 11.04855,-11.04855c6.10194,0 11.04854,4.9466 11.04854,11.04855z" id="svg_268" stroke="#cda400"/>
      <path fill="#ffcc00" id="svg_269" d="m-32.847965,61.679305c-0.008,0.14853 -0.0312,0.28702 -0.0312,0.4375c0,4.63747 3.73752,8.40625 8.375,8.40625c4.63747,0 8.40625,-3.76878 8.40625,-8.40625c0,-0.15048 -0.0234,-0.28897 -0.0312,-0.4375l-16.71875,0l-0.0001,0z" stroke="null"/>
     </g>
    </g>
   </g>
  </g>
  <g id="svg_284" stroke="null">
   <g id="svg_276" transform="matrix(0.9408657402091183,0,0,0.8618550251289684,122.06486613720391,-9.46670773553989) " stroke="null">
    <title transform="translate(0,-1.1602879762649536) translate(-1.0628509521484375,0) translate(0,-1.1602879762649536) translate(0,-1.1602879762649536) translate(-1.0628509521484375,0) translate(-1.0628509521484375,0) translate(-1.0628509521484375,0) translate(-1.0628509521484375,0) ">background</title>
    <rect fill="none" id="svg_275" height="68.3622" width="58.09449" y="44.099691" x="60.694749" stroke="null"/>
   </g>
   <g id="svg_283" transform="matrix(0.9408657402091183,0,0,0.8618550251289684,122.06486613720391,-9.46670773553989) " stroke="null">
    <title transform="translate(0,-1.1602879762649536) translate(-1.0628509521484375,0) translate(0,-1.1602879762649536) translate(0,-1.1602879762649536) translate(-1.0628509521484375,0) translate(-1.0628509521484375,0) translate(-1.0628509521484375,0) translate(-1.0628509521484375,0) ">Layer 1</title>
    <g transform="matrix(1.3560283,0,0,1.3560283,104.02935,109.49134) " id="svg_282" stroke="null">
     <g id="svg_281" stroke="null">
      <path fill="#a88600" fill-rule="nonzero" stroke-width="2.2" id="svg_278" d="m-21.743645,-24.351575c0,0 0.007,2.39748 0.007,3.25547c0,6.69643 5.42857,12.15625 12.125,12.15625c6.69643,0 12.15625,-5.45982 12.15625,-12.15625c0,-0.85779 -0.0255,-3.33173 -0.0255,-3.33173l-24.26275,0.07626z" stroke="null"/>
      <path fill="#ffd948" stroke-width="2.2" stroke-miterlimit="4" d="m1.450965,-23.441515c0,6.10194 -4.9466,11.04854 -11.04854,11.04854c-6.10195,0 -11.04855,-4.9466 -11.04855,-11.04854c0,-6.10195 4.9466,-11.04855 11.04855,-11.04855c6.10194,0 11.04854,4.9466 11.04854,11.04855z" id="svg_279" stroke="#cda400"/>
      <path fill="#ffcc00" id="svg_280" d="m-17.955825,-23.885855c-0.008,0.14853 -0.0312,0.28702 -0.0312,0.4375c0,4.63747 3.73752,8.40625 8.375,8.40625c4.63747,0 8.40625,-3.76878 8.40625,-8.40625c0,-0.15048 -0.0234,-0.28897 -0.0312,-0.4375l-16.71875,0l-0.0001,0z" stroke="null"/>
     </g>
    </g>
   </g>
  </g>
  <g id="svg_295" stroke="null">
   <g id="svg_287" transform="matrix(0.9408657402091183,0,0,0.8618550251289684,122.06486613720391,-9.46670773553989) " stroke="null">
    <title transform="translate(0,-1.1602879762649536) translate(-1.0628509521484375,0) translate(0,-1.1602879762649536) translate(0,-1.1602879762649536) translate(-1.0628509521484375,0) translate(-1.0628509521484375,0) translate(-1.0628509521484375,0) translate(-1.0628509521484375,0) ">background</title>
    <rect fill="none" id="svg_286" height="68.3622" width="58.09449" y="6.970476" x="63.883302" stroke="null"/>
   </g>
   <g id="svg_294" transform="matrix(0.9408657402091183,0,0,0.8618550251289684,122.06486613720391,-9.46670773553989) " stroke="null">
    <title transform="translate(0,-1.1602879762649536) translate(-1.0628509521484375,0) translate(0,-1.1602879762649536) translate(0,-1.1602879762649536) translate(-1.0628509521484375,0) translate(-1.0628509521484375,0) translate(-1.0628509521484375,0) translate(-1.0628509521484375,0) ">Layer 1</title>
    <g transform="matrix(1.3560283,0,0,1.3560283,104.02935,109.49134) " id="svg_293" stroke="null">
     <g id="svg_292" stroke="null">
      <path fill="#a88600" fill-rule="nonzero" stroke-width="2.2" id="svg_289" d="m-19.392255,-51.732435c0,0 0.007,2.39748 0.007,3.25547c0,6.69643 5.42857,12.15625 12.125,12.15625c6.69643,0 12.15625,-5.45982 12.15625,-12.15625c0,-0.85779 -0.0255,-3.33173 -0.0255,-3.33173l-24.26275,0.07626z" stroke="null"/>
      <path fill="#ffd948" stroke-width="2.2" stroke-miterlimit="4" d="m3.802355,-50.822375c0,6.10194 -4.9466,11.04854 -11.04854,11.04854c-6.10195,0 -11.04855,-4.9466 -11.04855,-11.04854c0,-6.10195 4.9466,-11.04855 11.04855,-11.04855c6.10194,0 11.04854,4.9466 11.04854,11.04855z" id="svg_290" stroke="#cda400"/>
      <path fill="#ffcc00" id="svg_291" d="m-15.604435,-51.266715c-0.008,0.14853 -0.0312,0.28702 -0.0312,0.4375c0,4.63747 3.73752,8.40625 8.375,8.40625c4.63747,0 8.40625,-3.76878 8.40625,-8.40625c0,-0.15048 -0.0234,-0.28897 -0.0312,-0.4375l-16.71875,0l-0.0001,0z" stroke="null"/>
     </g>
    </g>
   </g>
  </g>
  <g id="svg_306" stroke="null">
   <g id="svg_298" transform="matrix(0.9408657402091183,0,0,0.8618550251289684,122.06486613720391,-9.46670773553989) " stroke="null">
    <title transform="translate(0,-1.1602879762649536) translate(-1.0628509521484375,0) translate(0,-1.1602879762649536) translate(0,-1.1602879762649536) translate(-1.0628509521484375,0) translate(-1.0628509521484375,0) translate(-1.0628509521484375,0) translate(-1.0628509521484375,0) ">background</title>
    <rect fill="none" id="svg_297" height="68.3622" width="58.09449" y="4.6499" x="243.5051" stroke="null"/>
   </g>
   <g id="svg_305" transform="matrix(0.9408657402091183,0,0,0.8618550251289684,122.06486613720391,-9.46670773553989) " stroke="null">
    <title transform="translate(0,-1.1602879762649536) translate(-1.0628509521484375,0) translate(0,-1.1602879762649536) translate(0,-1.1602879762649536) translate(-1.0628509521484375,0) translate(-1.0628509521484375,0) translate(-1.0628509521484375,0) translate(-1.0628509521484375,0) ">Layer 1</title>
    <g transform="matrix(1.3560283,0,0,1.3560283,104.02935,109.49134) " id="svg_304" stroke="null">
     <g id="svg_303" stroke="null">
      <path fill="#a88600" fill-rule="nonzero" stroke-width="2.2" id="svg_300" d="m113.069445,-53.443735c0,0 0.007,2.39748 0.007,3.25547c0,6.69643 5.42857,12.15625 12.125,12.15625c6.69643,0 12.15625,-5.45982 12.15625,-12.15625c0,-0.85779 -0.0255,-3.33173 -0.0255,-3.33173l-24.26275,0.07626z" stroke="null"/>
      <path fill="#ffd948" stroke-width="2.2" stroke-miterlimit="4" d="m136.264055,-52.533675c0,6.10194 -4.9466,11.04854 -11.04854,11.04854c-6.10195,0 -11.04855,-4.9466 -11.04855,-11.04854c0,-6.10195 4.9466,-11.04855 11.04855,-11.04855c6.10194,0 11.04854,4.9466 11.04854,11.04855z" id="svg_301" stroke="#cda400"/>
      <path fill="#ffcc00" id="svg_302" d="m116.857265,-52.978015c-0.008,0.14853 -0.0312,0.28702 -0.0312,0.4375c0,4.63747 3.73752,8.40625 8.375,8.40625c4.63747,0 8.40625,-3.76878 8.40625,-8.40625c0,-0.15048 -0.0234,-0.28897 -0.0312,-0.4375l-16.71875,0l-0.0001,0z" stroke="null"/>
     </g>
    </g>
   </g>
  </g>
  <g id="svg_317" stroke="null">
   <g id="svg_309" transform="matrix(0.9408657402091183,0,0,0.8618550251289684,122.06486613720391,-9.46670773553989) " stroke="null">
    <title transform="translate(0,-1.1602879762649536) translate(-1.0628509521484375,0) translate(0,-1.1602879762649536) translate(0,-1.1602879762649536) translate(-1.0628509521484375,0) translate(-1.0628509521484375,0) translate(-1.0628509521484375,0) translate(-1.0628509521484375,0) ">background</title>
    <rect fill="none" id="svg_308" height="68.3622" width="58.09449" y="84.70977" x="246.693668" stroke="null"/>
   </g>
   <g id="svg_316" transform="matrix(0.9408657402091183,0,0,0.8618550251289684,122.06486613720391,-9.46670773553989) " stroke="null">
    <title transform="translate(0,-1.1602879762649536) translate(-1.0628509521484375,0) translate(0,-1.1602879762649536) translate(0,-1.1602879762649536) translate(-1.0628509521484375,0) translate(-1.0628509521484375,0) translate(-1.0628509521484375,0) translate(-1.0628509521484375,0) ">Layer 1</title>
    <g transform="matrix(1.3560283,0,0,1.3560283,104.02935,109.49134) " id="svg_315" stroke="null">
     <g id="svg_314" stroke="null">
      <path fill="#a88600" fill-rule="nonzero" stroke-width="2.2" id="svg_311" d="m115.420825,5.596235c0,0 0.007,2.39748 0.007,3.25547c0,6.69643 5.42857,12.15625 12.125,12.15625c6.69643,0 12.15625,-5.45982 12.15625,-12.15625c0,-0.85779 -0.0255,-3.33173 -0.0255,-3.33173l-24.26275,0.07626z" stroke="null"/>
      <path fill="#ffd948" stroke-width="2.2" stroke-miterlimit="4" d="m138.615435,6.506295c0,6.10194 -4.9466,11.04854 -11.04854,11.04854c-6.10195,0 -11.04855,-4.9466 -11.04855,-11.04854c0,-6.10195 4.9466,-11.04855 11.04855,-11.04855c6.10194,0 11.04854,4.9466 11.04854,11.04855z" id="svg_312" stroke="#cda400"/>
      <path fill="#ffcc00" id="svg_313" d="m119.208645,6.061955c-0.008,0.14853 -0.0312,0.28702 -0.0312,0.4375c0,4.63747 3.73752,8.40625 8.375,8.40625c4.63747,0 8.40625,-3.76878 8.40625,-8.40625c0,-0.15048 -0.0234,-0.28897 -0.0312,-0.4375l-16.71875,0l-0.0001,0z" stroke="null"/>
     </g>
    </g>
   </g>
  </g>
  <g id="svg_328" stroke="null">
   <g id="svg_320" transform="matrix(0.9408657402091183,0,0,0.8618550251289684,122.06486613720391,-9.46670773553989) " stroke="null">
    <title transform="translate(0,-1.1602879762649536) translate(-1.0628509521484375,0) translate(0,-1.1602879762649536) translate(0,-1.1602879762649536) translate(-1.0628509521484375,0) translate(-1.0628509521484375,0) translate(-1.0628509521484375,0) translate(-1.0628509521484375,0) ">background</title>
    <rect fill="none" id="svg_319" height="68.3622" width="58.09449" y="160.128486" x="249.882205" stroke="null"/>
   </g>
   <g id="svg_327" transform="matrix(0.9408657402091183,0,0,0.8618550251289684,122.06486613720391,-9.46670773553989) " stroke="null">
    <title transform="translate(0,-1.1602879762649536) translate(-1.0628509521484375,0) translate(0,-1.1602879762649536) translate(0,-1.1602879762649536) translate(-1.0628509521484375,0) translate(-1.0628509521484375,0) translate(-1.0628509521484375,0) translate(-1.0628509521484375,0) ">Layer 1</title>
    <g transform="matrix(1.3560283,0,0,1.3560283,104.02935,109.49134) " id="svg_326" stroke="null">
     <g id="svg_325" stroke="null">
      <path fill="#a88600" fill-rule="nonzero" stroke-width="2.2" id="svg_322" d="m117.772205,61.213595c0,0 0.007,2.39748 0.007,3.25547c0,6.69643 5.42857,12.15625 12.125,12.15625c6.69643,0 12.15625,-5.45982 12.15625,-12.15625c0,-0.85779 -0.0255,-3.33173 -0.0255,-3.33173l-24.26275,0.07626z" stroke="null"/>
      <path fill="#ffd948" stroke-width="2.2" stroke-miterlimit="4" d="m140.966815,62.123655c0,6.10194 -4.9466,11.04854 -11.04854,11.04854c-6.10195,0 -11.04855,-4.9466 -11.04855,-11.04854c0,-6.10195 4.9466,-11.04855 11.04855,-11.04855c6.10194,0 11.04854,4.9466 11.04854,11.04855z" id="svg_323" stroke="#cda400"/>
      <path fill="#ffcc00" id="svg_324" d="m121.560025,61.679315c-0.008,0.14853 -0.0312,0.28702 -0.0312,0.4375c0,4.63747 3.73752,8.40625 8.375,8.40625c4.63747,0 8.40625,-3.76878 8.40625,-8.40625c0,-0.15048 -0.0234,-0.28897 -0.0312,-0.4375l-16.71875,0l-0.0001,0z" stroke="null"/>
     </g>
    </g>
   </g>
  </g>
  <g id="svg_339" stroke="null">
   <g id="svg_331" transform="matrix(0.9408657402091183,0,0,0.8618550251289684,122.06486613720391,-9.46670773553989) " stroke="null">
    <title transform="translate(0,-1.1602879762649536) translate(-1.0628509521484375,0) translate(0,-1.1602879762649536) translate(0,-1.1602879762649536) translate(-1.0628509521484375,0) translate(-1.0628509521484375,0) translate(-1.0628509521484375,0) translate(-1.0628509521484375,0) ">background</title>
    <rect fill="none" id="svg_330" height="68.3622" width="58.09449" y="3.489612" x="329.596042" stroke="null"/>
   </g>
   <g id="svg_338" transform="matrix(0.9408657402091183,0,0,0.8618550251289684,122.06486613720391,-9.46670773553989) " stroke="null">
    <title transform="translate(0,-1.1602879762649536) translate(-1.0628509521484375,0) translate(0,-1.1602879762649536) translate(0,-1.1602879762649536) translate(-1.0628509521484375,0) translate(-1.0628509521484375,0) translate(-1.0628509521484375,0) translate(-1.0628509521484375,0) ">Layer 1</title>
    <g transform="matrix(1.3560283,0,0,1.3560283,104.02935,109.49134) " id="svg_337" stroke="null">
     <g id="svg_336" stroke="null">
      <path fill="#a88600" fill-rule="nonzero" stroke-width="2.2" id="svg_333" d="m176.556995,-54.299395c0,0 0.007,2.39748 0.007,3.25548c0,6.69642 5.42857,12.15625 12.125,12.15625c6.69643,0 12.15625,-5.45983 12.15625,-12.15625c0,-0.8578 -0.0255,-3.33174 -0.0255,-3.33174l-24.26275,0.07626z" stroke="null"/>
      <path fill="#ffd948" stroke-width="2.2" stroke-miterlimit="4" d="m199.751605,-53.389335c0,6.10194 -4.9466,11.04854 -11.04854,11.04854c-6.10195,0 -11.04855,-4.9466 -11.04855,-11.04854c0,-6.10195 4.9466,-11.04855 11.04855,-11.04855c6.10194,0 11.04854,4.9466 11.04854,11.04855z" id="svg_334" stroke="#cda400"/>
      <path fill="#ffcc00" id="svg_335" d="m180.344815,-53.833665c-0.008,0.14853 -0.0312,0.28702 -0.0312,0.4375c0,4.63747 3.73752,8.40625 8.375,8.40625c4.63747,0 8.40625,-3.76878 8.40625,-8.40625c0,-0.15048 -0.0234,-0.28897 -0.0312,-0.4375l-16.71875,0l-0.0001,0z" stroke="null"/>
     </g>
    </g>
   </g>
  </g>
  <g id="svg_350" stroke="null">
   <g id="svg_342" transform="matrix(0.9408657402091183,0,0,0.8618550251289684,122.06486613720391,-9.46670773553989) " stroke="null">
    <title transform="translate(0,-1.1602879762649536) translate(-1.0628509521484375,0) translate(0,-1.1602879762649536) translate(0,-1.1602879762649536) translate(-1.0628509521484375,0) translate(-1.0628509521484375,0) translate(-1.0628509521484375,0) translate(-1.0628509521484375,0) ">background</title>
    <rect fill="none" id="svg_341" height="68.3622" width="58.09449" y="44.099689" x="329.596027" stroke="null"/>
   </g>
   <g id="svg_349" transform="matrix(0.9408657402091183,0,0,0.8618550251289684,122.06486613720391,-9.46670773553989) " stroke="null">
    <title transform="translate(0,-1.1602879762649536) translate(-1.0628509521484375,0) translate(0,-1.1602879762649536) translate(0,-1.1602879762649536) translate(-1.0628509521484375,0) translate(-1.0628509521484375,0) translate(-1.0628509521484375,0) translate(-1.0628509521484375,0) ">Layer 1</title>
    <g transform="matrix(1.3560283,0,0,1.3560283,104.02935,109.49134) " id="svg_348" stroke="null">
     <g id="svg_347" stroke="null">
      <path fill="#a88600" fill-rule="nonzero" stroke-width="2.2" id="svg_344" d="m176.556985,-24.351585c0,0 0.007,2.39748 0.007,3.25547c0,6.69643 5.42857,12.15625 12.125,12.15625c6.69642,0 12.15625,-5.45982 12.15625,-12.15625c0,-0.85779 -0.0255,-3.33173 -0.0255,-3.33173l-24.26275,0.07626z" stroke="null"/>
      <path fill="#ffd948" stroke-width="2.2" stroke-miterlimit="4" d="m199.751595,-23.441525c0,6.10194 -4.9466,11.04854 -11.04854,11.04854c-6.10195,0 -11.04855,-4.9466 -11.04855,-11.04854c0,-6.10195 4.94659,-11.04855 11.04855,-11.04855c6.10194,0 11.04854,4.9466 11.04854,11.04855z" id="svg_345" stroke="#cda400"/>
      <path fill="#ffcc00" id="svg_346" d="m180.344805,-23.885865c-0.008,0.14853 -0.0312,0.28702 -0.0312,0.4375c0,4.63747 3.73751,8.40625 8.375,8.40625c4.63747,0 8.40625,-3.76878 8.40625,-8.40625c0,-0.15048 -0.02341,-0.28897 -0.03121,-0.4375l-16.71875,0l-0.0001,0l0.00001,0z" stroke="null"/>
     </g>
    </g>
   </g>
  </g>
  <g id="svg_361" stroke="null">
   <g id="svg_353" transform="matrix(0.9408657402091183,0,0,0.8618550251289684,122.06486613720391,-9.46670773553989) " stroke="null">
    <title transform="translate(0,-1.1602879762649536) translate(-1.0628509521484375,0) translate(0,-1.1602879762649536) translate(0,-1.1602879762649536) translate(-1.0628509521484375,0) translate(-1.0628509521484375,0) translate(-1.0628509521484375,0) translate(-1.0628509521484375,0) ">background</title>
    <rect fill="none" id="svg_352" height="68.3622" width="58.09449" y="87.030345" x="329.596042" stroke="null"/>
   </g>
   <g id="svg_360" transform="matrix(0.9408657402091183,0,0,0.8618550251289684,122.06486613720391,-9.46670773553989) " stroke="null">
    <title transform="translate(0,-1.1602879762649536) translate(-1.0628509521484375,0) translate(0,-1.1602879762649536) translate(0,-1.1602879762649536) translate(-1.0628509521484375,0) translate(-1.0628509521484375,0) translate(-1.0628509521484375,0) translate(-1.0628509521484375,0) ">Layer 1</title>
    <g transform="matrix(1.3560283,0,0,1.3560283,104.02935,109.49134) " id="svg_359" stroke="null">
     <g id="svg_358" stroke="null">
      <path fill="#a88600" fill-rule="nonzero" stroke-width="2.2" id="svg_355" d="m176.556995,7.307535c0,0 0.007,2.39748 0.007,3.25547c0,6.69643 5.42857,12.15625 12.125,12.15625c6.69643,0 12.15625,-5.45982 12.15625,-12.15625c0,-0.85779 -0.0255,-3.33173 -0.0255,-3.33173l-24.26275,0.07626z" stroke="null"/>
      <path fill="#ffd948" stroke-width="2.2" stroke-miterlimit="4" d="m199.751605,8.217595c0,6.10194 -4.9466,11.04854 -11.04854,11.04854c-6.10195,0 -11.04855,-4.9466 -11.04855,-11.04854c0,-6.10195 4.9466,-11.04855 11.04855,-11.04855c6.10194,0 11.04854,4.9466 11.04854,11.04855z" id="svg_356" stroke="#cda400"/>
      <path fill="#ffcc00" id="svg_357" d="m180.344815,7.773255c-0.008,0.14853 -0.0312,0.28702 -0.0312,0.4375c0,4.63747 3.73752,8.40625 8.375,8.40625c4.63747,0 8.40625,-3.76878 8.40625,-8.40625c0,-0.15048 -0.0234,-0.28897 -0.0312,-0.4375l-16.71875,0l-0.0001,0z" stroke="null"/>
     </g>
    </g>
   </g>
  </g>
  <g id="svg_372" stroke="null">
   <g id="svg_364" transform="matrix(0.9408657402091183,0,0,0.8618550251289684,122.06486613720391,-9.46670773553989) " stroke="null">
    <title transform="translate(0,-1.1602879762649536) translate(-1.0628509521484375,0) translate(0,-1.1602879762649536) translate(0,-1.1602879762649536) translate(-1.0628509521484375,0) translate(-1.0628509521484375,0) translate(-1.0628509521484375,0) translate(-1.0628509521484375,0) ">background</title>
    <rect fill="none" id="svg_363" height="68.3622" width="58.09449" y="128.800708" x="330.658893" stroke="null"/>
   </g>
   <g id="svg_371" transform="matrix(0.9408657402091183,0,0,0.8618550251289684,122.06486613720391,-9.46670773553989) " stroke="null">
    <title transform="translate(0,-1.1602879762649536) translate(-1.0628509521484375,0) translate(0,-1.1602879762649536) translate(0,-1.1602879762649536) translate(-1.0628509521484375,0) translate(-1.0628509521484375,0) translate(-1.0628509521484375,0) translate(-1.0628509521484375,0) ">Layer 1</title>
    <g transform="matrix(1.3560283,0,0,1.3560283,104.02935,109.49134) " id="svg_370" stroke="null">
     <g id="svg_369" stroke="null">
      <path fill="#a88600" fill-rule="nonzero" stroke-width="2.2" id="svg_366" d="m177.340795,38.110995c0,0 0.007,2.39748 0.007,3.25547c0,6.69643 5.42857,12.15625 12.125,12.15625c6.69643,0 12.15625,-5.45982 12.15625,-12.15625c0,-0.85779 -0.0255,-3.33173 -0.0255,-3.33173l-24.26275,0.07626z" stroke="null"/>
      <path fill="#ffd948" stroke-width="2.2" stroke-miterlimit="4" d="m200.535405,39.021055c0,6.10194 -4.9466,11.04854 -11.04854,11.04854c-6.10195,0 -11.04855,-4.9466 -11.04855,-11.04854c0,-6.10195 4.9466,-11.04855 11.04855,-11.04855c6.10194,0 11.04854,4.9466 11.04854,11.04855z" id="svg_367" stroke="#cda400"/>
      <path fill="#ffcc00" id="svg_368" d="m181.128615,38.576715c-0.008,0.14853 -0.0312,0.28702 -0.0312,0.4375c0,4.63747 3.73752,8.40625 8.375,8.40625c4.63747,0 8.40625,-3.76878 8.40625,-8.40625c0,-0.15048 -0.0234,-0.28897 -0.0312,-0.4375l-16.71875,0l-0.0001,0z" stroke="null"/>
     </g>
    </g>
   </g>
  </g>
  <g id="svg_383" stroke="null">
   <g id="svg_375" transform="matrix(0.9408657402091183,0,0,0.8618550251289684,122.06486613720391,-9.46670773553989) " stroke="null">
    <title transform="translate(0,-1.1602879762649536) translate(-1.0628509521484375,0) translate(0,-1.1602879762649536) translate(0,-1.1602879762649536) translate(-1.0628509521484375,0) translate(-1.0628509521484375,0) translate(-1.0628509521484375,0) translate(-1.0628509521484375,0) ">background</title>
    <rect fill="none" id="svg_374" height="68.3622" width="58.09449" y="169.410789" x="330.658878" stroke="null"/>
   </g>
   <g id="svg_382" transform="matrix(0.9408657402091183,0,0,0.8618550251289684,122.06486613720391,-9.46670773553989) " stroke="null">
    <title transform="translate(0,-1.1602879762649536) translate(-1.0628509521484375,0) translate(0,-1.1602879762649536) translate(0,-1.1602879762649536) translate(-1.0628509521484375,0) translate(-1.0628509521484375,0) translate(-1.0628509521484375,0) translate(-1.0628509521484375,0) ">Layer 1</title>
    <g transform="matrix(1.3560283,0,0,1.3560283,104.02935,109.49134) " id="svg_381" stroke="null">
     <g id="svg_380" stroke="null">
      <path fill="#a88600" fill-rule="nonzero" stroke-width="2.2" id="svg_377" d="m177.340775,68.058805c0,0 0.007,2.39748 0.007,3.25547c0,6.69643 5.42857,12.15625 12.125,12.15625c6.69643,0 12.15625,-5.45982 12.15625,-12.15625c0,-0.85779 -0.0255,-3.33173 -0.0255,-3.33173l-24.26275,0.07626z" stroke="null"/>
      <path fill="#ffd948" stroke-width="2.2" stroke-miterlimit="4" d="m200.535385,68.968865c0,6.10194 -4.9466,11.04854 -11.04854,11.04854c-6.10195,0 -11.04855,-4.9466 -11.04855,-11.04854c0,-6.10195 4.9466,-11.04855 11.04855,-11.04855c6.10194,0 11.04854,4.9466 11.04854,11.04855z" id="svg_378" stroke="#cda400"/>
      <path fill="#ffcc00" id="svg_379" d="m181.128595,68.524525c-0.008,0.14853 -0.0312,0.28702 -0.0312,0.4375c0,4.63747 3.73752,8.40625 8.375,8.40625c4.63747,0 8.40625,-3.76878 8.40625,-8.40625c0,-0.15048 -0.0234,-0.28897 -0.0312,-0.4375l-16.71875,0l-0.0001,0z" stroke="null"/>
     </g>
    </g>
   </g>
  </g>
  <g id="svg_394" stroke="null">
   <g id="svg_386" transform="matrix(0.9408657402091183,0,0,0.8618550251289684,122.06486613720391,-9.46670773553989) " stroke="null">
    <title transform="translate(0,-1.1602879762649536) translate(-1.0628509521484375,0) translate(0,-1.1602879762649536) translate(0,-1.1602879762649536) translate(-1.0628509521484375,0) translate(-1.0628509521484375,0) translate(-1.0628509521484375,0) translate(-1.0628509521484375,0) ">background</title>
    <rect fill="none" id="svg_385" height="68.3622" width="58.09449" y="2.329324" x="366.795841" stroke="null"/>
   </g>
   <g id="svg_393" transform="matrix(0.9408657402091183,0,0,0.8618550251289684,122.06486613720391,-9.46670773553989) " stroke="null">
    <title transform="translate(0,-1.1602879762649536) translate(-1.0628509521484375,0) translate(0,-1.1602879762649536) translate(0,-1.1602879762649536) translate(-1.0628509521484375,0) translate(-1.0628509521484375,0) translate(-1.0628509521484375,0) translate(-1.0628509521484375,0) ">Layer 1</title>
    <g transform="matrix(1.3560283,0,0,1.3560283,104.02935,109.49134) " id="svg_392" stroke="null">
     <g id="svg_391" stroke="null">
      <path fill="#a88600" fill-rule="nonzero" stroke-width="2.2" id="svg_388" d="m203.989915,-55.155045c0,0 0.007,2.39748 0.007,3.25547c0,6.69643 5.42857,12.15625 12.125,12.15625c6.69643,0 12.15625,-5.45982 12.15625,-12.15625c0,-0.85779 -0.0255,-3.33173 -0.0255,-3.33173l-24.26275,0.07626z" stroke="null"/>
      <path fill="#ffd948" stroke-width="2.2" stroke-miterlimit="4" d="m227.184525,-54.244985c0,6.10194 -4.9466,11.04854 -11.04854,11.04854c-6.10195,0 -11.04855,-4.9466 -11.04855,-11.04854c0,-6.10195 4.9466,-11.04855 11.04855,-11.04855c6.10194,0 11.04854,4.9466 11.04854,11.04855z" id="svg_389" stroke="#cda400"/>
      <path fill="#ffcc00" id="svg_390" d="m207.777735,-54.689325c-0.008,0.14853 -0.0312,0.28702 -0.0312,0.4375c0,4.63747 3.73752,8.40625 8.375,8.40625c4.63747,0 8.40625,-3.76878 8.40625,-8.40625c0,-0.15048 -0.0234,-0.28897 -0.0312,-0.4375l-16.71875,0l-0.0001,0z" stroke="null"/>
     </g>
    </g>
   </g>
  </g>
  <g id="svg_405" stroke="null">
   <g id="svg_397" transform="matrix(0.9408657402091183,0,0,0.8618550251289684,122.06486613720391,-9.46670773553989) " stroke="null">
    <title transform="translate(0,-1.1602879762649536) translate(-1.0628509521484375,0) translate(0,-1.1602879762649536) translate(0,-1.1602879762649536) translate(-1.0628509521484375,0) translate(-1.0628509521484375,0) translate(-1.0628509521484375,0) translate(-1.0628509521484375,0) ">background</title>
    <rect fill="none" id="svg_396" height="68.3622" width="58.09449" y="6.970476" x="403.995609" stroke="null"/>
   </g>
   <g id="svg_404" transform="matrix(0.9408657402091183,0,0,0.8618550251289684,122.06486613720391,-9.46670773553989) " stroke="null">
    <title transform="translate(0,-1.1602879762649536) translate(-1.0628509521484375,0) translate(0,-1.1602879762649536) translate(0,-1.1602879762649536) translate(-1.0628509521484375,0) translate(-1.0628509521484375,0) translate(-1.0628509521484375,0) translate(-1.0628509521484375,0) ">Layer 1</title>
    <g transform="matrix(1.3560283,0,0,1.3560283,104.02935,109.49134) " id="svg_403" stroke="null">
     <g id="svg_402" stroke="null">
      <path fill="#a88600" fill-rule="nonzero" stroke-width="2.2" id="svg_399" d="m231.422805,-51.732435c0,0 0.007,2.39748 0.007,3.25547c0,6.69643 5.42857,12.15625 12.125,12.15625c6.69643,0 12.15625,-5.45982 12.15625,-12.15625c0,-0.85779 -0.0255,-3.33173 -0.0255,-3.33173l-24.26275,0.07626z" stroke="null"/>
      <path fill="#ffd948" stroke-width="2.2" stroke-miterlimit="4" d="m254.617415,-50.822375c0,6.10194 -4.9466,11.04854 -11.04854,11.04854c-6.10195,0 -11.04855,-4.9466 -11.04855,-11.04854c0,-6.10195 4.9466,-11.04855 11.04855,-11.04855c6.10194,0 11.04854,4.9466 11.04854,11.04855z" id="svg_400" stroke="#cda400"/>
      <path fill="#ffcc00" id="svg_401" d="m235.210625,-51.266715c-0.008,0.14853 -0.0312,0.28702 -0.0312,0.4375c0,4.63747 3.73752,8.40625 8.375,8.40625c4.63747,0 8.40625,-3.76878 8.40625,-8.40625c0,-0.15048 -0.0234,-0.28897 -0.0312,-0.4375l-16.71875,0l-0.0001,0z" stroke="null"/>
     </g>
    </g>
   </g>
  </g>
  <g id="svg_416" stroke="null">
   <g id="svg_408" transform="matrix(0.9408657402091183,0,0,0.8618550251289684,122.06486613720391,-9.46670773553989) " stroke="null">
    <title transform="translate(0,-1.1602879762649536) translate(-1.0628509521484375,0) translate(0,-1.1602879762649536) translate(0,-1.1602879762649536) translate(-1.0628509521484375,0) translate(-1.0628509521484375,0) translate(-1.0628509521484375,0) translate(-1.0628509521484375,0) ">background</title>
    <rect fill="none" id="svg_407" height="68.3622" width="58.09449" y="29.015946" x="433.75542" stroke="null"/>
   </g>
   <g id="svg_415" transform="matrix(0.9408657402091183,0,0,0.8618550251289684,122.06486613720391,-9.46670773553989) " stroke="null">
    <title transform="translate(0,-1.1602879762649536) translate(-1.0628509521484375,0) translate(0,-1.1602879762649536) translate(0,-1.1602879762649536) translate(-1.0628509521484375,0) translate(-1.0628509521484375,0) translate(-1.0628509521484375,0) translate(-1.0628509521484375,0) ">Layer 1</title>
    <g transform="matrix(1.3560283,0,0,1.3560283,104.02935,109.49134) " id="svg_414" stroke="null">
     <g id="svg_413" stroke="null">
      <path fill="#a88600" fill-rule="nonzero" stroke-width="2.2" id="svg_410" d="m253.369115,-35.475055c0,0 0.007,2.39748 0.007,3.25547c0,6.69643 5.42857,12.15625 12.125,12.15625c6.69643,0 12.15625,-5.45982 12.15625,-12.15625c0,-0.85779 -0.0255,-3.33173 -0.0255,-3.33173l-24.26275,0.07626z" stroke="null"/>
      <path fill="#ffd948" stroke-width="2.2" stroke-miterlimit="4" d="m276.563725,-34.564995c0,6.10194 -4.9466,11.04854 -11.04854,11.04854c-6.10195,0 -11.04855,-4.9466 -11.04855,-11.04854c0,-6.10195 4.9466,-11.04855 11.04855,-11.04855c6.10194,0 11.04854,4.9466 11.04854,11.04855z" id="svg_411" stroke="#cda400"/>
      <path fill="#ffcc00" id="svg_412" d="m257.156935,-35.009335c-0.008,0.14853 -0.0312,0.28702 -0.0312,0.4375c0,4.63747 3.73752,8.40625 8.375,8.40625c4.63747,0 8.40625,-3.76878 8.40625,-8.40625c0,-0.15048 -0.0234,-0.28897 -0.0312,-0.4375l-16.71875,0l-0.0001,0z" stroke="null"/>
     </g>
    </g>
   </g>
  </g>
  <g id="svg_427" stroke="null">
   <g id="svg_419" transform="matrix(0.9408657402091183,0,0,0.8618550251289684,122.06486613720391,-9.46670773553989) " stroke="null">
    <title transform="translate(0,-1.1602879762649536) translate(-1.0628509521484375,0) translate(0,-1.1602879762649536) translate(0,-1.1602879762649536) translate(-1.0628509521484375,0) translate(-1.0628509521484375,0) translate(-1.0628509521484375,0) translate(-1.0628509521484375,0) ">background</title>
    <rect fill="none" id="svg_418" height="68.3622" width="58.09449" y="66.14516" x="433.755419" stroke="null"/>
   </g>
   <g id="svg_426" transform="matrix(0.9408657402091183,0,0,0.8618550251289684,122.06486613720391,-9.46670773553989) " stroke="null">
    <title transform="translate(0,-1.1602879762649536) translate(-1.0628509521484375,0) translate(0,-1.1602879762649536) translate(0,-1.1602879762649536) translate(-1.0628509521484375,0) translate(-1.0628509521484375,0) translate(-1.0628509521484375,0) translate(-1.0628509521484375,0) ">Layer 1</title>
    <g transform="matrix(1.3560283,0,0,1.3560283,104.02935,109.49134) " id="svg_425" stroke="null">
     <g id="svg_424" stroke="null">
      <path fill="#a88600" fill-rule="nonzero" stroke-width="2.2" id="svg_421" d="m253.369105,-8.094195c0,0 0.007,2.39748 0.007,3.25547c0,6.69643 5.42857,12.15625 12.125,12.15625c6.69643,0 12.15625,-5.45982 12.15625,-12.15625c0,-0.85779 -0.0255,-3.33173 -0.0255,-3.33173l-24.26275,0.07626z" stroke="null"/>
      <path fill="#ffd948" stroke-width="2.2" stroke-miterlimit="4" d="m276.563715,-7.184135c0,6.10194 -4.9466,11.04854 -11.04854,11.04854c-6.10195,0 -11.04855,-4.9466 -11.04855,-11.04854c0,-6.10195 4.9466,-11.04855 11.04855,-11.04855c6.10194,0 11.04854,4.9466 11.04854,11.04855z" id="svg_422" stroke="#cda400"/>
      <path fill="#ffcc00" id="svg_423" d="m257.156925,-7.628475c-0.008,0.14853 -0.0312,0.28702 -0.0312,0.4375c0,4.63747 3.73752,8.40625 8.375,8.40625c4.63747,0 8.40625,-3.76878 8.40625,-8.40625c0,-0.15048 -0.0234,-0.28897 -0.0312,-0.4375l-16.71875,0l-0.0001,0z" stroke="null"/>
     </g>
    </g>
   </g>
  </g>
  <g id="svg_438" stroke="null">
   <g id="svg_430" transform="matrix(0.9408657402091183,0,0,0.8618550251289684,122.06486613720391,-9.46670773553989) " stroke="null">
    <title transform="translate(0,-1.1602879762649536) translate(-1.0628509521484375,0) translate(0,-1.1602879762649536) translate(0,-1.1602879762649536) translate(-1.0628509521484375,0) translate(-1.0628509521484375,0) translate(-1.0628509521484375,0) translate(-1.0628509521484375,0) ">background</title>
    <rect fill="none" id="svg_429" height="68.3622" width="58.09449" y="87.030345" x="401.869921" stroke="null"/>
   </g>
   <g id="svg_437" transform="matrix(0.9408657402091183,0,0,0.8618550251289684,122.06486613720391,-9.46670773553989) " stroke="null">
    <title transform="translate(0,-1.1602879762649536) translate(-1.0628509521484375,0) translate(0,-1.1602879762649536) translate(0,-1.1602879762649536) translate(-1.0628509521484375,0) translate(-1.0628509521484375,0) translate(-1.0628509521484375,0) translate(-1.0628509521484375,0) ">Layer 1</title>
    <g transform="matrix(1.3560283,0,0,1.3560283,104.02935,109.49134) " id="svg_436" stroke="null">
     <g id="svg_435" stroke="null">
      <path fill="#a88600" fill-rule="nonzero" stroke-width="2.2" id="svg_432" d="m229.855215,7.307535c0,0 0.007,2.39748 0.007,3.25547c0,6.69643 5.42857,12.15625 12.125,12.15625c6.69643,0 12.15625,-5.45982 12.15625,-12.15625c0,-0.85779 -0.0255,-3.33173 -0.0255,-3.33173l-24.26275,0.07626z" stroke="null"/>
      <path fill="#ffd948" stroke-width="2.2" stroke-miterlimit="4" d="m253.049825,8.217595c0,6.10194 -4.9466,11.04854 -11.04854,11.04854c-6.10195,0 -11.04855,-4.9466 -11.04855,-11.04854c0,-6.10195 4.9466,-11.04855 11.04855,-11.04855c6.10194,0 11.04854,4.9466 11.04854,11.04855z" id="svg_433" stroke="#cda400"/>
      <path fill="#ffcc00" id="svg_434" d="m233.643035,7.773255c-0.008,0.14853 -0.0312,0.28702 -0.0312,0.4375c0,4.63747 3.73752,8.40625 8.375,8.40625c4.63747,0 8.40625,-3.76878 8.40625,-8.40625c0,-0.15048 -0.0234,-0.28897 -0.0312,-0.4375l-16.71875,0l-0.0001,0z" stroke="null"/>
     </g>
    </g>
   </g>
  </g>
  <g id="svg_449" stroke="null">
   <g id="svg_441" transform="matrix(0.9408657402091183,0,0,0.8618550251289684,122.06486613720391,-9.46670773553989) " stroke="null">
    <title transform="translate(0,-1.1602879762649536) translate(-1.0628509521484375,0) translate(0,-1.1602879762649536) translate(0,-1.1602879762649536) translate(-1.0628509521484375,0) translate(-1.0628509521484375,0) translate(-1.0628509521484375,0) translate(-1.0628509521484375,0) ">background</title>
    <rect fill="none" id="svg_440" height="68.3622" width="58.09449" y="87.030347" x="365.73299" stroke="null"/>
   </g>
   <g id="svg_448" transform="matrix(0.9408657402091183,0,0,0.8618550251289684,122.06486613720391,-9.46670773553989) " stroke="null">
    <title transform="translate(0,-1.1602879762649536) translate(-1.0628509521484375,0) translate(0,-1.1602879762649536) translate(0,-1.1602879762649536) translate(-1.0628509521484375,0) translate(-1.0628509521484375,0) translate(-1.0628509521484375,0) translate(-1.0628509521484375,0) ">Layer 1</title>
    <g transform="matrix(1.3560283,0,0,1.3560283,104.02935,109.49134) " id="svg_447" stroke="null">
     <g id="svg_446" stroke="null">
      <path fill="#a88600" fill-rule="nonzero" stroke-width="2.2" id="svg_443" d="m203.206115,7.307535c0,0 0.007,2.39748 0.007,3.25547c0,6.69643 5.42858,12.15625 12.125,12.15625c6.69643,0 12.15625,-5.45982 12.15625,-12.15625c0,-0.85779 -0.02549,-3.33173 -0.02549,-3.33173l-24.26276,0.07626z" stroke="null"/>
      <path fill="#ffd948" stroke-width="2.2" stroke-miterlimit="4" d="m226.400735,8.217595c0,6.10194 -4.9466,11.04854 -11.04855,11.04854c-6.10194,0 -11.04855,-4.9466 -11.04855,-11.04854c0,-6.10195 4.9466,-11.04855 11.04855,-11.04855c6.10195,0 11.04855,4.9466 11.04855,11.04855z" id="svg_444" stroke="#cda400"/>
      <path fill="#ffcc00" id="svg_445" d="m206.993945,7.773255c-0.00801,0.14853 -0.03121,0.28702 -0.03121,0.4375c0,4.63747 3.73752,8.40625 8.375,8.40625c4.63747,0 8.40625,-3.76878 8.40625,-8.40625c0,-0.15048 -0.0234,-0.28897 -0.0312,-0.4375l-16.71875,0l-0.0001,0l0.00001,0z" stroke="null"/>
     </g>
    </g>
   </g>
  </g>
  <g id="svg_460" stroke="null">
   <g id="svg_452" transform="matrix(0.9408657402091183,0,0,0.8618550251289684,122.06486613720391,-9.46670773553989) " stroke="null">
    <title transform="translate(0,-1.1602879762649536) translate(-1.0628509521484375,0) translate(0,-1.1602879762649536) translate(0,-1.1602879762649536) translate(-1.0628509521484375,0) translate(-1.0628509521484375,0) translate(-1.0628509521484375,0) translate(-1.0628509521484375,0) ">background</title>
    <rect fill="none" id="svg_451" height="68.3622" width="58.09449" y="113.71697" x="431.629718" stroke="null"/>
   </g>
   <g id="svg_459" transform="matrix(0.9408657402091183,0,0,0.8618550251289684,122.06486613720391,-9.46670773553989) " stroke="null">
    <title transform="translate(0,-1.1602879762649536) translate(-1.0628509521484375,0) translate(0,-1.1602879762649536) translate(0,-1.1602879762649536) translate(-1.0628509521484375,0) translate(-1.0628509521484375,0) translate(-1.0628509521484375,0) translate(-1.0628509521484375,0) ">Layer 1</title>
    <g transform="matrix(1.3560283,0,0,1.3560283,104.02935,109.49134) " id="svg_458" stroke="null">
     <g id="svg_457" stroke="null">
      <path fill="#a88600" fill-rule="nonzero" stroke-width="2.2" id="svg_454" d="m251.801505,26.987525c0,0 0.007,2.39748 0.007,3.25547c0,6.69643 5.42857,12.15625 12.125,12.15625c6.69643,0 12.15625,-5.45982 12.15625,-12.15625c0,-0.85779 -0.0255,-3.33173 -0.0255,-3.33173l-24.26275,0.07626z" stroke="null"/>
      <path fill="#ffd948" stroke-width="2.2" stroke-miterlimit="4" d="m274.996115,27.897585c0,6.10194 -4.9466,11.04854 -11.04854,11.04854c-6.10195,0 -11.04855,-4.9466 -11.04855,-11.04854c0,-6.10195 4.9466,-11.04855 11.04855,-11.04855c6.10194,0 11.04854,4.9466 11.04854,11.04855z" id="svg_455" stroke="#cda400"/>
      <path fill="#ffcc00" id="svg_456" d="m255.589325,27.453245c-0.008,0.14853 -0.0312,0.28702 -0.0312,0.4375c0,4.63747 3.73752,8.40625 8.375,8.40625c4.63747,0 8.40625,-3.76878 8.40625,-8.40625c0,-0.15048 -0.0234,-0.28897 -0.0312,-0.4375l-16.71875,0l-0.0001,0z" stroke="null"/>
     </g>
    </g>
   </g>
  </g>
  <g id="svg_471" stroke="null">
   <g id="svg_463" transform="matrix(0.9408657402091183,0,0,0.8618550251289684,122.06486613720391,-9.46670773553989) " stroke="null">
    <title transform="translate(0,-1.1602879762649536) translate(-1.0628509521484375,0) translate(0,-1.1602879762649536) translate(0,-1.1602879762649536) translate(-1.0628509521484375,0) translate(-1.0628509521484375,0) translate(-1.0628509521484375,0) translate(-1.0628509521484375,0) ">background</title>
    <rect fill="none" id="svg_462" height="68.3622" width="58.09449" y="169.410789" x="366.795841" stroke="null"/>
   </g>
   <g id="svg_470" transform="matrix(0.9408657402091183,0,0,0.8618550251289684,122.06486613720391,-9.46670773553989) " stroke="null">
    <title transform="translate(0,-1.1602879762649536) translate(-1.0628509521484375,0) translate(0,-1.1602879762649536) translate(0,-1.1602879762649536) translate(-1.0628509521484375,0) translate(-1.0628509521484375,0) translate(-1.0628509521484375,0) translate(-1.0628509521484375,0) ">Layer 1</title>
    <g transform="matrix(1.3560283,0,0,1.3560283,104.02935,109.49134) " id="svg_469" stroke="null">
     <g id="svg_468" stroke="null">
      <path fill="#a88600" fill-rule="nonzero" stroke-width="2.2" id="svg_465" d="m203.989915,68.058805c0,0 0.007,2.39748 0.007,3.25547c0,6.69643 5.42857,12.15625 12.125,12.15625c6.69643,0 12.15625,-5.45982 12.15625,-12.15625c0,-0.85779 -0.0255,-3.33173 -0.0255,-3.33173l-24.26275,0.07626z" stroke="null"/>
      <path fill="#ffd948" stroke-width="2.2" stroke-miterlimit="4" d="m227.184525,68.968865c0,6.10194 -4.9466,11.04854 -11.04854,11.04854c-6.10195,0 -11.04855,-4.9466 -11.04855,-11.04854c0,-6.10195 4.9466,-11.04855 11.04855,-11.04855c6.10194,0 11.04854,4.9466 11.04854,11.04855z" id="svg_466" stroke="#cda400"/>
      <path fill="#ffcc00" id="svg_467" d="m207.777735,68.524525c-0.008,0.14853 -0.0312,0.28702 -0.0312,0.4375c0,4.63747 3.73752,8.40625 8.375,8.40625c4.63747,0 8.40625,-3.76878 8.40625,-8.40625c0,-0.15048 -0.0234,-0.28897 -0.0312,-0.4375l-16.71875,0l-0.0001,0z" stroke="null"/>
     </g>
    </g>
   </g>
  </g>
  <g id="svg_482" stroke="null">
   <g id="svg_474" transform="matrix(0.9408657402091183,0,0,0.8618550251289684,122.06486613720391,-9.46670773553989) " stroke="null">
    <title transform="translate(0,-1.1602879762649536) translate(-1.0628509521484375,0) translate(0,-1.1602879762649536) translate(0,-1.1602879762649536) translate(-1.0628509521484375,0) translate(-1.0628509521484375,0) translate(-1.0628509521484375,0) translate(-1.0628509521484375,0) ">background</title>
    <rect fill="none" id="svg_473" height="68.3622" width="58.09449" y="165.929918" x="401.869891" stroke="null"/>
   </g>
   <g id="svg_481" transform="matrix(0.9408657402091183,0,0,0.8618550251289684,122.06486613720391,-9.46670773553989) " stroke="null">
    <title transform="translate(0,-1.1602879762649536) translate(-1.0628509521484375,0) translate(0,-1.1602879762649536) translate(0,-1.1602879762649536) translate(-1.0628509521484375,0) translate(-1.0628509521484375,0) translate(-1.0628509521484375,0) translate(-1.0628509521484375,0) ">Layer 1</title>
    <g transform="matrix(1.3560283,0,0,1.3560283,104.02935,109.49134) " id="svg_480" stroke="null">
     <g id="svg_479" stroke="null">
      <path fill="#a88600" fill-rule="nonzero" stroke-width="2.2" id="svg_476" d="m229.855195,65.491845c0,0 0.007,2.39748 0.007,3.25547c0,6.69643 5.42857,12.15625 12.125,12.15625c6.69643,0 12.15625,-5.45982 12.15625,-12.15625c0,-0.85779 -0.0255,-3.33173 -0.0255,-3.33173l-24.26275,0.07626z" stroke="null"/>
      <path fill="#ffd948" stroke-width="2.2" stroke-miterlimit="4" d="m253.049805,66.401905c0,6.10194 -4.9466,11.04854 -11.04854,11.04854c-6.10195,0 -11.04855,-4.9466 -11.04855,-11.04854c0,-6.10195 4.9466,-11.04855 11.04855,-11.04855c6.10194,0 11.04854,4.9466 11.04854,11.04855z" id="svg_477" stroke="#cda400"/>
      <path fill="#ffcc00" id="svg_478" d="m233.643015,65.957565c-0.008,0.14853 -0.0312,0.28702 -0.0312,0.4375c0,4.63747 3.73752,8.40625 8.375,8.40625c4.63747,0 8.40625,-3.76878 8.40625,-8.40625c0,-0.15048 -0.0234,-0.28897 -0.0312,-0.4375l-16.71875,0l-0.0001,0z" stroke="null"/>
     </g>
    </g>
   </g>
  </g>
  <g id="svg_493" stroke="null">
   <g id="svg_485" transform="matrix(0.9408657402091183,0,0,0.8618550251289684,122.06486613720391,-9.46670773553989) " stroke="null">
    <title transform="translate(0,-1.1602879762649536) translate(-1.0628509521484375,0) translate(0,-1.1602879762649536) translate(0,-1.1602879762649536) translate(-1.0628509521484375,0) translate(-1.0628509521484375,0) translate(-1.0628509521484375,0) translate(-1.0628509521484375,0) ">background</title>
    <rect fill="none" id="svg_484" height="68.3622" width="58.09449" y="150.84618" x="433.75542" stroke="null"/>
   </g>
   <g id="svg_492" transform="matrix(0.9408657402091183,0,0,0.8618550251289684,122.06486613720391,-9.46670773553989) " stroke="null">
    <title transform="translate(0,-1.1602879762649536) translate(-1.0628509521484375,0) translate(0,-1.1602879762649536) translate(0,-1.1602879762649536) translate(-1.0628509521484375,0) translate(-1.0628509521484375,0) translate(-1.0628509521484375,0) translate(-1.0628509521484375,0) ">Layer 1</title>
    <g transform="matrix(1.3560283,0,0,1.3560283,104.02935,109.49134) " id="svg_491" stroke="null">
     <g id="svg_490" stroke="null">
      <path fill="#a88600" fill-rule="nonzero" stroke-width="2.2" id="svg_487" d="m253.369115,54.368375c0,0 0.007,2.39748 0.007,3.25547c0,6.69643 5.42857,12.15625 12.125,12.15625c6.69643,0 12.15625,-5.45982 12.15625,-12.15625c0,-0.85779 -0.0255,-3.33173 -0.0255,-3.33173l-24.26275,0.07626z" stroke="null"/>
      <path fill="#ffd948" stroke-width="2.2" stroke-miterlimit="4" d="m276.563725,55.278435c0,6.10194 -4.9466,11.04854 -11.04854,11.04854c-6.10195,0 -11.04855,-4.9466 -11.04855,-11.04854c0,-6.10195 4.9466,-11.04855 11.04855,-11.04855c6.10194,0 11.04854,4.9466 11.04854,11.04855z" id="svg_488" stroke="#cda400"/>
      <path fill="#ffcc00" id="svg_489" d="m257.156935,54.834095c-0.008,0.14853 -0.0312,0.28702 -0.0312,0.4375c0,4.63747 3.73752,8.40625 8.375,8.40625c4.63747,0 8.40625,-3.76878 8.40625,-8.40625c0,-0.15048 -0.0234,-0.28897 -0.0312,-0.4375l-16.71875,0l-0.0001,0z" stroke="null"/>
     </g>
    </g>
   </g>
  </g>
 </g>
</svg>